<svg data-v-decfdd8a="" version="1.0" xmlns="http://www.w3.org/2000/svg" xmlns:xlink="http://www.w3.org/1999/xlink" width="100%" height="100%" viewBox="0 0 340.000000 250.000000" preserveAspectRatio="xMidYMid meet" color-interpolation-filters="sRGB" style="margin: auto;">
<g data-v-decfdd8a="" fill="#0B5394" class="icon-text-wrapper icon-svg-group iconsvg" transform="translate(47.05000305175781,95.38119316101074)"><g class="iconsvg-imagesvg" transform="translate(0,0)"><g><rect fill="#0B5394" fill-opacity="0" stroke-width="2" x="0" y="0" width="60" height="59.23761193440422" class="image-rect"></rect> <svg x="0" y="0" width="60" height="59.23761193440422" filtersec="colorsb5214529901" class="image-svg-svg primary" style="overflow: visible;"><svg xmlns="http://www.w3.org/2000/svg" viewBox="0.05341938138008118 0 101.28657531738281 100.00006866455078"><path d="M50.72 100a50.73 50.73 0 0 0 48.54-35.72C72.44 62.5 52.06 77.54 36.56 98a51.69 51.69 0 0 0 14.16 2zM42.16 0a50.3 50.3 0 0 0-5.6 98c0-.64-.07-1.24-.07-1.85C1.91 79.52 24.74 21.89 42.16 0z" fill="#6AA84F"></path><path d="M63.88 1C28.63 29.34 16.65 59.35 33.47 91.41v.06q1 2 2.22 3.93C24.17 58.58 41.89 31 83.15 10.94A50 50 0 0 0 63.88 1z" fill="#674EA7"></path><path d="M96.84 28.67C56 38.07 34.41 60.19 36.56 98c12.38-31.72 33-50.35 64.78-51.13a49.31 49.31 0 0 0-4.5-18.2z" fill="#674EA7"></path></svg></svg> <!----></g></g> <g transform="translate(67,10.528694152832031)"><g data-gra="path-name" fill-rule="" class="tp-name iconsvg-namesvg" transform="translate(0,0)"><g transform="scale(1)"><g><path d="M4.99 0L0.63 0 5.71-25.43 10.68-25.43 15.76 0 11.46 0 10.46-5.87 6.03-5.87 4.99 0ZM8.23-19.5L6.5-8.82 9.95-8.82 8.23-19.5ZM22.89 0L18.3 0 18.3-25.43 22.89-25.43 22.89 0ZM30.77 0L26.81 0 26.81-25.43 30.05-25.43 36.23-10.93 36.23-25.43 40.06-25.43 40.06 0 36.99 0 30.77-15.2 30.77 0ZM49.14 0.28L49.14 0.28Q47.1 0.28 45.81-0.49 44.52-1.26 43.91-2.75 43.3-4.24 43.3-6.34L43.3-6.34 43.3-11.81Q43.3-13.97 43.91-15.45 44.52-16.92 45.82-17.68 47.13-18.43 49.14-18.43L49.14-18.43Q51.3-18.43 52.51-17.61 53.72-16.8 54.24-15.24 54.76-13.69 54.76-11.46L54.76-11.46 54.76-8.89 47.54-8.89 47.54-5.31Q47.54-4.43 47.71-3.86 47.88-3.3 48.26-3.05 48.63-2.79 49.17-2.79L49.17-2.79Q49.73-2.79 50.08-3.06 50.42-3.33 50.58-3.85 50.74-4.36 50.74-5.15L50.74-5.15 50.74-6.66 54.73-6.66 54.73-5.43Q54.73-2.67 53.34-1.19 51.96 0.28 49.14 0.28ZM47.54-12.24L47.54-10.99 50.74-10.99 50.74-12.72Q50.74-13.66 50.58-14.24 50.42-14.82 50.08-15.09 49.73-15.35 49.11-15.35L49.11-15.35Q48.54-15.35 48.19-15.07 47.85-14.79 47.69-14.13 47.54-13.47 47.54-12.24L47.54-12.24ZM63.27 0L59.56 0 56.77-18.15 60.31-18.15 61.92-6.37 63.8-18.15 66.97-18.15 68.76-6.25 70.49-18.15 73.85-18.15 70.99 0 67.38 0 65.37-11.46 63.27 0ZM81.19 0.28L81.19 0.28Q78.9 0.28 77.43-0.94 75.95-2.17 75.32-4.52L75.32-4.52 78.49-5.75Q78.87-4.27 79.5-3.49 80.13-2.7 81.13-2.7L81.13-2.7Q81.88-2.7 82.26-3.08 82.64-3.45 82.64-4.11L82.64-4.11Q82.64-4.87 82.18-5.48 81.73-6.09 80.63-7L80.63-7 78.43-8.85Q77.24-9.89 76.5-10.97 75.76-12.06 75.76-13.69L75.76-13.69Q75.76-15.16 76.44-16.22 77.11-17.27 78.29-17.85 79.47-18.43 80.91-18.43L80.91-18.43Q83.11-18.43 84.44-17.13 85.78-15.82 86.15-13.72L86.15-13.72 83.36-12.53Q83.2-13.28 82.9-13.92 82.61-14.57 82.14-14.98 81.66-15.38 81.04-15.38L81.04-15.38Q80.38-15.38 79.98-14.98 79.59-14.57 79.59-13.94L79.59-13.94Q79.59-13.41 80.05-12.84 80.5-12.28 81.35-11.55L81.35-11.55 83.58-9.54Q84.3-8.92 84.96-8.19 85.62-7.47 86.06-6.58 86.5-5.68 86.5-4.52L86.5-4.52Q86.5-2.95 85.79-1.88 85.09-0.82 83.88-0.27 82.67 0.28 81.19 0.28ZM96.3 0L91.65 0 91.65-22.01 87.6-22.01 87.6-25.43 100.28-25.43 100.28-22.01 96.3-22.01 96.3 0ZM106.69 0L102.42 0 102.42-18.15 106.69-18.15 106.69-15.35Q107.63-16.95 108.57-17.66 109.51-18.37 110.64-18.37L110.64-18.37Q110.83-18.37 110.97-18.35 111.11-18.34 111.3-18.3L111.3-18.3 111.3-13.88Q110.93-14.03 110.47-14.14 110.02-14.25 109.54-14.25L109.54-14.25Q108.7-14.25 108.01-13.85 107.32-13.44 106.69-12.5L106.69-12.5 106.69 0ZM116.86 0.28L116.86 0.28Q115.64 0.28 114.76-0.36 113.88-1 113.41-1.99 112.94-2.98 112.94-4.05L112.94-4.05Q112.94-5.75 113.56-6.91 114.19-8.07 115.23-8.85 116.26-9.64 117.58-10.22 118.9-10.8 120.25-11.27L120.25-11.27 120.25-12.84Q120.25-13.63 120.14-14.16 120.03-14.69 119.73-14.98 119.43-15.26 118.81-15.26L118.81-15.26Q118.27-15.26 117.94-15.01 117.61-14.76 117.47-14.3 117.33-13.85 117.3-13.25L117.3-13.25 117.24-12.15 113.19-12.31Q113.28-15.45 114.74-16.94 116.2-18.43 119.18-18.43L119.18-18.43Q121.92-18.43 123.16-16.92 124.4-15.42 124.4-12.84L124.4-12.84 124.4-4.46Q124.4-3.45 124.44-2.64 124.49-1.82 124.57-1.16 124.65-0.5 124.71 0L124.71 0 120.88 0Q120.78-0.63 120.64-1.43 120.5-2.23 120.44-2.61L120.44-2.61Q120.13-1.51 119.25-0.61 118.37 0.28 116.86 0.28ZM118.43-2.89L118.43-2.89Q118.84-2.89 119.2-3.09 119.56-3.3 119.84-3.58 120.13-3.86 120.25-4.08L120.25-4.08 120.25-9.14Q119.56-8.73 118.95-8.32 118.34-7.91 117.88-7.43 117.43-6.94 117.19-6.37 116.95-5.81 116.95-5.05L116.95-5.05Q116.95-4.05 117.35-3.47 117.74-2.89 118.43-2.89ZM133 0.28L133 0.28Q130.89 0.28 129.62-0.52 128.35-1.32 127.77-2.81 127.19-4.3 127.19-6.34L127.19-6.34 127.19-11.81Q127.19-13.91 127.77-15.38 128.35-16.86 129.64-17.65 130.93-18.43 133-18.43L133-18.43Q134.95-18.43 136.19-17.82 137.43-17.21 137.99-15.97 138.56-14.73 138.56-12.84L138.56-12.84 138.56-11.33 134.54-11.33 134.54-12.94Q134.54-13.88 134.4-14.43 134.25-14.98 133.91-15.21 133.56-15.45 133-15.45L133-15.45Q132.43-15.45 132.09-15.15 131.74-14.85 131.6-14.19 131.46-13.53 131.46-12.37L131.46-12.37 131.46-5.71Q131.46-3.96 131.84-3.34 132.21-2.73 133.03-2.73L133.03-2.73Q133.66-2.73 133.99-3.01 134.32-3.3 134.43-3.85 134.54-4.4 134.54-5.18L134.54-5.18 134.54-7.13 138.56-7.13 138.56-5.4Q138.56-3.58 137.97-2.29 137.39-1 136.15-0.36 134.91 0.28 133 0.28ZM145.65 0L141.38 0 141.38-25.43 145.65-25.43 145.65-10.83 150.33-18.15 154.98-18.15 150.42-10.86 154.88 0 150.39 0 147.1-8.95 145.65-6.94 145.65 0ZM162.04 0.28L162.04 0.28Q160 0.28 158.71-0.49 157.43-1.26 156.81-2.75 156.2-4.24 156.2-6.34L156.2-6.34 156.2-11.81Q156.2-13.97 156.81-15.45 157.43-16.92 158.73-17.68 160.03-18.43 162.04-18.43L162.04-18.43Q164.21-18.43 165.42-17.61 166.62-16.8 167.14-15.24 167.66-13.69 167.66-11.46L167.66-11.46 167.66-8.89 160.44-8.89 160.44-5.31Q160.44-4.43 160.61-3.86 160.78-3.3 161.16-3.05 161.54-2.79 162.07-2.79L162.07-2.79Q162.64-2.79 162.98-3.06 163.33-3.33 163.49-3.85 163.64-4.36 163.64-5.15L163.64-5.15 163.64-6.66 167.63-6.66 167.63-5.43Q167.63-2.67 166.25-1.19 164.87 0.28 162.04 0.28ZM160.44-12.24L160.44-10.99 163.64-10.99 163.64-12.72Q163.64-13.66 163.49-14.24 163.33-14.82 162.98-15.09 162.64-15.35 162.01-15.35L162.01-15.35Q161.44-15.35 161.1-15.07 160.75-14.79 160.6-14.13 160.44-13.47 160.44-12.24L160.44-12.24ZM174.91 0L170.64 0 170.64-18.15 174.91-18.15 174.91-15.35Q175.86-16.95 176.8-17.66 177.74-18.37 178.87-18.37L178.87-18.37Q179.06-18.37 179.2-18.35 179.34-18.34 179.53-18.3L179.53-18.3 179.53-13.88Q179.15-14.03 178.7-14.14 178.24-14.25 177.77-14.25L177.77-14.25Q176.92-14.25 176.23-13.85 175.54-13.44 174.91-12.5L174.91-12.5 174.91 0Z" transform="translate(-0.6299999952316284, 25.43000030517578)"></path></g> <!----> <!----> <!----> <!----> <!----> <!----> <!----></g></g> <g data-gra="path-slogan" fill-rule="" class="tp-slogan iconsvg-slogansvg" fill="#674EA7" transform="translate(0.06499481201171875,31.71000099182129)"><rect width="0"></rect> <rect x="181.77000427246094" width="0"></rect> <g transform="translate(0,0)"><g transform="scale(1)"><path d="M0.86-6.25L0.86 0L4.38 0L4.38-0.68L1.65-0.68L1.65-6.25ZM5.48-6.25L5.48 0L9.18 0L9.18-0.68L6.27-0.68L6.27-2.94L8.65-2.94L8.65-3.62L6.27-3.62L6.27-5.58L9.08-5.58L9.08-6.25ZM9.65-6.25L11.64 0L12.57 0L14.55-6.25L13.74-6.25L12.74-2.88C12.63-2.50 12.53-2.15 12.44-1.84C12.36-1.52 12.25-1.18 12.14-0.81L12.10-0.81C11.98-1.18 11.88-1.52 11.79-1.84C11.71-2.15 11.61-2.50 11.49-2.88L10.49-6.25ZM15.41-6.25L15.41 0L19.10 0L19.10-0.68L16.20-0.68L16.20-2.94L18.57-2.94L18.57-3.62L16.20-3.62L16.20-5.58L19.00-5.58L19.00-6.25ZM21.21-3.28L21.21-5.61L22.26-5.61C22.75-5.61 23.12-5.53 23.38-5.36C23.64-5.20 23.77-4.91 23.77-4.49C23.77-4.09 23.64-3.78 23.38-3.58C23.12-3.38 22.75-3.28 22.26-3.28ZM23.85 0L24.75 0L23.17-2.72C23.59-2.83 23.93-3.03 24.18-3.32C24.44-3.61 24.56-4.01 24.56-4.49C24.56-4.82 24.51-5.09 24.40-5.31C24.30-5.54 24.14-5.72 23.95-5.86C23.76-6.00 23.53-6.10 23.26-6.16C22.99-6.22 22.69-6.25 22.38-6.25L20.42-6.25L20.42 0L21.21 0L21.21-2.64L22.35-2.64ZM28.52-2.54L26.64-2.54L26.94-3.49C27.05-3.84 27.16-4.19 27.26-4.54C27.36-4.88 27.46-5.24 27.55-5.60L27.59-5.60C27.69-5.24 27.80-4.88 27.90-4.54C28.00-4.19 28.11-3.84 28.22-3.49ZM28.72-1.90L29.31 0L30.15 0L28.04-6.25L27.15-6.25L25.03 0L25.84 0L26.44-1.90ZM30.58-3.12C30.58-2.62 30.65-2.16 30.79-1.76C30.93-1.35 31.13-1.01 31.37-0.74C31.62-0.46 31.92-0.25 32.26-0.10C32.60 0.04 32.98 0.11 33.39 0.11C33.81 0.11 34.19 0.05 34.52-0.09C34.85-0.23 35.12-0.40 35.32-0.61L35.32-3.24L33.28-3.24L33.28-2.58L34.60-2.58L34.60-0.95C34.47-0.84 34.31-0.75 34.11-0.68C33.91-0.61 33.70-0.58 33.48-0.58C33.14-0.58 32.84-0.64 32.59-0.76C32.33-0.88 32.11-1.05 31.94-1.28C31.76-1.50 31.63-1.77 31.54-2.08C31.45-2.39 31.40-2.75 31.40-3.14C31.40-3.53 31.45-3.88 31.55-4.19C31.65-4.50 31.79-4.77 31.96-4.98C32.14-5.20 32.36-5.37 32.61-5.49C32.86-5.61 33.15-5.67 33.47-5.67C33.78-5.67 34.05-5.61 34.25-5.50C34.46-5.39 34.64-5.25 34.80-5.08L35.25-5.59C35.06-5.78 34.83-5.96 34.54-6.12C34.25-6.28 33.89-6.36 33.46-6.36C33.04-6.36 32.65-6.29 32.31-6.14C31.96-5.99 31.65-5.77 31.40-5.49C31.14-5.21 30.94-4.87 30.80-4.48C30.65-4.08 30.58-3.62 30.58-3.12ZM36.82-6.25L36.82 0L37.61 0L37.61-6.25ZM39.32-6.25L39.32 0L40.08 0L40.08-3.27C40.08-3.60 40.06-3.92 40.04-4.25C40.02-4.58 40.00-4.90 39.97-5.22L40.01-5.22L40.68-3.93L42.95 0L43.77 0L43.77-6.25L43.02-6.25L43.02-3.02C43.02-2.69 43.03-2.35 43.05-2.01C43.07-1.67 43.09-1.35 43.11-1.03L43.07-1.03L42.40-2.32L40.14-6.25ZM45.12-3.12C45.12-2.62 45.19-2.16 45.33-1.76C45.47-1.35 45.66-1.01 45.91-0.74C46.16-0.46 46.45-0.25 46.80-0.10C47.14 0.04 47.52 0.11 47.93 0.11C48.35 0.11 48.73 0.05 49.06-0.09C49.39-0.23 49.66-0.40 49.86-0.61L49.86-3.24L47.82-3.24L47.82-2.58L49.14-2.58L49.14-0.95C49.01-0.84 48.85-0.75 48.65-0.68C48.45-0.61 48.24-0.58 48.02-0.58C47.68-0.58 47.38-0.64 47.13-0.76C46.87-0.88 46.65-1.05 46.48-1.28C46.30-1.50 46.17-1.77 46.08-2.08C45.99-2.39 45.94-2.75 45.94-3.14C45.94-3.53 45.99-3.88 46.09-4.19C46.19-4.50 46.32-4.77 46.50-4.98C46.68-5.20 46.90-5.37 47.15-5.49C47.40-5.61 47.69-5.67 48.01-5.67C48.32-5.67 48.59-5.61 48.79-5.50C49.00-5.39 49.18-5.25 49.34-5.08L49.79-5.59C49.60-5.78 49.37-5.96 49.08-6.12C48.79-6.28 48.43-6.36 48.00-6.36C47.58-6.36 47.19-6.29 46.84-6.14C46.50-5.99 46.19-5.77 45.94-5.49C45.68-5.21 45.48-4.87 45.34-4.48C45.19-4.08 45.12-3.62 45.12-3.12ZM55.94-2.54L54.06-2.54L54.36-3.49C54.47-3.84 54.58-4.19 54.68-4.54C54.78-4.88 54.88-5.24 54.98-5.60L55.01-5.60C55.12-5.24 55.22-4.88 55.32-4.54C55.42-4.19 55.53-3.84 55.64-3.49ZM56.14-1.90L56.73 0L57.58 0L55.46-6.25L54.57-6.25L52.45 0L53.26 0L53.86-1.90ZM58.46-6.25L58.46 0L59.25 0L59.25-6.25ZM64.18-5.58L64.18 0L64.98 0L64.98-5.58L66.87-5.58L66.87-6.25L62.30-6.25L62.30-5.58ZM70.07 0.11C70.46 0.11 70.82 0.04 71.15-0.11C71.47-0.27 71.76-0.48 72.00-0.77C72.23-1.05 72.42-1.39 72.55-1.79C72.68-2.20 72.74-2.65 72.74-3.15C72.74-3.65 72.68-4.09 72.55-4.49C72.42-4.89 72.23-5.22 72.00-5.50C71.76-5.77 71.47-5.99 71.15-6.14C70.82-6.29 70.46-6.36 70.07-6.36C69.67-6.36 69.31-6.29 68.99-6.14C68.66-6.00 68.38-5.78 68.14-5.51C67.91-5.23 67.73-4.90 67.60-4.50C67.47-4.10 67.40-3.65 67.40-3.15C67.40-2.65 67.47-2.20 67.60-1.79C67.73-1.39 67.91-1.05 68.14-0.77C68.38-0.48 68.66-0.27 68.99-0.11C69.31 0.04 69.67 0.11 70.07 0.11ZM70.07-0.58C69.79-0.58 69.54-0.64 69.31-0.76C69.08-0.88 68.89-1.06 68.73-1.28C68.57-1.51 68.44-1.78 68.35-2.09C68.26-2.40 68.22-2.76 68.22-3.15C68.22-3.54 68.26-3.89 68.35-4.20C68.44-4.51 68.57-4.77 68.73-4.99C68.89-5.20 69.08-5.37 69.31-5.49C69.54-5.61 69.79-5.67 70.07-5.67C70.35-5.67 70.60-5.61 70.82-5.49C71.05-5.37 71.24-5.20 71.40-4.99C71.57-4.77 71.69-4.51 71.78-4.20C71.87-3.89 71.91-3.54 71.91-3.15C71.91-2.76 71.87-2.40 71.78-2.09C71.69-1.78 71.57-1.51 71.40-1.28C71.24-1.06 71.05-0.88 70.82-0.76C70.60-0.64 70.35-0.58 70.07-0.58ZM78.66-2.54L76.79-2.54L77.08-3.49C77.20-3.84 77.31-4.19 77.41-4.54C77.51-4.88 77.61-5.24 77.70-5.60L77.74-5.60C77.84-5.24 77.94-4.88 78.05-4.54C78.15-4.19 78.26-3.84 78.37-3.49ZM78.86-1.90L79.46 0L80.30 0L78.19-6.25L77.29-6.25L75.18 0L75.99 0L76.59-1.90ZM81.19-6.25L81.19 0L81.94 0L81.94-3.27C81.94-3.60 81.93-3.92 81.91-4.25C81.88-4.58 81.86-4.90 81.84-5.22L81.87-5.22L82.55-3.93L84.82 0L85.63 0L85.63-6.25L84.88-6.25L84.88-3.02C84.88-2.69 84.89-2.35 84.92-2.01C84.94-1.67 84.96-1.35 84.98-1.03L84.94-1.03L84.26-2.32L82.01-6.25ZM90.00-2.54L88.13-2.54L88.42-3.49C88.54-3.84 88.65-4.19 88.75-4.54C88.85-4.88 88.95-5.24 89.04-5.60L89.08-5.60C89.18-5.24 89.28-4.88 89.39-4.54C89.49-4.19 89.60-3.84 89.71-3.49ZM90.20-1.90L90.80 0L91.64 0L89.53-6.25L88.63-6.25L86.52 0L87.33 0L87.93-1.90ZM92.53-6.25L92.53 0L96.05 0L96.05-0.68L93.32-0.68L93.32-6.25ZM97.44-2.42L97.44 0L98.24 0L98.24-2.42L100.12-6.25L99.29-6.25L98.49-4.48C98.39-4.26 98.29-4.03 98.18-3.81C98.08-3.59 97.97-3.36 97.86-3.12L97.82-3.12C97.71-3.36 97.61-3.59 97.52-3.81C97.42-4.03 97.32-4.26 97.22-4.48L96.41-6.25L95.57-6.25ZM100.29-0.48L100.29 0L104.59 0L104.59-0.68L101.27-0.68L104.56-5.78L104.56-6.25L100.58-6.25L100.58-5.58L103.57-5.58ZM105.85-6.25L105.85 0L109.54 0L109.54-0.68L106.64-0.68L106.64-2.94L109.01-2.94L109.01-3.62L106.64-3.62L106.64-5.58L109.45-5.58L109.45-6.25ZM112.79-6.25L112.79 0L113.58 0L113.58-2.80L115.96-2.80L115.96-3.47L113.58-3.47L113.58-5.58L116.39-5.58L116.39-6.25ZM117.49-6.25L117.49 0L118.28 0L118.28-6.25ZM120.00-6.25L120.00 0L120.75 0L120.75-3.27C120.75-3.60 120.74-3.92 120.72-4.25C120.69-4.58 120.67-4.90 120.64-5.22L120.68-5.22L121.36-3.93L123.62 0L124.44 0L124.44-6.25L123.69-6.25L123.69-3.02C123.69-2.69 123.70-2.35 123.72-2.01C123.75-1.67 123.77-1.35 123.79-1.03L123.75-1.03L123.07-2.32L120.82-6.25ZM128.81-2.54L126.94-2.54L127.23-3.49C127.35-3.84 127.46-4.19 127.56-4.54C127.66-4.88 127.76-5.24 127.85-5.60L127.89-5.60C127.99-5.24 128.09-4.88 128.19-4.54C128.30-4.19 128.40-3.84 128.52-3.49ZM129.01-1.90L129.60 0L130.45 0L128.34-6.25L127.44-6.25L125.33 0L126.14 0L126.74-1.90ZM131.34-6.25L131.34 0L132.09 0L132.09-3.27C132.09-3.60 132.08-3.92 132.06-4.25C132.03-4.58 132.01-4.90 131.98-5.22L132.02-5.22L132.70-3.93L134.96 0L135.78 0L135.78-6.25L135.03-6.25L135.03-3.02C135.03-2.69 135.04-2.35 135.06-2.01C135.09-1.67 135.11-1.35 135.13-1.03L135.09-1.03L134.41-2.32L132.16-6.25ZM137.14-3.12C137.14-2.62 137.20-2.16 137.34-1.76C137.48-1.35 137.67-1.01 137.91-0.74C138.16-0.46 138.44-0.25 138.78-0.10C139.11 0.04 139.47 0.11 139.87 0.11C140.27 0.11 140.62 0.03 140.93-0.12C141.25-0.28 141.52-0.50 141.77-0.79L141.32-1.28C141.12-1.05 140.91-0.88 140.68-0.76C140.46-0.64 140.19-0.58 139.89-0.58C139.59-0.58 139.32-0.64 139.08-0.76C138.84-0.88 138.64-1.05 138.48-1.28C138.31-1.50 138.18-1.77 138.09-2.08C138.00-2.39 137.95-2.75 137.95-3.14C137.95-3.53 138.00-3.88 138.10-4.19C138.19-4.50 138.33-4.77 138.50-4.98C138.67-5.20 138.87-5.37 139.12-5.49C139.36-5.61 139.63-5.67 139.92-5.67C140.19-5.67 140.42-5.61 140.62-5.51C140.82-5.40 141.01-5.26 141.17-5.08L141.62-5.59C141.44-5.79 141.20-5.97 140.92-6.13C140.63-6.28 140.30-6.36 139.92-6.36C139.52-6.36 139.15-6.29 138.81-6.14C138.47-5.99 138.17-5.77 137.93-5.49C137.68-5.21 137.48-4.87 137.34-4.48C137.20-4.08 137.14-3.62 137.14-3.12ZM142.93-6.25L142.93 0L143.72 0L143.72-6.25ZM148.09-2.54L146.22-2.54L146.51-3.49C146.63-3.84 146.74-4.19 146.84-4.54C146.94-4.88 147.04-5.24 147.13-5.60L147.17-5.60C147.27-5.24 147.37-4.88 147.48-4.54C147.58-4.19 147.68-3.84 147.80-3.49ZM148.29-1.90L148.88 0L149.73 0L147.62-6.25L146.72-6.25L144.61 0L145.42 0L146.02-1.90ZM150.62-6.25L150.62 0L154.14 0L154.14-0.68L151.41-0.68L151.41-6.25ZM157.17-6.25L157.17 0L157.92 0L157.92-3.27C157.92-3.60 157.91-3.92 157.89-4.25C157.86-4.58 157.84-4.90 157.82-5.22L157.85-5.22L158.53-3.93L160.80 0L161.61 0L161.61-6.25L160.86-6.25L160.86-3.02C160.86-2.69 160.87-2.35 160.90-2.01C160.92-1.67 160.94-1.35 160.96-1.03L160.92-1.03L160.24-2.32L157.99-6.25ZM163.33-6.25L163.33 0L167.02 0L167.02-0.68L164.12-0.68L164.12-2.94L166.49-2.94L166.49-3.62L164.12-3.62L164.12-5.58L166.93-5.58L166.93-6.25ZM167.71-6.25L169.03 0L169.97 0L170.90-3.76C170.95-4.00 171.00-4.24 171.05-4.47C171.11-4.70 171.16-4.94 171.21-5.18L171.25-5.18C171.30-4.94 171.35-4.70 171.40-4.47C171.45-4.24 171.50-4.00 171.55-3.76L172.50 0L173.45 0L174.74-6.25L173.98-6.25L173.33-2.85C173.26-2.51 173.20-2.18 173.14-1.84C173.09-1.51 173.03-1.17 172.97-0.83L172.94-0.83C172.86-1.17 172.78-1.51 172.71-1.85C172.63-2.18 172.55-2.52 172.48-2.85L171.61-6.25L170.89-6.25L170.02-2.85C169.95-2.51 169.88-2.18 169.80-1.84C169.73-1.51 169.65-1.17 169.58-0.83L169.55-0.83C169.49-1.17 169.43-1.51 169.36-1.84C169.30-2.17 169.24-2.50 169.18-2.85L168.53-6.25ZM175.79-1.36L175.32-0.81C175.59-0.52 175.91-0.30 176.29-0.13C176.66 0.03 177.07 0.11 177.51 0.11C177.84 0.11 178.13 0.07 178.39-0.02C178.65-0.12 178.87-0.24 179.06-0.40C179.24-0.57 179.38-0.76 179.48-0.97C179.58-1.19 179.63-1.42 179.63-1.67C179.63-1.89 179.60-2.10 179.53-2.27C179.46-2.45 179.37-2.60 179.26-2.73C179.14-2.86 179.01-2.97 178.85-3.07C178.69-3.17 178.52-3.26 178.34-3.33L177.46-3.71C177.33-3.76 177.21-3.82 177.09-3.88C176.97-3.94 176.85-4.01 176.75-4.09C176.65-4.17 176.57-4.26 176.51-4.37C176.45-4.47 176.42-4.60 176.42-4.75C176.42-5.04 176.53-5.26 176.74-5.42C176.95-5.58 177.23-5.67 177.58-5.67C177.87-5.67 178.14-5.61 178.37-5.51C178.60-5.40 178.81-5.26 179.00-5.07L179.43-5.59C179.21-5.82 178.94-6.00 178.62-6.15C178.30-6.29 177.96-6.36 177.58-6.36C177.30-6.36 177.03-6.32 176.80-6.24C176.56-6.15 176.35-6.04 176.18-5.89C176.00-5.74 175.87-5.56 175.77-5.36C175.67-5.16 175.62-4.94 175.62-4.70C175.62-4.48 175.66-4.27 175.73-4.10C175.81-3.92 175.91-3.77 176.03-3.65C176.15-3.52 176.29-3.41 176.44-3.32C176.59-3.23 176.74-3.16 176.89-3.09L177.78-2.70C177.93-2.63 178.06-2.57 178.19-2.50C178.32-2.44 178.43-2.37 178.52-2.29C178.61-2.21 178.68-2.12 178.74-2.00C178.79-1.89 178.82-1.76 178.82-1.60C178.82-1.29 178.71-1.05 178.48-0.86C178.25-0.67 177.93-0.58 177.51-0.58C177.19-0.58 176.88-0.65 176.58-0.80C176.28-0.94 176.01-1.13 175.79-1.36Z" transform="translate(-0.8569161597460987, 6.360222163448821)"></path></g></g></g></g></g></svg>