<?xml version="1.0" encoding="us-ascii" standalone="no"?><svg xmlns="http://www.w3.org/2000/svg" xmlns:xlink="http://www.w3.org/1999/xlink" contentStyleType="text/css" height="397px" preserveAspectRatio="none" style="width:1546px;height:397px;background:#003153;" version="1.1" viewBox="0 0 1546 397" width="1546px" zoomAndPan="magnify"><defs/><g><rect fill="#003153" height="397" style="stroke:none;stroke-width:1.0;" width="1546" x="0" y="0"/><text fill="#D9D3D0" font-family="Verdana" font-size="22" font-weight="bold" lengthAdjust="spacing" textLength="221" x="658" y="35.4209">Package Diagram</text><!--cluster app--><g id="cluster_app"><path d="M13.5,57.6094 L44.5,57.6094 A3.75,3.75 0 0 1 47,60.1094 L54,79.9063 L1536.5,79.9063 A2.5,2.5 0 0 1 1539,82.4063 L1539,388.1094 A2.5,2.5 0 0 1 1536.5,390.6094 L13.5,390.6094 A2.5,2.5 0 0 1 11,388.1094 L11,60.1094 A2.5,2.5 0 0 1 13.5,57.6094 " fill="#003153" style="stroke:#D9D3D0;stroke-width:1.0;"/><line style="stroke:#D9D3D0;stroke-width:1.0;" x1="11" x2="54" y1="79.9063" y2="79.9063"/><text fill="#D9D3D0" font-family="Verdana" font-size="14" font-weight="bold" lengthAdjust="spacing" textLength="30" x="15" y="72.6045">app</text></g><!--cluster core--><g id="cluster_core"><path d="M837.5,100.6094 L873.5,100.6094 A3.75,3.75 0 0 1 876,103.1094 L883,122.9063 L1512.5,122.9063 A2.5,2.5 0 0 1 1515,125.4063 L1515,364.1094 A2.5,2.5 0 0 1 1512.5,366.6094 L837.5,366.6094 A2.5,2.5 0 0 1 835,364.1094 L835,103.1094 A2.5,2.5 0 0 1 837.5,100.6094 " fill="#003153" style="stroke:#D9D3D0;stroke-width:1.0;"/><line style="stroke:#D9D3D0;stroke-width:1.0;" x1="835" x2="883" y1="122.9063" y2="122.9063"/><text fill="#D9D3D0" font-family="Verdana" font-size="14" font-weight="bold" lengthAdjust="spacing" textLength="35" x="839" y="115.6045">core</text></g><!--cluster repo--><g id="cluster_repo"><path d="M1258.5,143.6094 L1295.5,143.6094 A3.75,3.75 0 0 1 1298,146.1094 L1305,165.9063 L1488.5,165.9063 A2.5,2.5 0 0 1 1491,168.4063 L1491,340.1094 A2.5,2.5 0 0 1 1488.5,342.6094 L1258.5,342.6094 A2.5,2.5 0 0 1 1256,340.1094 L1256,146.1094 A2.5,2.5 0 0 1 1258.5,143.6094 " fill="#003153" style="stroke:#D9D3D0;stroke-width:1.0;"/><line style="stroke:#D9D3D0;stroke-width:1.0;" x1="1256" x2="1305" y1="165.9063" y2="165.9063"/><text fill="#D9D3D0" font-family="Verdana" font-size="14" font-weight="bold" lengthAdjust="spacing" textLength="36" x="1260" y="158.6045">repo</text></g><!--cluster services--><g id="cluster_services"><path d="M1007.5,143.6094 L1074.5,143.6094 A3.75,3.75 0 0 1 1077,146.1094 L1084,165.9063 L1229.5,165.9063 A2.5,2.5 0 0 1 1232,168.4063 L1232,340.1094 A2.5,2.5 0 0 1 1229.5,342.6094 L1007.5,342.6094 A2.5,2.5 0 0 1 1005,340.1094 L1005,146.1094 A2.5,2.5 0 0 1 1007.5,143.6094 " fill="#003153" style="stroke:#D9D3D0;stroke-width:1.0;"/><line style="stroke:#D9D3D0;stroke-width:1.0;" x1="1005" x2="1084" y1="165.9063" y2="165.9063"/><text fill="#D9D3D0" font-family="Verdana" font-size="14" font-weight="bold" lengthAdjust="spacing" textLength="66" x="1009" y="158.6045">services</text></g><!--cluster trading--><g id="cluster_trading"><path d="M861.5,143.6094 L922.5,143.6094 A3.75,3.75 0 0 1 925,146.1094 L932,165.9063 L978.5,165.9063 A2.5,2.5 0 0 1 981,168.4063 L981,236.1094 A2.5,2.5 0 0 1 978.5,238.6094 L861.5,238.6094 A2.5,2.5 0 0 1 859,236.1094 L859,146.1094 A2.5,2.5 0 0 1 861.5,143.6094 " fill="#003153" style="stroke:#D9D3D0;stroke-width:1.0;"/><line style="stroke:#D9D3D0;stroke-width:1.0;" x1="859" x2="932" y1="165.9063" y2="165.9063"/><text fill="#D9D3D0" font-family="Verdana" font-size="14" font-weight="bold" lengthAdjust="spacing" textLength="60" x="863" y="158.6045">trading</text></g><!--cluster models--><g id="cluster_models"><path d="M578.5,143.6094 L637.5,143.6094 A3.75,3.75 0 0 1 640,146.1094 L647,165.9063 L808.5,165.9063 A2.5,2.5 0 0 1 811,168.4063 L811,340.1094 A2.5,2.5 0 0 1 808.5,342.6094 L578.5,342.6094 A2.5,2.5 0 0 1 576,340.1094 L576,146.1094 A2.5,2.5 0 0 1 578.5,143.6094 " fill="#003153" style="stroke:#D9D3D0;stroke-width:1.0;"/><line style="stroke:#D9D3D0;stroke-width:1.0;" x1="576" x2="647" y1="165.9063" y2="165.9063"/><text fill="#D9D3D0" font-family="Verdana" font-size="14" font-weight="bold" lengthAdjust="spacing" textLength="58" x="580" y="158.6045">models</text></g><!--cluster routers--><g id="cluster_routers"><path d="M220.5,143.6094 L281.5,143.6094 A3.75,3.75 0 0 1 284,146.1094 L291,165.9063 L549.5,165.9063 A2.5,2.5 0 0 1 552,168.4063 L552,340.1094 A2.5,2.5 0 0 1 549.5,342.6094 L220.5,342.6094 A2.5,2.5 0 0 1 218,340.1094 L218,146.1094 A2.5,2.5 0 0 1 220.5,143.6094 " fill="#003153" style="stroke:#D9D3D0;stroke-width:1.0;"/><line style="stroke:#D9D3D0;stroke-width:1.0;" x1="218" x2="291" y1="165.9063" y2="165.9063"/><text fill="#D9D3D0" font-family="Verdana" font-size="14" font-weight="bold" lengthAdjust="spacing" textLength="60" x="222" y="158.6045">routers</text></g><!--class config--><g id="elem_config"><rect codeLine="4" fill="#003153" height="44" id="config" rx="2.5" ry="2.5" style="stroke:#D9D3D0;stroke-width:1.0;" width="73" x="125.5" y="178.6094"/><ellipse cx="138.5" cy="192.6094" fill="#003153" rx="9" ry="9" style="stroke:#D9D3D0;stroke-width:1.0;"/><path d="M140.8438,188.2813 C139.9063,187.8438 139.3125,187.7031 138.4375,187.7031 C135.8125,187.7031 133.8125,189.7813 133.8125,192.5 L133.8125,193.625 C133.8125,196.2031 135.9219,198.0938 138.8125,198.0938 C140.0313,198.0938 141.1875,197.7969 141.9375,197.25 C142.5156,196.8438 142.8438,196.3906 142.8438,196 C142.8438,195.5469 142.4531,195.1563 141.9844,195.1563 C141.7656,195.1563 141.5625,195.2344 141.375,195.4219 C140.9219,195.9063 140.9219,195.9063 140.7344,196 C140.3125,196.2656 139.625,196.3906 138.8594,196.3906 C136.8125,196.3906 135.5156,195.2969 135.5156,193.5938 L135.5156,192.5 C135.5156,190.7188 136.7656,189.4063 138.5,189.4063 C139.0781,189.4063 139.6875,189.5625 140.1563,189.8125 C140.6406,190.0938 140.8125,190.3125 140.9063,190.7188 C140.9688,191.125 141,191.25 141.1406,191.375 C141.2813,191.5156 141.5156,191.625 141.7344,191.625 C142,191.625 142.2656,191.4844 142.4375,191.2656 C142.5469,191.1094 142.5781,190.9219 142.5781,190.5 L142.5781,189.0781 C142.5781,188.6406 142.5625,188.5156 142.4688,188.3594 C142.3125,188.0938 142.0313,187.9531 141.7344,187.9531 C141.4375,187.9531 141.2344,188.0469 141.0156,188.3594 L140.8438,188.2813 Z " fill="#D9D3D0"/><text fill="#D9D3D0" font-family="Verdana" font-size="14" lengthAdjust="spacing" textLength="45" x="150.5" y="197.4561">config</text><line style="stroke:#D9D3D0;stroke-width:1.0;" x1="126.5" x2="197.5" y1="206.6094" y2="206.6094"/><line style="stroke:#D9D3D0;stroke-width:1.0;" x1="126.5" x2="197.5" y1="214.6094" y2="214.6094"/></g><!--class main--><g id="elem_main"><rect codeLine="5" fill="#003153" height="44" id="main" rx="2.5" ry="2.5" style="stroke:#D9D3D0;stroke-width:1.0;" width="63" x="27.5" y="178.6094"/><ellipse cx="40.5" cy="192.6094" fill="#003153" rx="9" ry="9" style="stroke:#D9D3D0;stroke-width:1.0;"/><path d="M42.8438,188.2813 C41.9063,187.8438 41.3125,187.7031 40.4375,187.7031 C37.8125,187.7031 35.8125,189.7813 35.8125,192.5 L35.8125,193.625 C35.8125,196.2031 37.9219,198.0938 40.8125,198.0938 C42.0313,198.0938 43.1875,197.7969 43.9375,197.25 C44.5156,196.8438 44.8438,196.3906 44.8438,196 C44.8438,195.5469 44.4531,195.1563 43.9844,195.1563 C43.7656,195.1563 43.5625,195.2344 43.375,195.4219 C42.9219,195.9063 42.9219,195.9063 42.7344,196 C42.3125,196.2656 41.625,196.3906 40.8594,196.3906 C38.8125,196.3906 37.5156,195.2969 37.5156,193.5938 L37.5156,192.5 C37.5156,190.7188 38.7656,189.4063 40.5,189.4063 C41.0781,189.4063 41.6875,189.5625 42.1563,189.8125 C42.6406,190.0938 42.8125,190.3125 42.9063,190.7188 C42.9688,191.125 43,191.25 43.1406,191.375 C43.2813,191.5156 43.5156,191.625 43.7344,191.625 C44,191.625 44.2656,191.4844 44.4375,191.2656 C44.5469,191.1094 44.5781,190.9219 44.5781,190.5 L44.5781,189.0781 C44.5781,188.6406 44.5625,188.5156 44.4688,188.3594 C44.3125,188.0938 44.0313,187.9531 43.7344,187.9531 C43.4375,187.9531 43.2344,188.0469 43.0156,188.3594 L42.8438,188.2813 Z " fill="#D9D3D0"/><text fill="#D9D3D0" font-family="Verdana" font-size="14" lengthAdjust="spacing" textLength="35" x="52.5" y="197.4561">main</text><line style="stroke:#D9D3D0;stroke-width:1.0;" x1="28.5" x2="89.5" y1="206.6094" y2="206.6094"/><line style="stroke:#D9D3D0;stroke-width:1.0;" x1="28.5" x2="89.5" y1="214.6094" y2="214.6094"/></g><!--class article--><g id="elem_article"><rect codeLine="8" fill="#003153" height="44" id="article" rx="2.5" ry="2.5" style="stroke:#D9D3D0;stroke-width:1.0;" width="74" x="1272" y="178.6094"/><ellipse cx="1285" cy="192.6094" fill="#003153" rx="9" ry="9" style="stroke:#D9D3D0;stroke-width:1.0;"/><path d="M1287.3438,188.2813 C1286.4063,187.8438 1285.8125,187.7031 1284.9375,187.7031 C1282.3125,187.7031 1280.3125,189.7813 1280.3125,192.5 L1280.3125,193.625 C1280.3125,196.2031 1282.4219,198.0938 1285.3125,198.0938 C1286.5313,198.0938 1287.6875,197.7969 1288.4375,197.25 C1289.0156,196.8438 1289.3438,196.3906 1289.3438,196 C1289.3438,195.5469 1288.9531,195.1563 1288.4844,195.1563 C1288.2656,195.1563 1288.0625,195.2344 1287.875,195.4219 C1287.4219,195.9063 1287.4219,195.9063 1287.2344,196 C1286.8125,196.2656 1286.125,196.3906 1285.3594,196.3906 C1283.3125,196.3906 1282.0156,195.2969 1282.0156,193.5938 L1282.0156,192.5 C1282.0156,190.7188 1283.2656,189.4063 1285,189.4063 C1285.5781,189.4063 1286.1875,189.5625 1286.6563,189.8125 C1287.1406,190.0938 1287.3125,190.3125 1287.4063,190.7188 C1287.4688,191.125 1287.5,191.25 1287.6406,191.375 C1287.7813,191.5156 1288.0156,191.625 1288.2344,191.625 C1288.5,191.625 1288.7656,191.4844 1288.9375,191.2656 C1289.0469,191.1094 1289.0781,190.9219 1289.0781,190.5 L1289.0781,189.0781 C1289.0781,188.6406 1289.0625,188.5156 1288.9688,188.3594 C1288.8125,188.0938 1288.5313,187.9531 1288.2344,187.9531 C1287.9375,187.9531 1287.7344,188.0469 1287.5156,188.3594 L1287.3438,188.2813 Z " fill="#D9D3D0"/><text fill="#D9D3D0" font-family="Verdana" font-size="14" lengthAdjust="spacing" textLength="46" x="1297" y="197.4561">article</text><line style="stroke:#D9D3D0;stroke-width:1.0;" x1="1273" x2="1345" y1="206.6094" y2="206.6094"/><line style="stroke:#D9D3D0;stroke-width:1.0;" x1="1273" x2="1345" y1="214.6094" y2="214.6094"/></g><!--class company--><g id="elem_company"><rect codeLine="9" fill="#003153" height="44" id="company" rx="2.5" ry="2.5" style="stroke:#D9D3D0;stroke-width:1.0;" width="94" x="1381" y="178.6094"/><ellipse cx="1394" cy="192.6094" fill="#003153" rx="9" ry="9" style="stroke:#D9D3D0;stroke-width:1.0;"/><path d="M1396.3438,188.2813 C1395.4063,187.8438 1394.8125,187.7031 1393.9375,187.7031 C1391.3125,187.7031 1389.3125,189.7813 1389.3125,192.5 L1389.3125,193.625 C1389.3125,196.2031 1391.4219,198.0938 1394.3125,198.0938 C1395.5313,198.0938 1396.6875,197.7969 1397.4375,197.25 C1398.0156,196.8438 1398.3438,196.3906 1398.3438,196 C1398.3438,195.5469 1397.9531,195.1563 1397.4844,195.1563 C1397.2656,195.1563 1397.0625,195.2344 1396.875,195.4219 C1396.4219,195.9063 1396.4219,195.9063 1396.2344,196 C1395.8125,196.2656 1395.125,196.3906 1394.3594,196.3906 C1392.3125,196.3906 1391.0156,195.2969 1391.0156,193.5938 L1391.0156,192.5 C1391.0156,190.7188 1392.2656,189.4063 1394,189.4063 C1394.5781,189.4063 1395.1875,189.5625 1395.6563,189.8125 C1396.1406,190.0938 1396.3125,190.3125 1396.4063,190.7188 C1396.4688,191.125 1396.5,191.25 1396.6406,191.375 C1396.7813,191.5156 1397.0156,191.625 1397.2344,191.625 C1397.5,191.625 1397.7656,191.4844 1397.9375,191.2656 C1398.0469,191.1094 1398.0781,190.9219 1398.0781,190.5 L1398.0781,189.0781 C1398.0781,188.6406 1398.0625,188.5156 1397.9688,188.3594 C1397.8125,188.0938 1397.5313,187.9531 1397.2344,187.9531 C1396.9375,187.9531 1396.7344,188.0469 1396.5156,188.3594 L1396.3438,188.2813 Z " fill="#D9D3D0"/><text fill="#D9D3D0" font-family="Verdana" font-size="14" lengthAdjust="spacing" textLength="66" x="1406" y="197.4561">company</text><line style="stroke:#D9D3D0;stroke-width:1.0;" x1="1382" x2="1474" y1="206.6094" y2="206.6094"/><line style="stroke:#D9D3D0;stroke-width:1.0;" x1="1382" x2="1474" y1="214.6094" y2="214.6094"/></g><!--class news--><g id="elem_news"><rect codeLine="10" fill="#003153" height="44" id="news" rx="2.5" ry="2.5" style="stroke:#D9D3D0;stroke-width:1.0;" width="64" x="1277" y="282.6094"/><ellipse cx="1290" cy="296.6094" fill="#003153" rx="9" ry="9" style="stroke:#D9D3D0;stroke-width:1.0;"/><path d="M1292.3438,292.2813 C1291.4063,291.8438 1290.8125,291.7031 1289.9375,291.7031 C1287.3125,291.7031 1285.3125,293.7813 1285.3125,296.5 L1285.3125,297.625 C1285.3125,300.2031 1287.4219,302.0938 1290.3125,302.0938 C1291.5313,302.0938 1292.6875,301.7969 1293.4375,301.25 C1294.0156,300.8438 1294.3438,300.3906 1294.3438,300 C1294.3438,299.5469 1293.9531,299.1563 1293.4844,299.1563 C1293.2656,299.1563 1293.0625,299.2344 1292.875,299.4219 C1292.4219,299.9063 1292.4219,299.9063 1292.2344,300 C1291.8125,300.2656 1291.125,300.3906 1290.3594,300.3906 C1288.3125,300.3906 1287.0156,299.2969 1287.0156,297.5938 L1287.0156,296.5 C1287.0156,294.7188 1288.2656,293.4063 1290,293.4063 C1290.5781,293.4063 1291.1875,293.5625 1291.6563,293.8125 C1292.1406,294.0938 1292.3125,294.3125 1292.4063,294.7188 C1292.4688,295.125 1292.5,295.25 1292.6406,295.375 C1292.7813,295.5156 1293.0156,295.625 1293.2344,295.625 C1293.5,295.625 1293.7656,295.4844 1293.9375,295.2656 C1294.0469,295.1094 1294.0781,294.9219 1294.0781,294.5 L1294.0781,293.0781 C1294.0781,292.6406 1294.0625,292.5156 1293.9688,292.3594 C1293.8125,292.0938 1293.5313,291.9531 1293.2344,291.9531 C1292.9375,291.9531 1292.7344,292.0469 1292.5156,292.3594 L1292.3438,292.2813 Z " fill="#D9D3D0"/><text fill="#D9D3D0" font-family="Verdana" font-size="14" lengthAdjust="spacing" textLength="36" x="1302" y="301.4561">news</text><line style="stroke:#D9D3D0;stroke-width:1.0;" x1="1278" x2="1340" y1="310.6094" y2="310.6094"/><line style="stroke:#D9D3D0;stroke-width:1.0;" x1="1278" x2="1340" y1="318.6094" y2="318.6094"/></g><!--class user--><g id="elem_user"><rect codeLine="11" fill="#003153" height="44" id="user" rx="2.5" ry="2.5" style="stroke:#D9D3D0;stroke-width:1.0;" width="58" x="1376" y="282.6094"/><ellipse cx="1389" cy="296.6094" fill="#003153" rx="9" ry="9" style="stroke:#D9D3D0;stroke-width:1.0;"/><path d="M1391.3438,292.2813 C1390.4063,291.8438 1389.8125,291.7031 1388.9375,291.7031 C1386.3125,291.7031 1384.3125,293.7813 1384.3125,296.5 L1384.3125,297.625 C1384.3125,300.2031 1386.4219,302.0938 1389.3125,302.0938 C1390.5313,302.0938 1391.6875,301.7969 1392.4375,301.25 C1393.0156,300.8438 1393.3438,300.3906 1393.3438,300 C1393.3438,299.5469 1392.9531,299.1563 1392.4844,299.1563 C1392.2656,299.1563 1392.0625,299.2344 1391.875,299.4219 C1391.4219,299.9063 1391.4219,299.9063 1391.2344,300 C1390.8125,300.2656 1390.125,300.3906 1389.3594,300.3906 C1387.3125,300.3906 1386.0156,299.2969 1386.0156,297.5938 L1386.0156,296.5 C1386.0156,294.7188 1387.2656,293.4063 1389,293.4063 C1389.5781,293.4063 1390.1875,293.5625 1390.6563,293.8125 C1391.1406,294.0938 1391.3125,294.3125 1391.4063,294.7188 C1391.4688,295.125 1391.5,295.25 1391.6406,295.375 C1391.7813,295.5156 1392.0156,295.625 1392.2344,295.625 C1392.5,295.625 1392.7656,295.4844 1392.9375,295.2656 C1393.0469,295.1094 1393.0781,294.9219 1393.0781,294.5 L1393.0781,293.0781 C1393.0781,292.6406 1393.0625,292.5156 1392.9688,292.3594 C1392.8125,292.0938 1392.5313,291.9531 1392.2344,291.9531 C1391.9375,291.9531 1391.7344,292.0469 1391.5156,292.3594 L1391.3438,292.2813 Z " fill="#D9D3D0"/><text fill="#D9D3D0" font-family="Verdana" font-size="14" lengthAdjust="spacing" textLength="30" x="1401" y="301.4561">user</text><line style="stroke:#D9D3D0;stroke-width:1.0;" x1="1377" x2="1433" y1="310.6094" y2="310.6094"/><line style="stroke:#D9D3D0;stroke-width:1.0;" x1="1377" x2="1433" y1="318.6094" y2="318.6094"/></g><!--class crypto--><g id="elem_crypto"><rect codeLine="15" fill="#003153" height="44" id="crypto" rx="2.5" ry="2.5" style="stroke:#D9D3D0;stroke-width:1.0;" width="76" x="1021" y="178.6094"/><ellipse cx="1034" cy="192.6094" fill="#003153" rx="9" ry="9" style="stroke:#D9D3D0;stroke-width:1.0;"/><path d="M1036.3438,188.2813 C1035.4063,187.8438 1034.8125,187.7031 1033.9375,187.7031 C1031.3125,187.7031 1029.3125,189.7813 1029.3125,192.5 L1029.3125,193.625 C1029.3125,196.2031 1031.4219,198.0938 1034.3125,198.0938 C1035.5313,198.0938 1036.6875,197.7969 1037.4375,197.25 C1038.0156,196.8438 1038.3438,196.3906 1038.3438,196 C1038.3438,195.5469 1037.9531,195.1563 1037.4844,195.1563 C1037.2656,195.1563 1037.0625,195.2344 1036.875,195.4219 C1036.4219,195.9063 1036.4219,195.9063 1036.2344,196 C1035.8125,196.2656 1035.125,196.3906 1034.3594,196.3906 C1032.3125,196.3906 1031.0156,195.2969 1031.0156,193.5938 L1031.0156,192.5 C1031.0156,190.7188 1032.2656,189.4063 1034,189.4063 C1034.5781,189.4063 1035.1875,189.5625 1035.6563,189.8125 C1036.1406,190.0938 1036.3125,190.3125 1036.4063,190.7188 C1036.4688,191.125 1036.5,191.25 1036.6406,191.375 C1036.7813,191.5156 1037.0156,191.625 1037.2344,191.625 C1037.5,191.625 1037.7656,191.4844 1037.9375,191.2656 C1038.0469,191.1094 1038.0781,190.9219 1038.0781,190.5 L1038.0781,189.0781 C1038.0781,188.6406 1038.0625,188.5156 1037.9688,188.3594 C1037.8125,188.0938 1037.5313,187.9531 1037.2344,187.9531 C1036.9375,187.9531 1036.7344,188.0469 1036.5156,188.3594 L1036.3438,188.2813 Z " fill="#D9D3D0"/><text fill="#D9D3D0" font-family="Verdana" font-size="14" lengthAdjust="spacing" textLength="48" x="1046" y="197.4561">crypto</text><line style="stroke:#D9D3D0;stroke-width:1.0;" x1="1022" x2="1096" y1="206.6094" y2="206.6094"/><line style="stroke:#D9D3D0;stroke-width:1.0;" x1="1022" x2="1096" y1="214.6094" y2="214.6094"/></g><!--class metrics--><g id="elem_metrics"><rect codeLine="16" fill="#003153" height="44" id="metrics" rx="2.5" ry="2.5" style="stroke:#D9D3D0;stroke-width:1.0;" width="83" x="1132.5" y="178.6094"/><ellipse cx="1145.5" cy="192.6094" fill="#003153" rx="9" ry="9" style="stroke:#D9D3D0;stroke-width:1.0;"/><path d="M1147.8438,188.2813 C1146.9063,187.8438 1146.3125,187.7031 1145.4375,187.7031 C1142.8125,187.7031 1140.8125,189.7813 1140.8125,192.5 L1140.8125,193.625 C1140.8125,196.2031 1142.9219,198.0938 1145.8125,198.0938 C1147.0313,198.0938 1148.1875,197.7969 1148.9375,197.25 C1149.5156,196.8438 1149.8438,196.3906 1149.8438,196 C1149.8438,195.5469 1149.4531,195.1563 1148.9844,195.1563 C1148.7656,195.1563 1148.5625,195.2344 1148.375,195.4219 C1147.9219,195.9063 1147.9219,195.9063 1147.7344,196 C1147.3125,196.2656 1146.625,196.3906 1145.8594,196.3906 C1143.8125,196.3906 1142.5156,195.2969 1142.5156,193.5938 L1142.5156,192.5 C1142.5156,190.7188 1143.7656,189.4063 1145.5,189.4063 C1146.0781,189.4063 1146.6875,189.5625 1147.1563,189.8125 C1147.6406,190.0938 1147.8125,190.3125 1147.9063,190.7188 C1147.9688,191.125 1148,191.25 1148.1406,191.375 C1148.2813,191.5156 1148.5156,191.625 1148.7344,191.625 C1149,191.625 1149.2656,191.4844 1149.4375,191.2656 C1149.5469,191.1094 1149.5781,190.9219 1149.5781,190.5 L1149.5781,189.0781 C1149.5781,188.6406 1149.5625,188.5156 1149.4688,188.3594 C1149.3125,188.0938 1149.0313,187.9531 1148.7344,187.9531 C1148.4375,187.9531 1148.2344,188.0469 1148.0156,188.3594 L1147.8438,188.2813 Z " fill="#D9D3D0"/><text fill="#D9D3D0" font-family="Verdana" font-size="14" lengthAdjust="spacing" textLength="55" x="1157.5" y="197.4561">metrics</text><line style="stroke:#D9D3D0;stroke-width:1.0;" x1="1133.5" x2="1214.5" y1="206.6094" y2="206.6094"/><line style="stroke:#D9D3D0;stroke-width:1.0;" x1="1133.5" x2="1214.5" y1="214.6094" y2="214.6094"/></g><!--class news--><g id="elem_news"><rect codeLine="17" fill="#003153" height="44" id="news" rx="2.5" ry="2.5" style="stroke:#D9D3D0;stroke-width:1.0;" width="64" x="1027" y="282.6094"/><ellipse cx="1040" cy="296.6094" fill="#003153" rx="9" ry="9" style="stroke:#D9D3D0;stroke-width:1.0;"/><path d="M1042.3438,292.2813 C1041.4063,291.8438 1040.8125,291.7031 1039.9375,291.7031 C1037.3125,291.7031 1035.3125,293.7813 1035.3125,296.5 L1035.3125,297.625 C1035.3125,300.2031 1037.4219,302.0938 1040.3125,302.0938 C1041.5313,302.0938 1042.6875,301.7969 1043.4375,301.25 C1044.0156,300.8438 1044.3438,300.3906 1044.3438,300 C1044.3438,299.5469 1043.9531,299.1563 1043.4844,299.1563 C1043.2656,299.1563 1043.0625,299.2344 1042.875,299.4219 C1042.4219,299.9063 1042.4219,299.9063 1042.2344,300 C1041.8125,300.2656 1041.125,300.3906 1040.3594,300.3906 C1038.3125,300.3906 1037.0156,299.2969 1037.0156,297.5938 L1037.0156,296.5 C1037.0156,294.7188 1038.2656,293.4063 1040,293.4063 C1040.5781,293.4063 1041.1875,293.5625 1041.6563,293.8125 C1042.1406,294.0938 1042.3125,294.3125 1042.4063,294.7188 C1042.4688,295.125 1042.5,295.25 1042.6406,295.375 C1042.7813,295.5156 1043.0156,295.625 1043.2344,295.625 C1043.5,295.625 1043.7656,295.4844 1043.9375,295.2656 C1044.0469,295.1094 1044.0781,294.9219 1044.0781,294.5 L1044.0781,293.0781 C1044.0781,292.6406 1044.0625,292.5156 1043.9688,292.3594 C1043.8125,292.0938 1043.5313,291.9531 1043.2344,291.9531 C1042.9375,291.9531 1042.7344,292.0469 1042.5156,292.3594 L1042.3438,292.2813 Z " fill="#D9D3D0"/><text fill="#D9D3D0" font-family="Verdana" font-size="14" lengthAdjust="spacing" textLength="36" x="1052" y="301.4561">news</text><line style="stroke:#D9D3D0;stroke-width:1.0;" x1="1028" x2="1090" y1="310.6094" y2="310.6094"/><line style="stroke:#D9D3D0;stroke-width:1.0;" x1="1028" x2="1090" y1="318.6094" y2="318.6094"/></g><!--class user--><g id="elem_user"><rect codeLine="18" fill="#003153" height="44" id="user" rx="2.5" ry="2.5" style="stroke:#D9D3D0;stroke-width:1.0;" width="58" x="1126" y="282.6094"/><ellipse cx="1139" cy="296.6094" fill="#003153" rx="9" ry="9" style="stroke:#D9D3D0;stroke-width:1.0;"/><path d="M1141.3438,292.2813 C1140.4063,291.8438 1139.8125,291.7031 1138.9375,291.7031 C1136.3125,291.7031 1134.3125,293.7813 1134.3125,296.5 L1134.3125,297.625 C1134.3125,300.2031 1136.4219,302.0938 1139.3125,302.0938 C1140.5313,302.0938 1141.6875,301.7969 1142.4375,301.25 C1143.0156,300.8438 1143.3438,300.3906 1143.3438,300 C1143.3438,299.5469 1142.9531,299.1563 1142.4844,299.1563 C1142.2656,299.1563 1142.0625,299.2344 1141.875,299.4219 C1141.4219,299.9063 1141.4219,299.9063 1141.2344,300 C1140.8125,300.2656 1140.125,300.3906 1139.3594,300.3906 C1137.3125,300.3906 1136.0156,299.2969 1136.0156,297.5938 L1136.0156,296.5 C1136.0156,294.7188 1137.2656,293.4063 1139,293.4063 C1139.5781,293.4063 1140.1875,293.5625 1140.6563,293.8125 C1141.1406,294.0938 1141.3125,294.3125 1141.4063,294.7188 C1141.4688,295.125 1141.5,295.25 1141.6406,295.375 C1141.7813,295.5156 1142.0156,295.625 1142.2344,295.625 C1142.5,295.625 1142.7656,295.4844 1142.9375,295.2656 C1143.0469,295.1094 1143.0781,294.9219 1143.0781,294.5 L1143.0781,293.0781 C1143.0781,292.6406 1143.0625,292.5156 1142.9688,292.3594 C1142.8125,292.0938 1142.5313,291.9531 1142.2344,291.9531 C1141.9375,291.9531 1141.7344,292.0469 1141.5156,292.3594 L1141.3438,292.2813 Z " fill="#D9D3D0"/><text fill="#D9D3D0" font-family="Verdana" font-size="14" lengthAdjust="spacing" textLength="30" x="1151" y="301.4561">user</text><line style="stroke:#D9D3D0;stroke-width:1.0;" x1="1127" x2="1183" y1="310.6094" y2="310.6094"/><line style="stroke:#D9D3D0;stroke-width:1.0;" x1="1127" x2="1183" y1="318.6094" y2="318.6094"/></g><!--class strategy--><g id="elem_strategy"><rect codeLine="21" fill="#003153" height="44" id="strategy" rx="2.5" ry="2.5" style="stroke:#D9D3D0;stroke-width:1.0;" width="89" x="875.5" y="178.6094"/><ellipse cx="888.5" cy="192.6094" fill="#003153" rx="9" ry="9" style="stroke:#D9D3D0;stroke-width:1.0;"/><path d="M890.8438,188.2813 C889.9063,187.8438 889.3125,187.7031 888.4375,187.7031 C885.8125,187.7031 883.8125,189.7813 883.8125,192.5 L883.8125,193.625 C883.8125,196.2031 885.9219,198.0938 888.8125,198.0938 C890.0313,198.0938 891.1875,197.7969 891.9375,197.25 C892.5156,196.8438 892.8438,196.3906 892.8438,196 C892.8438,195.5469 892.4531,195.1563 891.9844,195.1563 C891.7656,195.1563 891.5625,195.2344 891.375,195.4219 C890.9219,195.9063 890.9219,195.9063 890.7344,196 C890.3125,196.2656 889.625,196.3906 888.8594,196.3906 C886.8125,196.3906 885.5156,195.2969 885.5156,193.5938 L885.5156,192.5 C885.5156,190.7188 886.7656,189.4063 888.5,189.4063 C889.0781,189.4063 889.6875,189.5625 890.1563,189.8125 C890.6406,190.0938 890.8125,190.3125 890.9063,190.7188 C890.9688,191.125 891,191.25 891.1406,191.375 C891.2813,191.5156 891.5156,191.625 891.7344,191.625 C892,191.625 892.2656,191.4844 892.4375,191.2656 C892.5469,191.1094 892.5781,190.9219 892.5781,190.5 L892.5781,189.0781 C892.5781,188.6406 892.5625,188.5156 892.4688,188.3594 C892.3125,188.0938 892.0313,187.9531 891.7344,187.9531 C891.4375,187.9531 891.2344,188.0469 891.0156,188.3594 L890.8438,188.2813 Z " fill="#D9D3D0"/><text fill="#D9D3D0" font-family="Verdana" font-size="14" lengthAdjust="spacing" textLength="61" x="900.5" y="197.4561">strategy</text><line style="stroke:#D9D3D0;stroke-width:1.0;" x1="876.5" x2="963.5" y1="206.6094" y2="206.6094"/><line style="stroke:#D9D3D0;stroke-width:1.0;" x1="876.5" x2="963.5" y1="214.6094" y2="214.6094"/></g><!--class article--><g id="elem_article"><rect codeLine="26" fill="#003153" height="44" id="article" rx="2.5" ry="2.5" style="stroke:#D9D3D0;stroke-width:1.0;" width="74" x="592" y="178.6094"/><ellipse cx="605" cy="192.6094" fill="#003153" rx="9" ry="9" style="stroke:#D9D3D0;stroke-width:1.0;"/><path d="M607.3438,188.2813 C606.4063,187.8438 605.8125,187.7031 604.9375,187.7031 C602.3125,187.7031 600.3125,189.7813 600.3125,192.5 L600.3125,193.625 C600.3125,196.2031 602.4219,198.0938 605.3125,198.0938 C606.5313,198.0938 607.6875,197.7969 608.4375,197.25 C609.0156,196.8438 609.3438,196.3906 609.3438,196 C609.3438,195.5469 608.9531,195.1563 608.4844,195.1563 C608.2656,195.1563 608.0625,195.2344 607.875,195.4219 C607.4219,195.9063 607.4219,195.9063 607.2344,196 C606.8125,196.2656 606.125,196.3906 605.3594,196.3906 C603.3125,196.3906 602.0156,195.2969 602.0156,193.5938 L602.0156,192.5 C602.0156,190.7188 603.2656,189.4063 605,189.4063 C605.5781,189.4063 606.1875,189.5625 606.6563,189.8125 C607.1406,190.0938 607.3125,190.3125 607.4063,190.7188 C607.4688,191.125 607.5,191.25 607.6406,191.375 C607.7813,191.5156 608.0156,191.625 608.2344,191.625 C608.5,191.625 608.7656,191.4844 608.9375,191.2656 C609.0469,191.1094 609.0781,190.9219 609.0781,190.5 L609.0781,189.0781 C609.0781,188.6406 609.0625,188.5156 608.9688,188.3594 C608.8125,188.0938 608.5313,187.9531 608.2344,187.9531 C607.9375,187.9531 607.7344,188.0469 607.5156,188.3594 L607.3438,188.2813 Z " fill="#D9D3D0"/><text fill="#D9D3D0" font-family="Verdana" font-size="14" lengthAdjust="spacing" textLength="46" x="617" y="197.4561">article</text><line style="stroke:#D9D3D0;stroke-width:1.0;" x1="593" x2="665" y1="206.6094" y2="206.6094"/><line style="stroke:#D9D3D0;stroke-width:1.0;" x1="593" x2="665" y1="214.6094" y2="214.6094"/></g><!--class company--><g id="elem_company"><rect codeLine="27" fill="#003153" height="44" id="company" rx="2.5" ry="2.5" style="stroke:#D9D3D0;stroke-width:1.0;" width="94" x="701" y="178.6094"/><ellipse cx="714" cy="192.6094" fill="#003153" rx="9" ry="9" style="stroke:#D9D3D0;stroke-width:1.0;"/><path d="M716.3438,188.2813 C715.4063,187.8438 714.8125,187.7031 713.9375,187.7031 C711.3125,187.7031 709.3125,189.7813 709.3125,192.5 L709.3125,193.625 C709.3125,196.2031 711.4219,198.0938 714.3125,198.0938 C715.5313,198.0938 716.6875,197.7969 717.4375,197.25 C718.0156,196.8438 718.3438,196.3906 718.3438,196 C718.3438,195.5469 717.9531,195.1563 717.4844,195.1563 C717.2656,195.1563 717.0625,195.2344 716.875,195.4219 C716.4219,195.9063 716.4219,195.9063 716.2344,196 C715.8125,196.2656 715.125,196.3906 714.3594,196.3906 C712.3125,196.3906 711.0156,195.2969 711.0156,193.5938 L711.0156,192.5 C711.0156,190.7188 712.2656,189.4063 714,189.4063 C714.5781,189.4063 715.1875,189.5625 715.6563,189.8125 C716.1406,190.0938 716.3125,190.3125 716.4063,190.7188 C716.4688,191.125 716.5,191.25 716.6406,191.375 C716.7813,191.5156 717.0156,191.625 717.2344,191.625 C717.5,191.625 717.7656,191.4844 717.9375,191.2656 C718.0469,191.1094 718.0781,190.9219 718.0781,190.5 L718.0781,189.0781 C718.0781,188.6406 718.0625,188.5156 717.9688,188.3594 C717.8125,188.0938 717.5313,187.9531 717.2344,187.9531 C716.9375,187.9531 716.7344,188.0469 716.5156,188.3594 L716.3438,188.2813 Z " fill="#D9D3D0"/><text fill="#D9D3D0" font-family="Verdana" font-size="14" lengthAdjust="spacing" textLength="66" x="726" y="197.4561">company</text><line style="stroke:#D9D3D0;stroke-width:1.0;" x1="702" x2="794" y1="206.6094" y2="206.6094"/><line style="stroke:#D9D3D0;stroke-width:1.0;" x1="702" x2="794" y1="214.6094" y2="214.6094"/></g><!--class news--><g id="elem_news"><rect codeLine="28" fill="#003153" height="44" id="news" rx="2.5" ry="2.5" style="stroke:#D9D3D0;stroke-width:1.0;" width="64" x="597" y="282.6094"/><ellipse cx="610" cy="296.6094" fill="#003153" rx="9" ry="9" style="stroke:#D9D3D0;stroke-width:1.0;"/><path d="M612.3438,292.2813 C611.4063,291.8438 610.8125,291.7031 609.9375,291.7031 C607.3125,291.7031 605.3125,293.7813 605.3125,296.5 L605.3125,297.625 C605.3125,300.2031 607.4219,302.0938 610.3125,302.0938 C611.5313,302.0938 612.6875,301.7969 613.4375,301.25 C614.0156,300.8438 614.3438,300.3906 614.3438,300 C614.3438,299.5469 613.9531,299.1563 613.4844,299.1563 C613.2656,299.1563 613.0625,299.2344 612.875,299.4219 C612.4219,299.9063 612.4219,299.9063 612.2344,300 C611.8125,300.2656 611.125,300.3906 610.3594,300.3906 C608.3125,300.3906 607.0156,299.2969 607.0156,297.5938 L607.0156,296.5 C607.0156,294.7188 608.2656,293.4063 610,293.4063 C610.5781,293.4063 611.1875,293.5625 611.6563,293.8125 C612.1406,294.0938 612.3125,294.3125 612.4063,294.7188 C612.4688,295.125 612.5,295.25 612.6406,295.375 C612.7813,295.5156 613.0156,295.625 613.2344,295.625 C613.5,295.625 613.7656,295.4844 613.9375,295.2656 C614.0469,295.1094 614.0781,294.9219 614.0781,294.5 L614.0781,293.0781 C614.0781,292.6406 614.0625,292.5156 613.9688,292.3594 C613.8125,292.0938 613.5313,291.9531 613.2344,291.9531 C612.9375,291.9531 612.7344,292.0469 612.5156,292.3594 L612.3438,292.2813 Z " fill="#D9D3D0"/><text fill="#D9D3D0" font-family="Verdana" font-size="14" lengthAdjust="spacing" textLength="36" x="622" y="301.4561">news</text><line style="stroke:#D9D3D0;stroke-width:1.0;" x1="598" x2="660" y1="310.6094" y2="310.6094"/><line style="stroke:#D9D3D0;stroke-width:1.0;" x1="598" x2="660" y1="318.6094" y2="318.6094"/></g><!--class users--><g id="elem_users"><rect codeLine="29" fill="#003153" height="44" id="users" rx="2.5" ry="2.5" style="stroke:#D9D3D0;stroke-width:1.0;" width="65" x="696.5" y="282.6094"/><ellipse cx="709.5" cy="296.6094" fill="#003153" rx="9" ry="9" style="stroke:#D9D3D0;stroke-width:1.0;"/><path d="M711.8438,292.2813 C710.9063,291.8438 710.3125,291.7031 709.4375,291.7031 C706.8125,291.7031 704.8125,293.7813 704.8125,296.5 L704.8125,297.625 C704.8125,300.2031 706.9219,302.0938 709.8125,302.0938 C711.0313,302.0938 712.1875,301.7969 712.9375,301.25 C713.5156,300.8438 713.8438,300.3906 713.8438,300 C713.8438,299.5469 713.4531,299.1563 712.9844,299.1563 C712.7656,299.1563 712.5625,299.2344 712.375,299.4219 C711.9219,299.9063 711.9219,299.9063 711.7344,300 C711.3125,300.2656 710.625,300.3906 709.8594,300.3906 C707.8125,300.3906 706.5156,299.2969 706.5156,297.5938 L706.5156,296.5 C706.5156,294.7188 707.7656,293.4063 709.5,293.4063 C710.0781,293.4063 710.6875,293.5625 711.1563,293.8125 C711.6406,294.0938 711.8125,294.3125 711.9063,294.7188 C711.9688,295.125 712,295.25 712.1406,295.375 C712.2813,295.5156 712.5156,295.625 712.7344,295.625 C713,295.625 713.2656,295.4844 713.4375,295.2656 C713.5469,295.1094 713.5781,294.9219 713.5781,294.5 L713.5781,293.0781 C713.5781,292.6406 713.5625,292.5156 713.4688,292.3594 C713.3125,292.0938 713.0313,291.9531 712.7344,291.9531 C712.4375,291.9531 712.2344,292.0469 712.0156,292.3594 L711.8438,292.2813 Z " fill="#D9D3D0"/><text fill="#D9D3D0" font-family="Verdana" font-size="14" lengthAdjust="spacing" textLength="37" x="721.5" y="301.4561">users</text><line style="stroke:#D9D3D0;stroke-width:1.0;" x1="697.5" x2="760.5" y1="310.6094" y2="310.6094"/><line style="stroke:#D9D3D0;stroke-width:1.0;" x1="697.5" x2="760.5" y1="318.6094" y2="318.6094"/></g><!--class article--><g id="elem_article"><rect codeLine="33" fill="#003153" height="44" id="article" rx="2.5" ry="2.5" style="stroke:#D9D3D0;stroke-width:1.0;" width="74" x="234" y="178.6094"/><ellipse cx="247" cy="192.6094" fill="#003153" rx="9" ry="9" style="stroke:#D9D3D0;stroke-width:1.0;"/><path d="M249.3438,188.2813 C248.4063,187.8438 247.8125,187.7031 246.9375,187.7031 C244.3125,187.7031 242.3125,189.7813 242.3125,192.5 L242.3125,193.625 C242.3125,196.2031 244.4219,198.0938 247.3125,198.0938 C248.5313,198.0938 249.6875,197.7969 250.4375,197.25 C251.0156,196.8438 251.3438,196.3906 251.3438,196 C251.3438,195.5469 250.9531,195.1563 250.4844,195.1563 C250.2656,195.1563 250.0625,195.2344 249.875,195.4219 C249.4219,195.9063 249.4219,195.9063 249.2344,196 C248.8125,196.2656 248.125,196.3906 247.3594,196.3906 C245.3125,196.3906 244.0156,195.2969 244.0156,193.5938 L244.0156,192.5 C244.0156,190.7188 245.2656,189.4063 247,189.4063 C247.5781,189.4063 248.1875,189.5625 248.6563,189.8125 C249.1406,190.0938 249.3125,190.3125 249.4063,190.7188 C249.4688,191.125 249.5,191.25 249.6406,191.375 C249.7813,191.5156 250.0156,191.625 250.2344,191.625 C250.5,191.625 250.7656,191.4844 250.9375,191.2656 C251.0469,191.1094 251.0781,190.9219 251.0781,190.5 L251.0781,189.0781 C251.0781,188.6406 251.0625,188.5156 250.9688,188.3594 C250.8125,188.0938 250.5313,187.9531 250.2344,187.9531 C249.9375,187.9531 249.7344,188.0469 249.5156,188.3594 L249.3438,188.2813 Z " fill="#D9D3D0"/><text fill="#D9D3D0" font-family="Verdana" font-size="14" lengthAdjust="spacing" textLength="46" x="259" y="197.4561">article</text><line style="stroke:#D9D3D0;stroke-width:1.0;" x1="235" x2="307" y1="206.6094" y2="206.6094"/><line style="stroke:#D9D3D0;stroke-width:1.0;" x1="235" x2="307" y1="214.6094" y2="214.6094"/></g><!--class company--><g id="elem_company"><rect codeLine="34" fill="#003153" height="44" id="company" rx="2.5" ry="2.5" style="stroke:#D9D3D0;stroke-width:1.0;" width="94" x="343" y="178.6094"/><ellipse cx="356" cy="192.6094" fill="#003153" rx="9" ry="9" style="stroke:#D9D3D0;stroke-width:1.0;"/><path d="M358.3438,188.2813 C357.4063,187.8438 356.8125,187.7031 355.9375,187.7031 C353.3125,187.7031 351.3125,189.7813 351.3125,192.5 L351.3125,193.625 C351.3125,196.2031 353.4219,198.0938 356.3125,198.0938 C357.5313,198.0938 358.6875,197.7969 359.4375,197.25 C360.0156,196.8438 360.3438,196.3906 360.3438,196 C360.3438,195.5469 359.9531,195.1563 359.4844,195.1563 C359.2656,195.1563 359.0625,195.2344 358.875,195.4219 C358.4219,195.9063 358.4219,195.9063 358.2344,196 C357.8125,196.2656 357.125,196.3906 356.3594,196.3906 C354.3125,196.3906 353.0156,195.2969 353.0156,193.5938 L353.0156,192.5 C353.0156,190.7188 354.2656,189.4063 356,189.4063 C356.5781,189.4063 357.1875,189.5625 357.6563,189.8125 C358.1406,190.0938 358.3125,190.3125 358.4063,190.7188 C358.4688,191.125 358.5,191.25 358.6406,191.375 C358.7813,191.5156 359.0156,191.625 359.2344,191.625 C359.5,191.625 359.7656,191.4844 359.9375,191.2656 C360.0469,191.1094 360.0781,190.9219 360.0781,190.5 L360.0781,189.0781 C360.0781,188.6406 360.0625,188.5156 359.9688,188.3594 C359.8125,188.0938 359.5313,187.9531 359.2344,187.9531 C358.9375,187.9531 358.7344,188.0469 358.5156,188.3594 L358.3438,188.2813 Z " fill="#D9D3D0"/><text fill="#D9D3D0" font-family="Verdana" font-size="14" lengthAdjust="spacing" textLength="66" x="368" y="197.4561">company</text><line style="stroke:#D9D3D0;stroke-width:1.0;" x1="344" x2="436" y1="206.6094" y2="206.6094"/><line style="stroke:#D9D3D0;stroke-width:1.0;" x1="344" x2="436" y1="214.6094" y2="214.6094"/></g><!--class news--><g id="elem_news"><rect codeLine="35" fill="#003153" height="44" id="news" rx="2.5" ry="2.5" style="stroke:#D9D3D0;stroke-width:1.0;" width="64" x="472" y="178.6094"/><ellipse cx="485" cy="192.6094" fill="#003153" rx="9" ry="9" style="stroke:#D9D3D0;stroke-width:1.0;"/><path d="M487.3438,188.2813 C486.4063,187.8438 485.8125,187.7031 484.9375,187.7031 C482.3125,187.7031 480.3125,189.7813 480.3125,192.5 L480.3125,193.625 C480.3125,196.2031 482.4219,198.0938 485.3125,198.0938 C486.5313,198.0938 487.6875,197.7969 488.4375,197.25 C489.0156,196.8438 489.3438,196.3906 489.3438,196 C489.3438,195.5469 488.9531,195.1563 488.4844,195.1563 C488.2656,195.1563 488.0625,195.2344 487.875,195.4219 C487.4219,195.9063 487.4219,195.9063 487.2344,196 C486.8125,196.2656 486.125,196.3906 485.3594,196.3906 C483.3125,196.3906 482.0156,195.2969 482.0156,193.5938 L482.0156,192.5 C482.0156,190.7188 483.2656,189.4063 485,189.4063 C485.5781,189.4063 486.1875,189.5625 486.6563,189.8125 C487.1406,190.0938 487.3125,190.3125 487.4063,190.7188 C487.4688,191.125 487.5,191.25 487.6406,191.375 C487.7813,191.5156 488.0156,191.625 488.2344,191.625 C488.5,191.625 488.7656,191.4844 488.9375,191.2656 C489.0469,191.1094 489.0781,190.9219 489.0781,190.5 L489.0781,189.0781 C489.0781,188.6406 489.0625,188.5156 488.9688,188.3594 C488.8125,188.0938 488.5313,187.9531 488.2344,187.9531 C487.9375,187.9531 487.7344,188.0469 487.5156,188.3594 L487.3438,188.2813 Z " fill="#D9D3D0"/><text fill="#D9D3D0" font-family="Verdana" font-size="14" lengthAdjust="spacing" textLength="36" x="497" y="197.4561">news</text><line style="stroke:#D9D3D0;stroke-width:1.0;" x1="473" x2="535" y1="206.6094" y2="206.6094"/><line style="stroke:#D9D3D0;stroke-width:1.0;" x1="473" x2="535" y1="214.6094" y2="214.6094"/></g><!--class strategy--><g id="elem_strategy"><rect codeLine="36" fill="#003153" height="44" id="strategy" rx="2.5" ry="2.5" style="stroke:#D9D3D0;stroke-width:1.0;" width="89" x="234.5" y="282.6094"/><ellipse cx="247.5" cy="296.6094" fill="#003153" rx="9" ry="9" style="stroke:#D9D3D0;stroke-width:1.0;"/><path d="M249.8438,292.2813 C248.9063,291.8438 248.3125,291.7031 247.4375,291.7031 C244.8125,291.7031 242.8125,293.7813 242.8125,296.5 L242.8125,297.625 C242.8125,300.2031 244.9219,302.0938 247.8125,302.0938 C249.0313,302.0938 250.1875,301.7969 250.9375,301.25 C251.5156,300.8438 251.8438,300.3906 251.8438,300 C251.8438,299.5469 251.4531,299.1563 250.9844,299.1563 C250.7656,299.1563 250.5625,299.2344 250.375,299.4219 C249.9219,299.9063 249.9219,299.9063 249.7344,300 C249.3125,300.2656 248.625,300.3906 247.8594,300.3906 C245.8125,300.3906 244.5156,299.2969 244.5156,297.5938 L244.5156,296.5 C244.5156,294.7188 245.7656,293.4063 247.5,293.4063 C248.0781,293.4063 248.6875,293.5625 249.1563,293.8125 C249.6406,294.0938 249.8125,294.3125 249.9063,294.7188 C249.9688,295.125 250,295.25 250.1406,295.375 C250.2813,295.5156 250.5156,295.625 250.7344,295.625 C251,295.625 251.2656,295.4844 251.4375,295.2656 C251.5469,295.1094 251.5781,294.9219 251.5781,294.5 L251.5781,293.0781 C251.5781,292.6406 251.5625,292.5156 251.4688,292.3594 C251.3125,292.0938 251.0313,291.9531 250.7344,291.9531 C250.4375,291.9531 250.2344,292.0469 250.0156,292.3594 L249.8438,292.2813 Z " fill="#D9D3D0"/><text fill="#D9D3D0" font-family="Verdana" font-size="14" lengthAdjust="spacing" textLength="61" x="259.5" y="301.4561">strategy</text><line style="stroke:#D9D3D0;stroke-width:1.0;" x1="235.5" x2="322.5" y1="310.6094" y2="310.6094"/><line style="stroke:#D9D3D0;stroke-width:1.0;" x1="235.5" x2="322.5" y1="318.6094" y2="318.6094"/></g><!--class users--><g id="elem_users"><rect codeLine="37" fill="#003153" height="44" id="users" rx="2.5" ry="2.5" style="stroke:#D9D3D0;stroke-width:1.0;" width="65" x="358.5" y="282.6094"/><ellipse cx="371.5" cy="296.6094" fill="#003153" rx="9" ry="9" style="stroke:#D9D3D0;stroke-width:1.0;"/><path d="M373.8438,292.2813 C372.9063,291.8438 372.3125,291.7031 371.4375,291.7031 C368.8125,291.7031 366.8125,293.7813 366.8125,296.5 L366.8125,297.625 C366.8125,300.2031 368.9219,302.0938 371.8125,302.0938 C373.0313,302.0938 374.1875,301.7969 374.9375,301.25 C375.5156,300.8438 375.8438,300.3906 375.8438,300 C375.8438,299.5469 375.4531,299.1563 374.9844,299.1563 C374.7656,299.1563 374.5625,299.2344 374.375,299.4219 C373.9219,299.9063 373.9219,299.9063 373.7344,300 C373.3125,300.2656 372.625,300.3906 371.8594,300.3906 C369.8125,300.3906 368.5156,299.2969 368.5156,297.5938 L368.5156,296.5 C368.5156,294.7188 369.7656,293.4063 371.5,293.4063 C372.0781,293.4063 372.6875,293.5625 373.1563,293.8125 C373.6406,294.0938 373.8125,294.3125 373.9063,294.7188 C373.9688,295.125 374,295.25 374.1406,295.375 C374.2813,295.5156 374.5156,295.625 374.7344,295.625 C375,295.625 375.2656,295.4844 375.4375,295.2656 C375.5469,295.1094 375.5781,294.9219 375.5781,294.5 L375.5781,293.0781 C375.5781,292.6406 375.5625,292.5156 375.4688,292.3594 C375.3125,292.0938 375.0313,291.9531 374.7344,291.9531 C374.4375,291.9531 374.2344,292.0469 374.0156,292.3594 L373.8438,292.2813 Z " fill="#D9D3D0"/><text fill="#D9D3D0" font-family="Verdana" font-size="14" lengthAdjust="spacing" textLength="37" x="383.5" y="301.4561">users</text><line style="stroke:#D9D3D0;stroke-width:1.0;" x1="359.5" x2="422.5" y1="310.6094" y2="310.6094"/><line style="stroke:#D9D3D0;stroke-width:1.0;" x1="359.5" x2="422.5" y1="318.6094" y2="318.6094"/></g><!--SRC=[fOzB3i8m34JtEKNmMJW0Lp3118lyPBkW2d5tMWcQme85B6SqVfunjaGUTXZE6Cbl6QDW1hUn4sNo-pHG4oxcsZC1s1hucmi9LJs4MeuSuIKpSe6U3LLe3Y-6KAkhQnJZa0WwBJSiuw8BNNKHWvA0kxjEcumB1z9r7ncRrTw7J3ZeT-32Cy43bxZ2wMGPnN6EhJ_dUg2a_opHzobI1vlD7uczv-UB-mC0]--></g></svg>