<?xml version="1.0" encoding="us-ascii" standalone="no"?><svg xmlns="http://www.w3.org/2000/svg" xmlns:xlink="http://www.w3.org/1999/xlink" contentStyleType="text/css" height="1192px" preserveAspectRatio="none" style="width:645px;height:1192px;background:#003153;" version="1.1" viewBox="0 0 645 1192" width="645px" zoomAndPan="magnify"><defs/><g><rect fill="#003153" height="1192" style="stroke:none;stroke-width:1.0;" width="645" x="0" y="0"/><text fill="#D9D3D0" font-family="Verdana" font-size="22" font-weight="bold" lengthAdjust="spacing" textLength="512" x="62" y="35.4209">Deployment Diagram for AINewsTracker</text><!--cluster GitHub--><g id="cluster_GitHub"><polygon fill="#003153" points="290,67.6094,300,57.6094,422,57.6094,422,149.6094,412,159.6094,290,159.6094,290,67.6094" style="stroke:#D9D3D0;stroke-width:1.0;"/><line style="stroke:#D9D3D0;stroke-width:1.0;" x1="412" x2="422" y1="67.6094" y2="57.6094"/><line style="stroke:#D9D3D0;stroke-width:1.0;" x1="290" x2="412" y1="67.6094" y2="67.6094"/><line style="stroke:#D9D3D0;stroke-width:1.0;" x1="412" x2="412" y1="67.6094" y2="159.6094"/><text fill="#D9D3D0" font-family="Verdana" font-size="14" font-weight="bold" lengthAdjust="spacing" textLength="56" x="324" y="83.6045">GitHub</text></g><!--cluster GHA--><g id="cluster_GHA"><polygon fill="#003153" points="245,218.6094,255,208.6094,526,208.6094,526,423.6094,516,433.6094,245,433.6094,245,218.6094" style="stroke:#D9D3D0;stroke-width:1.0;"/><line style="stroke:#D9D3D0;stroke-width:1.0;" x1="516" x2="526" y1="218.6094" y2="208.6094"/><line style="stroke:#D9D3D0;stroke-width:1.0;" x1="245" x2="516" y1="218.6094" y2="218.6094"/><line style="stroke:#D9D3D0;stroke-width:1.0;" x1="516" x2="516" y1="218.6094" y2="433.6094"/><text fill="#D9D3D0" font-family="Verdana" font-size="14" font-weight="bold" lengthAdjust="spacing" textLength="123" x="320" y="234.6045">GitHub Actions</text></g><!--cluster Docker Hub--><g id="cluster_Docker Hub"><polygon fill="#003153" points="450,1015.6094,460,1005.6094,628,1005.6094,628,1097.6094,618,1107.6094,450,1107.6094,450,1015.6094" style="stroke:#D9D3D0;stroke-width:1.0;"/><line style="stroke:#D9D3D0;stroke-width:1.0;" x1="618" x2="628" y1="1015.6094" y2="1005.6094"/><line style="stroke:#D9D3D0;stroke-width:1.0;" x1="450" x2="618" y1="1015.6094" y2="1015.6094"/><line style="stroke:#D9D3D0;stroke-width:1.0;" x1="618" x2="618" y1="1015.6094" y2="1107.6094"/><text fill="#D9D3D0" font-family="Verdana" font-size="14" font-weight="bold" lengthAdjust="spacing" textLength="91" x="489.5" y="1031.6045">Docker Hub</text></g><!--cluster Prod--><g id="cluster_Prod"><polygon fill="#003153" points="21,492.6094,31,482.6094,426,482.6094,426,1165.1094,416,1175.1094,21,1175.1094,21,492.6094" style="stroke:#D9D3D0;stroke-width:1.0;"/><line style="stroke:#D9D3D0;stroke-width:1.0;" x1="416" x2="426" y1="492.6094" y2="482.6094"/><line style="stroke:#D9D3D0;stroke-width:1.0;" x1="21" x2="416" y1="492.6094" y2="492.6094"/><line style="stroke:#D9D3D0;stroke-width:1.0;" x1="416" x2="416" y1="492.6094" y2="1175.1094"/><text fill="#D9D3D0" font-family="Verdana" font-size="14" font-weight="bold" lengthAdjust="spacing" textLength="145" x="147" y="508.6045">Production Server</text></g><!--cluster Docker--><g id="cluster_Docker"><rect fill="#003153" height="620.5" rx="2.5" ry="2.5" style="stroke:#D9D3D0;stroke-width:1.0;" width="357" x="45" y="530.6094"/><text fill="#D9D3D0" font-family="Verdana" font-size="14" font-weight="bold" lengthAdjust="spacing" textLength="55" x="196" y="545.6045">Docker</text></g><!--cluster Stack--><g id="cluster_Stack"><polygon fill="#003153" points="77,591.6094,87,581.6094,370,581.6094,370,1109.1094,360,1119.1094,77,1119.1094,77,591.6094" style="stroke:#D9D3D0;stroke-width:1.0;"/><line style="stroke:#D9D3D0;stroke-width:1.0;" x1="360" x2="370" y1="591.6094" y2="581.6094"/><line style="stroke:#D9D3D0;stroke-width:1.0;" x1="77" x2="360" y1="591.6094" y2="591.6094"/><line style="stroke:#D9D3D0;stroke-width:1.0;" x1="360" x2="360" y1="591.6094" y2="1119.1094"/><text fill="#D9D3D0" font-family="Verdana" font-size="14" font-weight="bold" lengthAdjust="spacing" textLength="46" x="196.5" y="607.6045">Stack</text></g><!--entity GitHubRelease--><g id="elem_GitHubRelease"><rect fill="#003153" height="46.2969" rx="2.5" ry="2.5" style="stroke:#D9D3D0;stroke-width:1.0;" width="96" x="308" y="97.6094"/><rect fill="#003153" height="10" style="stroke:#D9D3D0;stroke-width:1.0;" width="15" x="384" y="102.6094"/><rect fill="#003153" height="2" style="stroke:#D9D3D0;stroke-width:1.0;" width="4" x="382" y="104.6094"/><rect fill="#003153" height="2" style="stroke:#D9D3D0;stroke-width:1.0;" width="4" x="382" y="108.6094"/><text fill="#D9D3D0" font-family="Verdana" font-size="14" lengthAdjust="spacing" textLength="56" x="323" y="130.6045">Release</text></g><!--entity SetupBuild--><g id="elem_SetupBuild"><rect fill="#003153" height="46.2969" rx="2.5" ry="2.5" style="stroke:#D9D3D0;stroke-width:1.0;" width="137" x="287.5" y="248.6094"/><rect fill="#003153" height="10" style="stroke:#D9D3D0;stroke-width:1.0;" width="15" x="404.5" y="253.6094"/><rect fill="#003153" height="2" style="stroke:#D9D3D0;stroke-width:1.0;" width="4" x="402.5" y="255.6094"/><rect fill="#003153" height="2" style="stroke:#D9D3D0;stroke-width:1.0;" width="4" x="402.5" y="259.6094"/><text fill="#D9D3D0" font-family="Verdana" font-size="14" lengthAdjust="spacing" textLength="97" x="302.5" y="281.6045">Setup &amp; Build</text></g><!--entity DockerUpload--><g id="elem_DockerUpload"><rect fill="#003153" height="46.2969" rx="2.5" ry="2.5" style="stroke:#D9D3D0;stroke-width:1.0;" width="145" x="364.5" y="371.6094"/><rect fill="#003153" height="10" style="stroke:#D9D3D0;stroke-width:1.0;" width="15" x="489.5" y="376.6094"/><rect fill="#003153" height="2" style="stroke:#D9D3D0;stroke-width:1.0;" width="4" x="487.5" y="378.6094"/><rect fill="#003153" height="2" style="stroke:#D9D3D0;stroke-width:1.0;" width="4" x="487.5" y="382.6094"/><text fill="#D9D3D0" font-family="Verdana" font-size="14" lengthAdjust="spacing" textLength="105" x="379.5" y="404.6045">Upload Docker</text></g><!--entity SSH--><g id="elem_SSH"><rect fill="#003153" height="46.2969" rx="2.5" ry="2.5" style="stroke:#D9D3D0;stroke-width:1.0;" width="68" x="261" y="371.6094"/><rect fill="#003153" height="10" style="stroke:#D9D3D0;stroke-width:1.0;" width="15" x="309" y="376.6094"/><rect fill="#003153" height="2" style="stroke:#D9D3D0;stroke-width:1.0;" width="4" x="307" y="378.6094"/><rect fill="#003153" height="2" style="stroke:#D9D3D0;stroke-width:1.0;" width="4" x="307" y="382.6094"/><text fill="#D9D3D0" font-family="Verdana" font-size="14" lengthAdjust="spacing" textLength="28" x="276" y="404.6045">SSH</text></g><!--entity AINewsTracker--><g id="elem_AINewsTracker"><rect fill="#003153" height="46.2969" rx="2.5" ry="2.5" style="stroke:#D9D3D0;stroke-width:1.0;" width="146" x="466" y="1045.6094"/><rect fill="#003153" height="10" style="stroke:#D9D3D0;stroke-width:1.0;" width="15" x="592" y="1050.6094"/><rect fill="#003153" height="2" style="stroke:#D9D3D0;stroke-width:1.0;" width="4" x="590" y="1052.6094"/><rect fill="#003153" height="2" style="stroke:#D9D3D0;stroke-width:1.0;" width="4" x="590" y="1056.6094"/><text fill="#D9D3D0" font-family="Verdana" font-size="14" lengthAdjust="spacing" textLength="106" x="481" y="1078.6045">AINewsTracker</text></g><!--entity Redis--><g id="elem_Redis"><rect fill="#003153" height="52.5938" rx="2.5" ry="2.5" style="stroke:#D9D3D0;stroke-width:1.0;" width="96" x="109" y="1042.1094"/><text fill="#D9D3D0" font-family="Verdana" font-size="14" font-style="italic" lengthAdjust="spacing" textLength="76" x="119" y="1065.1045">&#171;Caching&#187;</text><text fill="#D9D3D0" font-family="Verdana" font-size="14" lengthAdjust="spacing" textLength="39" x="137.5" y="1081.4014">Redis</text></g><!--entity MongoDB--><g id="elem_MongoDB"><rect fill="#003153" height="52.5938" rx="2.5" ry="2.5" style="stroke:#D9D3D0;stroke-width:1.0;" width="106" x="240" y="1042.1094"/><text fill="#D9D3D0" font-family="Verdana" font-size="14" font-style="italic" lengthAdjust="spacing" textLength="86" x="250" y="1065.1045">&#171;Database&#187;</text><text fill="#D9D3D0" font-family="Verdana" font-size="14" lengthAdjust="spacing" textLength="69" x="258.5" y="1081.4014">MongoDB</text></g><!--entity Web--><g id="elem_Web"><rect fill="#003153" height="52.5938" rx="2.5" ry="2.5" style="stroke:#D9D3D0;stroke-width:1.0;" width="128" x="193" y="889.6094"/><text fill="#D9D3D0" font-family="Verdana" font-size="14" font-style="italic" lengthAdjust="spacing" textLength="108" x="203" y="912.6045">&#171;Microservice&#187;</text><text fill="#D9D3D0" font-family="Verdana" font-size="14" lengthAdjust="spacing" textLength="106" x="204" y="928.9014">AINewsTracker</text></g><!--entity Prometheus--><g id="elem_Prometheus"><rect fill="#003153" height="52.5938" rx="2.5" ry="2.5" style="stroke:#D9D3D0;stroke-width:1.0;" width="114" x="196" y="759.6094"/><text fill="#D9D3D0" font-family="Verdana" font-size="14" font-style="italic" lengthAdjust="spacing" textLength="94" x="206" y="782.6045">&#171;Monitoring&#187;</text><text fill="#D9D3D0" font-family="Verdana" font-size="14" lengthAdjust="spacing" textLength="87" x="209.5" y="798.9014">Prometheus</text></g><!--entity Grafana--><g id="elem_Grafana"><rect fill="#003153" height="52.5938" rx="2.5" ry="2.5" style="stroke:#D9D3D0;stroke-width:1.0;" width="128" x="184" y="629.6094"/><text fill="#D9D3D0" font-family="Verdana" font-size="14" font-style="italic" lengthAdjust="spacing" textLength="108" x="194" y="652.6045">&#171;Visualization&#187;</text><text fill="#D9D3D0" font-family="Verdana" font-size="14" lengthAdjust="spacing" textLength="56" x="220" y="668.9014">Grafana</text></g><!--link GitHubRelease to SetupBuild--><g id="link_GitHubRelease_SetupBuild"><path d="M356,143.9194 C356,170.3594 356,214.4344 356,243.0034 " fill="none" id="GitHubRelease-to-SetupBuild" style="stroke:#D9D3D0;stroke-width:1.0;"/><polygon fill="#D9D3D0" points="356,248.1504,360,239.1504,356,243.1504,352,239.1504,356,248.1504" style="stroke:#D9D3D0;stroke-width:1.0;"/><text fill="#D9D3D0" font-family="Verdana" font-size="13" lengthAdjust="spacing" textLength="45" x="357" y="188.6763">Trigger</text></g><!--link SetupBuild to DockerUpload--><g id="link_SetupBuild_DockerUpload"><path d="M370.857,294.8024 C384.558,315.2704 404.912,345.6754 419.418,367.3444 " fill="none" id="SetupBuild-to-DockerUpload" style="stroke:#D9D3D0;stroke-width:1.0;"/><polygon fill="#D9D3D0" points="422.238,371.5564,420.5547,361.8524,419.4563,367.4016,413.9071,366.3032,422.238,371.5564" style="stroke:#D9D3D0;stroke-width:1.0;"/><text fill="#D9D3D0" font-family="Verdana" font-size="13" lengthAdjust="spacing" textLength="93" x="403" y="337.6763">Build and Push</text></g><!--link DockerUpload to AINewsTracker--><g id="link_DockerUpload_AINewsTracker"><path d="M447.324,417.6144 C467.016,461.6654 508,564.2624 508,655.1094 C508,655.1094 508,655.1094 508,917.1094 C508,960.9884 520.798,1010.6124 529.948,1040.4844 " fill="none" id="DockerUpload-to-AINewsTracker" style="stroke:#D9D3D0;stroke-width:1.0;"/><polygon fill="#D9D3D0" points="531.496,1045.4654,532.6438,1035.6836,530.0116,1040.6908,525.0045,1038.0586,531.496,1045.4654" style="stroke:#D9D3D0;stroke-width:1.0;"/><text fill="#D9D3D0" font-family="Verdana" font-size="13" lengthAdjust="spacing" textLength="31" x="509" y="790.6763">Push</text></g><!--link SetupBuild to SSH--><g id="link_SetupBuild_SSH"><path d="M336.768,294.8044 C329.824,303.6404 322.379,314.1784 317,324.6094 C310.234,337.7304 305.047,353.3304 301.413,366.3754 " fill="none" id="SetupBuild-to-SSH" style="stroke:#D9D3D0;stroke-width:1.0;"/><polygon fill="#D9D3D0" points="300.048,371.4234,306.2592,363.78,301.3536,366.5968,298.5368,361.6912,300.048,371.4234" style="stroke:#D9D3D0;stroke-width:1.0;"/><text fill="#D9D3D0" font-family="Verdana" font-size="13" lengthAdjust="spacing" textLength="45" x="318" y="337.6763">Trigger</text></g><!--link SSH to Stack--><g id="link_SSH_Stack"><path d="M260.64,398.0054 C213.967,403.2954 131.898,420.2544 93,474.6094 C69.9989,506.7499 67.7015,550.9779 71.2996,587.6088 C72.1992,596.7665 73.4671,605.4494 74.8722,613.3499 C75.2235,615.325 75.5833,617.2512 75.9481,619.1237 C76.1305,620.06 76.3142,620.9828 76.4986,621.8917 C76.5908,622.3461 76.6832,622.797 76.7757,623.2443 C76.822,623.4679 76.8683,623.6907 76.9147,623.9125 " fill="none" id="SSH-to-Stack" style="stroke:#D9D3D0;stroke-width:1.0;"/><polygon fill="#D9D3D0" points="76.9147,623.9125,78.9902,614.2849,75.8924,619.0182,71.1591,615.9204,76.9147,623.9125" style="stroke:#D9D3D0;stroke-width:1.0;"/><text fill="#D9D3D0" font-family="Verdana" font-size="13" lengthAdjust="spacing" textLength="45" x="118" y="462.6763">Deploy</text></g><!--link Web to AINewsTracker--><g id="link_Web_AINewsTracker"><path d="M304.837,942.6394 C357.31,970.6434 440.94,1015.2764 492.767,1042.9354 " fill="none" id="Web-to-AINewsTracker" style="stroke:#D9D3D0;stroke-width:1.0;"/><polygon fill="#D9D3D0" points="497.371,1045.3924,491.3143,1037.626,492.9599,1043.0382,487.5477,1044.6839,497.371,1045.3924" style="stroke:#D9D3D0;stroke-width:1.0;"/><text fill="#D9D3D0" font-family="Verdana" font-size="13" lengthAdjust="spacing" textLength="22" x="391" y="985.6763">Pull</text></g><!--link Web to MongoDB--><g id="link_Web_MongoDB"><path d="M263.107,942.6394 C269.339,968.6934 279.014,1009.1394 285.659,1036.9204 " fill="none" id="Web-to-MongoDB" style="stroke:#D9D3D0;stroke-width:1.0;"/><polygon fill="#D9D3D0" points="286.863,1041.9534,288.6602,1032.2699,285.7001,1037.0905,280.8795,1034.1305,286.863,1041.9534" style="stroke:#D9D3D0;stroke-width:1.0;"/><text fill="#D9D3D0" font-family="Verdana" font-size="13" lengthAdjust="spacing" textLength="60" x="275" y="985.6763">Connects</text></g><!--link Web to Redis--><g id="link_Web_Redis"><path d="M227.274,942.7224 C218.106,951.5774 208.469,961.9644 201,972.6094 C186.949,992.6354 175.51,1017.8644 167.821,1037.2884 " fill="none" id="Web-to-Redis" style="stroke:#D9D3D0;stroke-width:1.0;"/><polygon fill="#D9D3D0" points="165.948,1042.0954,172.9433,1035.1624,167.7637,1037.4367,165.4894,1032.2572,165.948,1042.0954" style="stroke:#D9D3D0;stroke-width:1.0;"/><text fill="#D9D3D0" font-family="Verdana" font-size="13" lengthAdjust="spacing" textLength="60" x="202" y="985.6763">Connects</text></g><!--link Prometheus to Web--><g id="link_Prometheus_Web"><path d="M253.8,812.7044 C254.446,833.3724 255.357,862.5194 256.041,884.4354 " fill="none" id="Prometheus-to-Web" style="stroke:#D9D3D0;stroke-width:1.0;"/><polygon fill="#D9D3D0" points="256.202,889.5584,259.9197,880.4382,256.0463,884.5608,251.9236,880.6873,256.202,889.5584" style="stroke:#D9D3D0;stroke-width:1.0;"/><text fill="#D9D3D0" font-family="Verdana" font-size="13" lengthAdjust="spacing" textLength="54" x="257" y="855.6763">Monitors</text></g><!--link Grafana to Prometheus--><g id="link_Grafana_Prometheus"><path d="M249,682.7044 C249.807,703.3724 250.946,732.5194 251.802,754.4354 " fill="none" id="Grafana-to-Prometheus" style="stroke:#D9D3D0;stroke-width:1.0;"/><polygon fill="#D9D3D0" points="252.002,759.5584,255.6492,750.4097,251.8077,754.5622,247.6553,750.7206,252.002,759.5584" style="stroke:#D9D3D0;stroke-width:1.0;"/><text fill="#D9D3D0" font-family="Verdana" font-size="13" lengthAdjust="spacing" textLength="96" x="252" y="725.6763">Visualizes data</text></g><!--SRC=[TLFDRjim3BxhATWSTkiB14M0j0QQ7JeKTRiTYXuOctM4Af8XoHsweUzUYb8SUS3WY_pzKEH7E-fe21eQZViuaetGQ1my7k7LUTX-_q6_mwF7xesykeW7EXBipKIZrpOg5Twq7J6fHvRWG6tyu6gUkeXsCAIKTJt1wbR7tRHVmL_r_426CD0BO80C5qHzBjMmxQ9sDgn4kTicSqjn6k4RN4_Qz59247bLpqyy0_RGkDIjiFcOSNQtk-nfT-VBiWHExIqc5lKoWzbtxrq_IOVSWtydBtqcbCkKD4xLK-NiQYCpefGJutDMi7gWNlEuLrSts1sq7JQR91IqbjqvExZcEWaRZBZdxBAo4BLsqNnotEdEky0DwwwuVj6-Tl04H-95Jz89bzJH-RcPCrjxRZs-eiLa-Ad3X4R_mPHCzXIMeqkFMYmTBYytrGvX3OzU3mC7NO59Ks-ILPb0syFz50vgmIRvOcxMY-gValmPrFVncw2obtNv8nIdyv-2nina2PxX6sSjvn9cIhPN4-S4XK-wDPIOWofP2LKfrt3AbGBqlFGl]--></g></svg>