<?xml version="1.0" encoding="us-ascii" standalone="no"?><svg xmlns="http://www.w3.org/2000/svg" xmlns:xlink="http://www.w3.org/1999/xlink" contentStyleType="text/css" height="453px" preserveAspectRatio="none" style="width:472px;height:453px;background:#003153;" version="1.1" viewBox="0 0 472 453" width="472px" zoomAndPan="magnify"><defs/><g><rect fill="#003153" height="453" style="stroke:none;stroke-width:1.0;" width="472" x="0" y="0"/><text fill="#D9D3D0" font-family="Verdana" font-size="22" font-weight="bold" lengthAdjust="spacing" textLength="208" x="128" y="35.4209">Seeding Process</text><line style="stroke:#D9D3D0;stroke-width:1.0;" x1="101" x2="101" y1="128.9063" y2="371.8359"/><line style="stroke:#D9D3D0;stroke-width:1.0;" x1="288" x2="288" y1="128.9063" y2="371.8359"/><line style="stroke:#D9D3D0;stroke-width:1.0;" x1="373" x2="373" y1="128.9063" y2="371.8359"/><line style="stroke:#D9D3D0;stroke-width:1.0;" x1="437" x2="437" y1="128.9063" y2="371.8359"/><text fill="#D9D3D0" font-family="Verdana" font-size="14" lengthAdjust="spacing" textLength="51" x="73" y="125.6045">Seeder</text><ellipse cx="101.5" cy="60.6094" fill="#003153" rx="8" ry="8" style="stroke:#D9D3D0;stroke-width:1.0;"/><path d="M101.5,68.6094 L101.5,95.6094 M88.5,76.6094 L114.5,76.6094 M101.5,95.6094 L88.5,110.6094 M101.5,95.6094 L114.5,110.6094 " fill="none" style="stroke:#D9D3D0;stroke-width:1.0;"/><text fill="#D9D3D0" font-family="Verdana" font-size="14" lengthAdjust="spacing" textLength="51" x="73" y="383.8311">Seeder</text><ellipse cx="101.5" cy="396.1328" fill="#003153" rx="8" ry="8" style="stroke:#D9D3D0;stroke-width:1.0;"/><path d="M101.5,404.1328 L101.5,431.1328 M88.5,412.1328 L114.5,412.1328 M101.5,431.1328 L88.5,446.1328 M101.5,431.1328 L114.5,446.1328 " fill="none" style="stroke:#D9D3D0;stroke-width:1.0;"/><rect fill="#003153" height="30.2969" rx="2.5" ry="2.5" style="stroke:#D9D3D0;stroke-width:1.0;" width="57" x="260" y="97.6094"/><text fill="#D9D3D0" font-family="Verdana" font-size="14" lengthAdjust="spacing" textLength="43" x="267" y="117.6045">Client</text><rect fill="#003153" height="30.2969" rx="2.5" ry="2.5" style="stroke:#D9D3D0;stroke-width:1.0;" width="57" x="260" y="370.8359"/><text fill="#D9D3D0" font-family="Verdana" font-size="14" lengthAdjust="spacing" textLength="43" x="267" y="390.8311">Client</text><rect fill="#003153" height="30.2969" rx="2.5" ry="2.5" style="stroke:#D9D3D0;stroke-width:1.0;" width="52" x="347" y="97.6094"/><text fill="#D9D3D0" font-family="Verdana" font-size="14" lengthAdjust="spacing" textLength="38" x="354" y="117.6045">Repo</text><rect fill="#003153" height="30.2969" rx="2.5" ry="2.5" style="stroke:#D9D3D0;stroke-width:1.0;" width="52" x="347" y="370.8359"/><text fill="#D9D3D0" font-family="Verdana" font-size="14" lengthAdjust="spacing" textLength="38" x="354" y="390.8311">Repo</text><text fill="#D9D3D0" font-family="Verdana" font-size="14" lengthAdjust="spacing" textLength="29" x="419.5" y="125.6045">CSV</text><path d="M419,76.6094 C419,66.6094 437,66.6094 437,66.6094 C437,66.6094 455,66.6094 455,76.6094 L455,102.6094 C455,112.6094 437,112.6094 437,112.6094 C437,112.6094 419,112.6094 419,102.6094 L419,76.6094 " fill="#003153" style="stroke:#D9D3D0;stroke-width:1.5;"/><path d="M419,76.6094 C419,86.6094 437,86.6094 437,86.6094 C437,86.6094 455,86.6094 455,76.6094 " fill="none" style="stroke:#D9D3D0;stroke-width:1.5;"/><text fill="#D9D3D0" font-family="Verdana" font-size="14" lengthAdjust="spacing" textLength="29" x="419.5" y="383.8311">CSV</text><path d="M419,397.1328 C419,387.1328 437,387.1328 437,387.1328 C437,387.1328 455,387.1328 455,397.1328 L455,423.1328 C455,433.1328 437,433.1328 437,433.1328 C437,433.1328 419,433.1328 419,423.1328 L419,397.1328 " fill="#003153" style="stroke:#D9D3D0;stroke-width:1.5;"/><path d="M419,397.1328 C419,407.1328 437,407.1328 437,407.1328 C437,407.1328 455,407.1328 455,397.1328 " fill="none" style="stroke:#D9D3D0;stroke-width:1.5;"/><polygon fill="#D9D3D0" points="276.5,156.0391,286.5,160.0391,276.5,164.0391,280.5,160.0391" style="stroke:#D9D3D0;stroke-width:1.0;"/><line style="stroke:#D9D3D0;stroke-width:1.0;" x1="101.5" x2="282.5" y1="160.0391" y2="160.0391"/><text fill="#D9D3D0" font-family="Verdana" font-size="13" font-weight="bold" lengthAdjust="spacing" textLength="9" x="108.5" y="154.9731">1</text><text fill="#D9D3D0" font-family="Verdana" font-size="13" lengthAdjust="spacing" textLength="115" x="121.5" y="154.9731">Get data from API</text><polygon fill="#D9D3D0" points="112.5,185.1719,102.5,189.1719,112.5,193.1719,108.5,189.1719" style="stroke:#D9D3D0;stroke-width:1.0;"/><line style="stroke:#D9D3D0;stroke-width:1.0;stroke-dasharray:2.0,2.0;" x1="106.5" x2="287.5" y1="189.1719" y2="189.1719"/><text fill="#D9D3D0" font-family="Verdana" font-size="13" font-weight="bold" lengthAdjust="spacing" textLength="9" x="118.5" y="184.106">2</text><text fill="#D9D3D0" font-family="Verdana" font-size="13" lengthAdjust="spacing" textLength="87" x="131.5" y="184.106">API Response</text><line style="stroke:#D9D3D0;stroke-width:1.0;" x1="101.5" x2="143.5" y1="218.3047" y2="218.3047"/><line style="stroke:#D9D3D0;stroke-width:1.0;" x1="143.5" x2="143.5" y1="218.3047" y2="231.3047"/><line style="stroke:#D9D3D0;stroke-width:1.0;" x1="102.5" x2="143.5" y1="231.3047" y2="231.3047"/><polygon fill="#D9D3D0" points="112.5,227.3047,102.5,231.3047,112.5,235.3047,108.5,231.3047" style="stroke:#D9D3D0;stroke-width:1.0;"/><text fill="#D9D3D0" font-family="Verdana" font-size="13" font-weight="bold" lengthAdjust="spacing" textLength="8" x="108.5" y="213.2388">3</text><text fill="#D9D3D0" font-family="Verdana" font-size="13" lengthAdjust="spacing" textLength="161" x="120.5" y="213.2388">Process data into objects</text><polygon fill="#D9D3D0" points="361,256.4375,371,260.4375,361,264.4375,365,260.4375" style="stroke:#D9D3D0;stroke-width:1.0;"/><line style="stroke:#D9D3D0;stroke-width:1.0;" x1="101.5" x2="367" y1="260.4375" y2="260.4375"/><text fill="#D9D3D0" font-family="Verdana" font-size="13" font-weight="bold" lengthAdjust="spacing" textLength="9" x="108.5" y="255.3716">4</text><text fill="#D9D3D0" font-family="Verdana" font-size="13" lengthAdjust="spacing" textLength="163" x="121.5" y="255.3716">Store objects in database</text><polygon fill="#D9D3D0" points="112.5,285.5703,102.5,289.5703,112.5,293.5703,108.5,289.5703" style="stroke:#D9D3D0;stroke-width:1.0;"/><line style="stroke:#D9D3D0;stroke-width:1.0;stroke-dasharray:2.0,2.0;" x1="106.5" x2="372" y1="289.5703" y2="289.5703"/><text fill="#D9D3D0" font-family="Verdana" font-size="13" font-weight="bold" lengthAdjust="spacing" textLength="9" x="118.5" y="284.5044">5</text><text fill="#D9D3D0" font-family="Verdana" font-size="13" lengthAdjust="spacing" textLength="153" x="131.5" y="284.5044">Confirmation of storage</text><path d="M10,302.5703 L10,327.5703 L193,327.5703 L193,312.5703 L183,302.5703 L10,302.5703 " fill="#003153" style="stroke:#D9D3D0;stroke-width:1.0;"/><path d="M183,302.5703 L183,312.5703 L193,312.5703 L183,302.5703 " fill="#003153" style="stroke:#D9D3D0;stroke-width:1.0;"/><text fill="#D9D3D0" font-family="Verdana" font-size="13" lengthAdjust="spacing" textLength="162" x="16" y="319.6372">Optionally create CSV file</text><polygon fill="#D9D3D0" points="425,349.8359,435,353.8359,425,357.8359,429,353.8359" style="stroke:#D9D3D0;stroke-width:1.0;"/><line style="stroke:#D9D3D0;stroke-width:1.0;" x1="101.5" x2="431" y1="353.8359" y2="353.8359"/><text fill="#D9D3D0" font-family="Verdana" font-size="13" font-weight="bold" lengthAdjust="spacing" textLength="9" x="108.5" y="348.77">6</text><text fill="#D9D3D0" font-family="Verdana" font-size="13" lengthAdjust="spacing" textLength="154" x="121.5" y="348.77">Write objects to CSV file</text><!--SRC=[LOz1JiGm34NtFeKvm5oW2oHK9CIA4PLWxNRS8IYD8yT5ulQuquIPMSMndx__js2HSM0-XNJ6eyh4fS23VV72ECQLiuPaGAj9MfUH5O0c4xsi-2-JMfX2fcJOny3-KAdLtV2TisoZPp8QgJ2SQe7zy06mo-7XiUvs-CA66uEpoe9FnrUe-WU7ThpRsgvSiYHNl6gqSSspwtWEGHc_UR9ompP37GwUYnlXE3QBq9YxsxsaEUX25YIXp5XydSuCaCHSveVr7ttB6qGn_kAaJ7O9ZNE8jwQzrU6d1hjwSCCD_0C0]--></g></svg>