<?xml version="1.0" encoding="us-ascii" standalone="no"?><svg xmlns="http://www.w3.org/2000/svg" xmlns:xlink="http://www.w3.org/1999/xlink" contentStyleType="text/css" height="664px" preserveAspectRatio="none" style="width:864px;height:664px;background:#003153;" version="1.1" viewBox="0 0 864 664" width="864px" zoomAndPan="magnify"><defs/><g><rect fill="#003153" height="664" style="stroke:none;stroke-width:1.0;" width="864" x="0" y="0"/><text fill="#D9D3D0" font-family="Verdana" font-size="22" font-weight="bold" lengthAdjust="spacing" textLength="247" x="315" y="35.4209">Sentiment Analysis</text><line style="stroke:#D9D3D0;stroke-width:1.0;" x1="28" x2="28" y1="128.9063" y2="582.7656"/><line style="stroke:#D9D3D0;stroke-width:1.0;" x1="202.5" x2="202.5" y1="128.9063" y2="582.7656"/><line style="stroke:#D9D3D0;stroke-width:1.0;" x1="519" x2="519" y1="128.9063" y2="582.7656"/><line style="stroke:#D9D3D0;stroke-width:1.0;" x1="684" x2="684" y1="128.9063" y2="582.7656"/><line style="stroke:#D9D3D0;stroke-width:1.0;" x1="799" x2="799" y1="128.9063" y2="582.7656"/><text fill="#D9D3D0" font-family="Verdana" font-size="14" lengthAdjust="spacing" textLength="31" x="10" y="125.6045">User</text><ellipse cx="28.5" cy="60.6094" fill="#003153" rx="8" ry="8" style="stroke:#D9D3D0;stroke-width:1.0;"/><path d="M28.5,68.6094 L28.5,95.6094 M15.5,76.6094 L41.5,76.6094 M28.5,95.6094 L15.5,110.6094 M28.5,95.6094 L41.5,110.6094 " fill="none" style="stroke:#D9D3D0;stroke-width:1.0;"/><text fill="#D9D3D0" font-family="Verdana" font-size="14" lengthAdjust="spacing" textLength="31" x="10" y="594.7607">User</text><ellipse cx="28.5" cy="607.0625" fill="#003153" rx="8" ry="8" style="stroke:#D9D3D0;stroke-width:1.0;"/><path d="M28.5,615.0625 L28.5,642.0625 M15.5,623.0625 L41.5,623.0625 M28.5,642.0625 L15.5,657.0625 M28.5,642.0625 L41.5,657.0625 " fill="none" style="stroke:#D9D3D0;stroke-width:1.0;"/><rect fill="#003153" height="30.2969" rx="2.5" ry="2.5" style="stroke:#D9D3D0;stroke-width:1.0;" width="84" x="160.5" y="97.6094"/><text fill="#D9D3D0" font-family="Verdana" font-size="14" lengthAdjust="spacing" textLength="70" x="167.5" y="117.6045">tokenizer</text><rect fill="#003153" height="30.2969" rx="2.5" ry="2.5" style="stroke:#D9D3D0;stroke-width:1.0;" width="84" x="160.5" y="581.7656"/><text fill="#D9D3D0" font-family="Verdana" font-size="14" lengthAdjust="spacing" textLength="70" x="167.5" y="601.7607">tokenizer</text><rect fill="#003153" height="30.2969" rx="2.5" ry="2.5" style="stroke:#D9D3D0;stroke-width:1.0;" width="59" x="490" y="97.6094"/><text fill="#D9D3D0" font-family="Verdana" font-size="14" lengthAdjust="spacing" textLength="45" x="497" y="117.6045">model</text><rect fill="#003153" height="30.2969" rx="2.5" ry="2.5" style="stroke:#D9D3D0;stroke-width:1.0;" width="59" x="490" y="581.7656"/><text fill="#D9D3D0" font-family="Verdana" font-size="14" lengthAdjust="spacing" textLength="45" x="497" y="601.7607">model</text><rect fill="#003153" height="30.2969" rx="2.5" ry="2.5" style="stroke:#D9D3D0;stroke-width:1.0;" width="53" x="658" y="97.6094"/><text fill="#D9D3D0" font-family="Verdana" font-size="14" lengthAdjust="spacing" textLength="39" x="665" y="117.6045">torch</text><rect fill="#003153" height="30.2969" rx="2.5" ry="2.5" style="stroke:#D9D3D0;stroke-width:1.0;" width="53" x="658" y="581.7656"/><text fill="#D9D3D0" font-family="Verdana" font-size="14" lengthAdjust="spacing" textLength="39" x="665" y="601.7607">torch</text><rect fill="#003153" height="30.2969" rx="2.5" ry="2.5" style="stroke:#D9D3D0;stroke-width:1.0;" width="117" x="741" y="97.6094"/><text fill="#D9D3D0" font-family="Verdana" font-size="14" lengthAdjust="spacing" textLength="103" x="748" y="117.6045">torch.softmax</text><rect fill="#003153" height="30.2969" rx="2.5" ry="2.5" style="stroke:#D9D3D0;stroke-width:1.0;" width="117" x="741" y="581.7656"/><text fill="#D9D3D0" font-family="Verdana" font-size="14" lengthAdjust="spacing" textLength="103" x="748" y="601.7607">torch.softmax</text><polygon fill="#D9D3D0" points="190.5,156.0391,200.5,160.0391,190.5,164.0391,194.5,160.0391" style="stroke:#D9D3D0;stroke-width:1.0;"/><line style="stroke:#D9D3D0;stroke-width:1.0;" x1="28.5" x2="196.5" y1="160.0391" y2="160.0391"/><text fill="#D9D3D0" font-family="Verdana" font-size="13" font-weight="bold" lengthAdjust="spacing" textLength="9" x="35.5" y="154.9731">1</text><text fill="#D9D3D0" font-family="Verdana" font-size="13" lengthAdjust="spacing" textLength="137" x="48.5" y="154.9731">create AutoTokenizer</text><polygon fill="#D9D3D0" points="507.5,185.1719,517.5,189.1719,507.5,193.1719,511.5,189.1719" style="stroke:#D9D3D0;stroke-width:1.0;"/><line style="stroke:#D9D3D0;stroke-width:1.0;" x1="28.5" x2="513.5" y1="189.1719" y2="189.1719"/><text fill="#D9D3D0" font-family="Verdana" font-size="13" font-weight="bold" lengthAdjust="spacing" textLength="9" x="35.5" y="184.106">2</text><text fill="#D9D3D0" font-family="Verdana" font-size="13" lengthAdjust="spacing" textLength="279" x="48.5" y="184.106">create AutoModelForSequenceClassification</text><polygon fill="#D9D3D0" points="190.5,214.3047,200.5,218.3047,190.5,222.3047,194.5,218.3047" style="stroke:#D9D3D0;stroke-width:1.0;"/><line style="stroke:#D9D3D0;stroke-width:1.0;" x1="28.5" x2="196.5" y1="218.3047" y2="218.3047"/><text fill="#D9D3D0" font-family="Verdana" font-size="13" font-weight="bold" lengthAdjust="spacing" textLength="8" x="35.5" y="213.2388">3</text><text fill="#D9D3D0" font-family="Verdana" font-size="13" lengthAdjust="spacing" textLength="116" x="47.5" y="213.2388">encode_plus(text)</text><line style="stroke:#D9D3D0;stroke-width:1.0;" x1="202.5" x2="244.5" y1="247.4375" y2="247.4375"/><line style="stroke:#D9D3D0;stroke-width:1.0;" x1="244.5" x2="244.5" y1="247.4375" y2="260.4375"/><line style="stroke:#D9D3D0;stroke-width:1.0;" x1="203.5" x2="244.5" y1="260.4375" y2="260.4375"/><polygon fill="#D9D3D0" points="213.5,256.4375,203.5,260.4375,213.5,264.4375,209.5,260.4375" style="stroke:#D9D3D0;stroke-width:1.0;"/><text fill="#D9D3D0" font-family="Verdana" font-size="13" font-weight="bold" lengthAdjust="spacing" textLength="9" x="209.5" y="242.3716">4</text><text fill="#D9D3D0" font-family="Verdana" font-size="13" lengthAdjust="spacing" textLength="80" x="222.5" y="242.3716">process text</text><polygon fill="#D9D3D0" points="672.5,285.5703,682.5,289.5703,672.5,293.5703,676.5,289.5703" style="stroke:#D9D3D0;stroke-width:1.0;"/><line style="stroke:#D9D3D0;stroke-width:1.0;" x1="202.5" x2="678.5" y1="289.5703" y2="289.5703"/><text fill="#D9D3D0" font-family="Verdana" font-size="13" font-weight="bold" lengthAdjust="spacing" textLength="9" x="209.5" y="284.5044">5</text><text fill="#D9D3D0" font-family="Verdana" font-size="13" lengthAdjust="spacing" textLength="84" x="222.5" y="284.5044">tokenize text</text><polygon fill="#D9D3D0" points="507.5,314.7031,517.5,318.7031,507.5,322.7031,511.5,318.7031" style="stroke:#D9D3D0;stroke-width:1.0;"/><line style="stroke:#D9D3D0;stroke-width:1.0;" x1="28.5" x2="513.5" y1="318.7031" y2="318.7031"/><text fill="#D9D3D0" font-family="Verdana" font-size="13" font-weight="bold" lengthAdjust="spacing" textLength="9" x="35.5" y="313.6372">6</text><text fill="#D9D3D0" font-family="Verdana" font-size="13" lengthAdjust="spacing" textLength="113" x="48.5" y="313.6372">predict sentiment</text><polygon fill="#D9D3D0" points="213.5,343.8359,203.5,347.8359,213.5,351.8359,209.5,347.8359" style="stroke:#D9D3D0;stroke-width:1.0;"/><line style="stroke:#D9D3D0;stroke-width:1.0;" x1="207.5" x2="518.5" y1="347.8359" y2="347.8359"/><text fill="#D9D3D0" font-family="Verdana" font-size="13" font-weight="bold" lengthAdjust="spacing" textLength="9" x="219.5" y="342.77">7</text><text fill="#D9D3D0" font-family="Verdana" font-size="13" lengthAdjust="spacing" textLength="93" x="232.5" y="342.77">process inputs</text><line style="stroke:#D9D3D0;stroke-width:1.0;" x1="202.5" x2="244.5" y1="376.9688" y2="376.9688"/><line style="stroke:#D9D3D0;stroke-width:1.0;" x1="244.5" x2="244.5" y1="376.9688" y2="389.9688"/><line style="stroke:#D9D3D0;stroke-width:1.0;" x1="203.5" x2="244.5" y1="389.9688" y2="389.9688"/><polygon fill="#D9D3D0" points="213.5,385.9688,203.5,389.9688,213.5,393.9688,209.5,389.9688" style="stroke:#D9D3D0;stroke-width:1.0;"/><text fill="#D9D3D0" font-family="Verdana" font-size="13" font-weight="bold" lengthAdjust="spacing" textLength="9" x="209.5" y="371.9028">8</text><text fill="#D9D3D0" font-family="Verdana" font-size="13" lengthAdjust="spacing" textLength="129" x="222.5" y="371.9028">encode_plus(inputs)</text><polygon fill="#D9D3D0" points="672.5,415.1016,682.5,419.1016,672.5,423.1016,676.5,419.1016" style="stroke:#D9D3D0;stroke-width:1.0;"/><line style="stroke:#D9D3D0;stroke-width:1.0;" x1="202.5" x2="678.5" y1="419.1016" y2="419.1016"/><text fill="#D9D3D0" font-family="Verdana" font-size="13" font-weight="bold" lengthAdjust="spacing" textLength="9" x="209.5" y="414.0356">9</text><text fill="#D9D3D0" font-family="Verdana" font-size="13" lengthAdjust="spacing" textLength="97" x="222.5" y="414.0356">tokenize inputs</text><polygon fill="#D9D3D0" points="507.5,444.2344,517.5,448.2344,507.5,452.2344,511.5,448.2344" style="stroke:#D9D3D0;stroke-width:1.0;"/><line style="stroke:#D9D3D0;stroke-width:1.0;stroke-dasharray:2.0,2.0;" x1="202.5" x2="513.5" y1="448.2344" y2="448.2344"/><text fill="#D9D3D0" font-family="Verdana" font-size="13" font-weight="bold" lengthAdjust="spacing" textLength="19" x="209.5" y="443.1685">10</text><text fill="#D9D3D0" font-family="Verdana" font-size="13" lengthAdjust="spacing" textLength="270" x="232.5" y="443.1685">input_ids, token_type_ids, attention_mask</text><polygon fill="#D9D3D0" points="530.5,473.3672,520.5,477.3672,530.5,481.3672,526.5,477.3672" style="stroke:#D9D3D0;stroke-width:1.0;"/><line style="stroke:#D9D3D0;stroke-width:1.0;" x1="524.5" x2="683.5" y1="477.3672" y2="477.3672"/><text fill="#D9D3D0" font-family="Verdana" font-size="13" font-weight="bold" lengthAdjust="spacing" textLength="18" x="536.5" y="472.3013">11</text><text fill="#D9D3D0" font-family="Verdana" font-size="13" lengthAdjust="spacing" textLength="119" x="558.5" y="472.3013">Perform prediction</text><polygon fill="#D9D3D0" points="787.5,502.5,797.5,506.5,787.5,510.5,791.5,506.5" style="stroke:#D9D3D0;stroke-width:1.0;"/><line style="stroke:#D9D3D0;stroke-width:1.0;" x1="519.5" x2="793.5" y1="506.5" y2="506.5"/><text fill="#D9D3D0" font-family="Verdana" font-size="13" font-weight="bold" lengthAdjust="spacing" textLength="18" x="526.5" y="501.4341">12</text><text fill="#D9D3D0" font-family="Verdana" font-size="13" lengthAdjust="spacing" textLength="198" x="548.5" y="501.4341">Compute softmax probabilities</text><polygon fill="#D9D3D0" points="530.5,531.6328,520.5,535.6328,530.5,539.6328,526.5,535.6328" style="stroke:#D9D3D0;stroke-width:1.0;"/><line style="stroke:#D9D3D0;stroke-width:1.0;" x1="524.5" x2="798.5" y1="535.6328" y2="535.6328"/><text fill="#D9D3D0" font-family="Verdana" font-size="13" font-weight="bold" lengthAdjust="spacing" textLength="17" x="536.5" y="530.5669">13</text><text fill="#D9D3D0" font-family="Verdana" font-size="13" lengthAdjust="spacing" textLength="124" x="557.5" y="530.5669">Return probabilities</text><polygon fill="#D9D3D0" points="39.5,560.7656,29.5,564.7656,39.5,568.7656,35.5,564.7656" style="stroke:#D9D3D0;stroke-width:1.0;"/><line style="stroke:#D9D3D0;stroke-width:1.0;stroke-dasharray:2.0,2.0;" x1="33.5" x2="518.5" y1="564.7656" y2="564.7656"/><text fill="#D9D3D0" font-family="Verdana" font-size="13" font-weight="bold" lengthAdjust="spacing" textLength="18" x="45.5" y="559.6997">14</text><text fill="#D9D3D0" font-family="Verdana" font-size="13" lengthAdjust="spacing" textLength="169" x="67.5" y="559.6997">Sentiment analysis results</text><!--SRC=[VP9DJWCn38NtEONPKGaum2oGgahia50Bwr4cTLMh-HbiHsevFKcdBTE1ieaI-ulVisKbzGWhZ4gX732FrX-4nDpf5WD2vpFsJ56DpPfY3XsoiKuJmuUKgwadF3w3fXr6-a9km35QHPYN3-_dw8KBQOt-YdcjaPV4A_pC61qkl1MX3JchbEAV2WKhdzhUPxbNtElCN98JikVaK0GgDONORPiBEn1JcptZcfo2d0TaZeaR8XJxh7BJozZrWCx-j_Ixte-pOwwbjJmCVAk77eUtLQrsKso3bPqvLXtrz8QyIHpElTKPZvegx9EaZGQxRs2HGb51E0Lgevtjo9CIYhc2Hm9BrCnn0fya2bL7t8nMpfvM3XWbUvLl]--></g></svg>