<?xml version="1.0" encoding="us-ascii" standalone="no"?><svg xmlns="http://www.w3.org/2000/svg" xmlns:xlink="http://www.w3.org/1999/xlink" contentStyleType="text/css" height="531px" preserveAspectRatio="none" style="width:1066px;height:531px;background:#003153;" version="1.1" viewBox="0 0 1066 531" width="1066px" zoomAndPan="magnify"><defs/><g><rect fill="#003153" height="531" style="stroke:none;stroke-width:1.0;" width="1066" x="0" y="0"/><text fill="#D9D3D0" font-family="Verdana" font-size="22" font-weight="bold" lengthAdjust="spacing" textLength="161" x="448" y="35.4209">Architecture</text><!--cluster app--><g id="cluster_app"><path d="M13.5,57.6094 L44.5,57.6094 A3.75,3.75 0 0 1 47,60.1094 L54,79.9063 L1056.5,79.9063 A2.5,2.5 0 0 1 1059,82.4063 L1059,522.1094 A2.5,2.5 0 0 1 1056.5,524.6094 L13.5,524.6094 A2.5,2.5 0 0 1 11,522.1094 L11,60.1094 A2.5,2.5 0 0 1 13.5,57.6094 " fill="#003153" style="stroke:#D9D3D0;stroke-width:1.0;"/><line style="stroke:#D9D3D0;stroke-width:1.0;" x1="11" x2="54" y1="79.9063" y2="79.9063"/><text fill="#D9D3D0" font-family="Verdana" font-size="14" font-weight="bold" lengthAdjust="spacing" textLength="30" x="15" y="72.6045">app</text></g><!--cluster core--><g id="cluster_core"><path d="M119.5,219.6094 L155.5,219.6094 A3.75,3.75 0 0 1 158,222.1094 L165,241.9063 L1032.5,241.9063 A2.5,2.5 0 0 1 1035,244.4063 L1035,498.1094 A2.5,2.5 0 0 1 1032.5,500.6094 L119.5,500.6094 A2.5,2.5 0 0 1 117,498.1094 L117,222.1094 A2.5,2.5 0 0 1 119.5,219.6094 " fill="#003153" style="stroke:#D9D3D0;stroke-width:1.0;"/><line style="stroke:#D9D3D0;stroke-width:1.0;" x1="117" x2="165" y1="241.9063" y2="241.9063"/><text fill="#D9D3D0" font-family="Verdana" font-size="14" font-weight="bold" lengthAdjust="spacing" textLength="35" x="121" y="234.6045">core</text></g><!--cluster repo--><g id="cluster_repo"><path d="M143.5,262.6094 L180.5,262.6094 A3.75,3.75 0 0 1 183,265.1094 L190,284.9063 L565.5,284.9063 A2.5,2.5 0 0 1 568,287.4063 L568,355.1094 A2.5,2.5 0 0 1 565.5,357.6094 L143.5,357.6094 A2.5,2.5 0 0 1 141,355.1094 L141,265.1094 A2.5,2.5 0 0 1 143.5,262.6094 " fill="#003153" style="stroke:#D9D3D0;stroke-width:1.0;"/><line style="stroke:#D9D3D0;stroke-width:1.0;" x1="141" x2="190" y1="284.9063" y2="284.9063"/><text fill="#D9D3D0" font-family="Verdana" font-size="14" font-weight="bold" lengthAdjust="spacing" textLength="36" x="145" y="277.6045">repo</text></g><!--cluster models--><g id="cluster_models"><path d="M143.5,381.6094 L202.5,381.6094 A3.75,3.75 0 0 1 205,384.1094 L212,403.9063 L573.5,403.9063 A2.5,2.5 0 0 1 576,406.4063 L576,474.1094 A2.5,2.5 0 0 1 573.5,476.6094 L143.5,476.6094 A2.5,2.5 0 0 1 141,474.1094 L141,384.1094 A2.5,2.5 0 0 1 143.5,381.6094 " fill="#003153" style="stroke:#D9D3D0;stroke-width:1.0;"/><line style="stroke:#D9D3D0;stroke-width:1.0;" x1="141" x2="212" y1="403.9063" y2="403.9063"/><text fill="#D9D3D0" font-family="Verdana" font-size="14" font-weight="bold" lengthAdjust="spacing" textLength="58" x="145" y="396.6045">models</text></g><!--cluster services--><g id="cluster_services"><path d="M594.5,262.6094 L661.5,262.6094 A3.75,3.75 0 0 1 664,265.1094 L671,284.9063 L1008.5,284.9063 A2.5,2.5 0 0 1 1011,287.4063 L1011,355.1094 A2.5,2.5 0 0 1 1008.5,357.6094 L594.5,357.6094 A2.5,2.5 0 0 1 592,355.1094 L592,265.1094 A2.5,2.5 0 0 1 594.5,262.6094 " fill="#003153" style="stroke:#D9D3D0;stroke-width:1.0;"/><line style="stroke:#D9D3D0;stroke-width:1.0;" x1="592" x2="671" y1="284.9063" y2="284.9063"/><text fill="#D9D3D0" font-family="Verdana" font-size="14" font-weight="bold" lengthAdjust="spacing" textLength="66" x="596" y="277.6045">services</text></g><!--cluster trading--><g id="cluster_trading"><path d="M891.5,381.6094 L952.5,381.6094 A3.75,3.75 0 0 1 955,384.1094 L962,403.9063 L1008.5,403.9063 A2.5,2.5 0 0 1 1011,406.4063 L1011,474.1094 A2.5,2.5 0 0 1 1008.5,476.6094 L891.5,476.6094 A2.5,2.5 0 0 1 889,474.1094 L889,384.1094 A2.5,2.5 0 0 1 891.5,381.6094 " fill="#003153" style="stroke:#D9D3D0;stroke-width:1.0;"/><line style="stroke:#D9D3D0;stroke-width:1.0;" x1="889" x2="962" y1="403.9063" y2="403.9063"/><text fill="#D9D3D0" font-family="Verdana" font-size="14" font-weight="bold" lengthAdjust="spacing" textLength="60" x="893" y="396.6045">trading</text></g><!--cluster routers--><g id="cluster_routers"><path d="M143.5,100.6094 L204.5,100.6094 A3.75,3.75 0 0 1 207,103.1094 L214,122.9063 L698.5,122.9063 A2.5,2.5 0 0 1 701,125.4063 L701,193.1094 A2.5,2.5 0 0 1 698.5,195.6094 L143.5,195.6094 A2.5,2.5 0 0 1 141,193.1094 L141,103.1094 A2.5,2.5 0 0 1 143.5,100.6094 " fill="#003153" style="stroke:#D9D3D0;stroke-width:1.0;"/><line style="stroke:#D9D3D0;stroke-width:1.0;" x1="141" x2="214" y1="122.9063" y2="122.9063"/><text fill="#D9D3D0" font-family="Verdana" font-size="14" font-weight="bold" lengthAdjust="spacing" textLength="60" x="145" y="115.6045">routers</text></g><!--class config--><g id="elem_config"><rect codeLine="4" fill="#003153" height="44" id="config" rx="2.5" ry="2.5" style="stroke:#D9D3D0;stroke-width:1.0;" width="73" x="27.5" y="297.6094"/><ellipse cx="40.5" cy="311.6094" fill="#003153" rx="9" ry="9" style="stroke:#D9D3D0;stroke-width:1.0;"/><path d="M42.8438,307.2813 C41.9063,306.8438 41.3125,306.7031 40.4375,306.7031 C37.8125,306.7031 35.8125,308.7813 35.8125,311.5 L35.8125,312.625 C35.8125,315.2031 37.9219,317.0938 40.8125,317.0938 C42.0313,317.0938 43.1875,316.7969 43.9375,316.25 C44.5156,315.8438 44.8438,315.3906 44.8438,315 C44.8438,314.5469 44.4531,314.1563 43.9844,314.1563 C43.7656,314.1563 43.5625,314.2344 43.375,314.4219 C42.9219,314.9063 42.9219,314.9063 42.7344,315 C42.3125,315.2656 41.625,315.3906 40.8594,315.3906 C38.8125,315.3906 37.5156,314.2969 37.5156,312.5938 L37.5156,311.5 C37.5156,309.7188 38.7656,308.4063 40.5,308.4063 C41.0781,308.4063 41.6875,308.5625 42.1563,308.8125 C42.6406,309.0938 42.8125,309.3125 42.9063,309.7188 C42.9688,310.125 43,310.25 43.1406,310.375 C43.2813,310.5156 43.5156,310.625 43.7344,310.625 C44,310.625 44.2656,310.4844 44.4375,310.2656 C44.5469,310.1094 44.5781,309.9219 44.5781,309.5 L44.5781,308.0781 C44.5781,307.6406 44.5625,307.5156 44.4688,307.3594 C44.3125,307.0938 44.0313,306.9531 43.7344,306.9531 C43.4375,306.9531 43.2344,307.0469 43.0156,307.3594 L42.8438,307.2813 Z " fill="#D9D3D0"/><text fill="#D9D3D0" font-family="Verdana" font-size="14" lengthAdjust="spacing" textLength="45" x="52.5" y="316.4561">config</text><line style="stroke:#D9D3D0;stroke-width:1.0;" x1="28.5" x2="99.5" y1="325.6094" y2="325.6094"/><line style="stroke:#D9D3D0;stroke-width:1.0;" x1="28.5" x2="99.5" y1="333.6094" y2="333.6094"/></g><!--class main--><g id="elem_main"><rect codeLine="5" fill="#003153" height="44" id="main" rx="2.5" ry="2.5" style="stroke:#D9D3D0;stroke-width:1.0;" width="63" x="32.5" y="135.6094"/><ellipse cx="45.5" cy="149.6094" fill="#003153" rx="9" ry="9" style="stroke:#D9D3D0;stroke-width:1.0;"/><path d="M47.8438,145.2813 C46.9063,144.8438 46.3125,144.7031 45.4375,144.7031 C42.8125,144.7031 40.8125,146.7813 40.8125,149.5 L40.8125,150.625 C40.8125,153.2031 42.9219,155.0938 45.8125,155.0938 C47.0313,155.0938 48.1875,154.7969 48.9375,154.25 C49.5156,153.8438 49.8438,153.3906 49.8438,153 C49.8438,152.5469 49.4531,152.1563 48.9844,152.1563 C48.7656,152.1563 48.5625,152.2344 48.375,152.4219 C47.9219,152.9063 47.9219,152.9063 47.7344,153 C47.3125,153.2656 46.625,153.3906 45.8594,153.3906 C43.8125,153.3906 42.5156,152.2969 42.5156,150.5938 L42.5156,149.5 C42.5156,147.7188 43.7656,146.4063 45.5,146.4063 C46.0781,146.4063 46.6875,146.5625 47.1563,146.8125 C47.6406,147.0938 47.8125,147.3125 47.9063,147.7188 C47.9688,148.125 48,148.25 48.1406,148.375 C48.2813,148.5156 48.5156,148.625 48.7344,148.625 C49,148.625 49.2656,148.4844 49.4375,148.2656 C49.5469,148.1094 49.5781,147.9219 49.5781,147.5 L49.5781,146.0781 C49.5781,145.6406 49.5625,145.5156 49.4688,145.3594 C49.3125,145.0938 49.0313,144.9531 48.7344,144.9531 C48.4375,144.9531 48.2344,145.0469 48.0156,145.3594 L47.8438,145.2813 Z " fill="#D9D3D0"/><text fill="#D9D3D0" font-family="Verdana" font-size="14" lengthAdjust="spacing" textLength="35" x="57.5" y="154.4561">main</text><line style="stroke:#D9D3D0;stroke-width:1.0;" x1="33.5" x2="94.5" y1="163.6094" y2="163.6094"/><line style="stroke:#D9D3D0;stroke-width:1.0;" x1="33.5" x2="94.5" y1="171.6094" y2="171.6094"/></g><!--class article--><g id="elem_article"><rect codeLine="9" fill="#003153" height="44" id="article" rx="2.5" ry="2.5" style="stroke:#D9D3D0;stroke-width:1.0;" width="74" x="286" y="297.6094"/><ellipse cx="299" cy="311.6094" fill="#003153" rx="9" ry="9" style="stroke:#D9D3D0;stroke-width:1.0;"/><path d="M301.3438,307.2813 C300.4063,306.8438 299.8125,306.7031 298.9375,306.7031 C296.3125,306.7031 294.3125,308.7813 294.3125,311.5 L294.3125,312.625 C294.3125,315.2031 296.4219,317.0938 299.3125,317.0938 C300.5313,317.0938 301.6875,316.7969 302.4375,316.25 C303.0156,315.8438 303.3438,315.3906 303.3438,315 C303.3438,314.5469 302.9531,314.1563 302.4844,314.1563 C302.2656,314.1563 302.0625,314.2344 301.875,314.4219 C301.4219,314.9063 301.4219,314.9063 301.2344,315 C300.8125,315.2656 300.125,315.3906 299.3594,315.3906 C297.3125,315.3906 296.0156,314.2969 296.0156,312.5938 L296.0156,311.5 C296.0156,309.7188 297.2656,308.4063 299,308.4063 C299.5781,308.4063 300.1875,308.5625 300.6563,308.8125 C301.1406,309.0938 301.3125,309.3125 301.4063,309.7188 C301.4688,310.125 301.5,310.25 301.6406,310.375 C301.7813,310.5156 302.0156,310.625 302.2344,310.625 C302.5,310.625 302.7656,310.4844 302.9375,310.2656 C303.0469,310.1094 303.0781,309.9219 303.0781,309.5 L303.0781,308.0781 C303.0781,307.6406 303.0625,307.5156 302.9688,307.3594 C302.8125,307.0938 302.5313,306.9531 302.2344,306.9531 C301.9375,306.9531 301.7344,307.0469 301.5156,307.3594 L301.3438,307.2813 Z " fill="#D9D3D0"/><text fill="#D9D3D0" font-family="Verdana" font-size="14" lengthAdjust="spacing" textLength="46" x="311" y="316.4561">article</text><line style="stroke:#D9D3D0;stroke-width:1.0;" x1="287" x2="359" y1="325.6094" y2="325.6094"/><line style="stroke:#D9D3D0;stroke-width:1.0;" x1="287" x2="359" y1="333.6094" y2="333.6094"/></g><!--class company--><g id="elem_company"><rect codeLine="10" fill="#003153" height="44" id="company" rx="2.5" ry="2.5" style="stroke:#D9D3D0;stroke-width:1.0;" width="94" x="157" y="297.6094"/><ellipse cx="170" cy="311.6094" fill="#003153" rx="9" ry="9" style="stroke:#D9D3D0;stroke-width:1.0;"/><path d="M172.3438,307.2813 C171.4063,306.8438 170.8125,306.7031 169.9375,306.7031 C167.3125,306.7031 165.3125,308.7813 165.3125,311.5 L165.3125,312.625 C165.3125,315.2031 167.4219,317.0938 170.3125,317.0938 C171.5313,317.0938 172.6875,316.7969 173.4375,316.25 C174.0156,315.8438 174.3438,315.3906 174.3438,315 C174.3438,314.5469 173.9531,314.1563 173.4844,314.1563 C173.2656,314.1563 173.0625,314.2344 172.875,314.4219 C172.4219,314.9063 172.4219,314.9063 172.2344,315 C171.8125,315.2656 171.125,315.3906 170.3594,315.3906 C168.3125,315.3906 167.0156,314.2969 167.0156,312.5938 L167.0156,311.5 C167.0156,309.7188 168.2656,308.4063 170,308.4063 C170.5781,308.4063 171.1875,308.5625 171.6563,308.8125 C172.1406,309.0938 172.3125,309.3125 172.4063,309.7188 C172.4688,310.125 172.5,310.25 172.6406,310.375 C172.7813,310.5156 173.0156,310.625 173.2344,310.625 C173.5,310.625 173.7656,310.4844 173.9375,310.2656 C174.0469,310.1094 174.0781,309.9219 174.0781,309.5 L174.0781,308.0781 C174.0781,307.6406 174.0625,307.5156 173.9688,307.3594 C173.8125,307.0938 173.5313,306.9531 173.2344,306.9531 C172.9375,306.9531 172.7344,307.0469 172.5156,307.3594 L172.3438,307.2813 Z " fill="#D9D3D0"/><text fill="#D9D3D0" font-family="Verdana" font-size="14" lengthAdjust="spacing" textLength="66" x="182" y="316.4561">company</text><line style="stroke:#D9D3D0;stroke-width:1.0;" x1="158" x2="250" y1="325.6094" y2="325.6094"/><line style="stroke:#D9D3D0;stroke-width:1.0;" x1="158" x2="250" y1="333.6094" y2="333.6094"/></g><!--class news--><g id="elem_news"><rect codeLine="11" fill="#003153" height="44" id="news" rx="2.5" ry="2.5" style="stroke:#D9D3D0;stroke-width:1.0;" width="64" x="488" y="297.6094"/><ellipse cx="501" cy="311.6094" fill="#003153" rx="9" ry="9" style="stroke:#D9D3D0;stroke-width:1.0;"/><path d="M503.3438,307.2813 C502.4063,306.8438 501.8125,306.7031 500.9375,306.7031 C498.3125,306.7031 496.3125,308.7813 496.3125,311.5 L496.3125,312.625 C496.3125,315.2031 498.4219,317.0938 501.3125,317.0938 C502.5313,317.0938 503.6875,316.7969 504.4375,316.25 C505.0156,315.8438 505.3438,315.3906 505.3438,315 C505.3438,314.5469 504.9531,314.1563 504.4844,314.1563 C504.2656,314.1563 504.0625,314.2344 503.875,314.4219 C503.4219,314.9063 503.4219,314.9063 503.2344,315 C502.8125,315.2656 502.125,315.3906 501.3594,315.3906 C499.3125,315.3906 498.0156,314.2969 498.0156,312.5938 L498.0156,311.5 C498.0156,309.7188 499.2656,308.4063 501,308.4063 C501.5781,308.4063 502.1875,308.5625 502.6563,308.8125 C503.1406,309.0938 503.3125,309.3125 503.4063,309.7188 C503.4688,310.125 503.5,310.25 503.6406,310.375 C503.7813,310.5156 504.0156,310.625 504.2344,310.625 C504.5,310.625 504.7656,310.4844 504.9375,310.2656 C505.0469,310.1094 505.0781,309.9219 505.0781,309.5 L505.0781,308.0781 C505.0781,307.6406 505.0625,307.5156 504.9688,307.3594 C504.8125,307.0938 504.5313,306.9531 504.2344,306.9531 C503.9375,306.9531 503.7344,307.0469 503.5156,307.3594 L503.3438,307.2813 Z " fill="#D9D3D0"/><text fill="#D9D3D0" font-family="Verdana" font-size="14" lengthAdjust="spacing" textLength="36" x="513" y="316.4561">news</text><line style="stroke:#D9D3D0;stroke-width:1.0;" x1="489" x2="551" y1="325.6094" y2="325.6094"/><line style="stroke:#D9D3D0;stroke-width:1.0;" x1="489" x2="551" y1="333.6094" y2="333.6094"/></g><!--class user--><g id="elem_user"><rect codeLine="12" fill="#003153" height="44" id="user" rx="2.5" ry="2.5" style="stroke:#D9D3D0;stroke-width:1.0;" width="58" x="395" y="297.6094"/><ellipse cx="408" cy="311.6094" fill="#003153" rx="9" ry="9" style="stroke:#D9D3D0;stroke-width:1.0;"/><path d="M410.3438,307.2813 C409.4063,306.8438 408.8125,306.7031 407.9375,306.7031 C405.3125,306.7031 403.3125,308.7813 403.3125,311.5 L403.3125,312.625 C403.3125,315.2031 405.4219,317.0938 408.3125,317.0938 C409.5313,317.0938 410.6875,316.7969 411.4375,316.25 C412.0156,315.8438 412.3438,315.3906 412.3438,315 C412.3438,314.5469 411.9531,314.1563 411.4844,314.1563 C411.2656,314.1563 411.0625,314.2344 410.875,314.4219 C410.4219,314.9063 410.4219,314.9063 410.2344,315 C409.8125,315.2656 409.125,315.3906 408.3594,315.3906 C406.3125,315.3906 405.0156,314.2969 405.0156,312.5938 L405.0156,311.5 C405.0156,309.7188 406.2656,308.4063 408,308.4063 C408.5781,308.4063 409.1875,308.5625 409.6563,308.8125 C410.1406,309.0938 410.3125,309.3125 410.4063,309.7188 C410.4688,310.125 410.5,310.25 410.6406,310.375 C410.7813,310.5156 411.0156,310.625 411.2344,310.625 C411.5,310.625 411.7656,310.4844 411.9375,310.2656 C412.0469,310.1094 412.0781,309.9219 412.0781,309.5 L412.0781,308.0781 C412.0781,307.6406 412.0625,307.5156 411.9688,307.3594 C411.8125,307.0938 411.5313,306.9531 411.2344,306.9531 C410.9375,306.9531 410.7344,307.0469 410.5156,307.3594 L410.3438,307.2813 Z " fill="#D9D3D0"/><text fill="#D9D3D0" font-family="Verdana" font-size="14" lengthAdjust="spacing" textLength="30" x="420" y="316.4561">user</text><line style="stroke:#D9D3D0;stroke-width:1.0;" x1="396" x2="452" y1="325.6094" y2="325.6094"/><line style="stroke:#D9D3D0;stroke-width:1.0;" x1="396" x2="452" y1="333.6094" y2="333.6094"/></g><!--class article--><g id="elem_article"><rect fill="#003153" height="44" id="article" rx="2.5" ry="2.5" style="stroke:#D9D3D0;stroke-width:1.0;" width="74" x="286" y="416.6094"/><ellipse cx="299" cy="430.6094" fill="#003153" rx="9" ry="9" style="stroke:#D9D3D0;stroke-width:1.0;"/><path d="M301.3438,426.2813 C300.4063,425.8438 299.8125,425.7031 298.9375,425.7031 C296.3125,425.7031 294.3125,427.7813 294.3125,430.5 L294.3125,431.625 C294.3125,434.2031 296.4219,436.0938 299.3125,436.0938 C300.5313,436.0938 301.6875,435.7969 302.4375,435.25 C303.0156,434.8438 303.3438,434.3906 303.3438,434 C303.3438,433.5469 302.9531,433.1563 302.4844,433.1563 C302.2656,433.1563 302.0625,433.2344 301.875,433.4219 C301.4219,433.9063 301.4219,433.9063 301.2344,434 C300.8125,434.2656 300.125,434.3906 299.3594,434.3906 C297.3125,434.3906 296.0156,433.2969 296.0156,431.5938 L296.0156,430.5 C296.0156,428.7188 297.2656,427.4063 299,427.4063 C299.5781,427.4063 300.1875,427.5625 300.6563,427.8125 C301.1406,428.0938 301.3125,428.3125 301.4063,428.7188 C301.4688,429.125 301.5,429.25 301.6406,429.375 C301.7813,429.5156 302.0156,429.625 302.2344,429.625 C302.5,429.625 302.7656,429.4844 302.9375,429.2656 C303.0469,429.1094 303.0781,428.9219 303.0781,428.5 L303.0781,427.0781 C303.0781,426.6406 303.0625,426.5156 302.9688,426.3594 C302.8125,426.0938 302.5313,425.9531 302.2344,425.9531 C301.9375,425.9531 301.7344,426.0469 301.5156,426.3594 L301.3438,426.2813 Z " fill="#D9D3D0"/><text fill="#D9D3D0" font-family="Verdana" font-size="14" lengthAdjust="spacing" textLength="46" x="311" y="435.4561">article</text><line style="stroke:#D9D3D0;stroke-width:1.0;" x1="287" x2="359" y1="444.6094" y2="444.6094"/><line style="stroke:#D9D3D0;stroke-width:1.0;" x1="287" x2="359" y1="452.6094" y2="452.6094"/></g><!--class company--><g id="elem_company"><rect fill="#003153" height="44" id="company" rx="2.5" ry="2.5" style="stroke:#D9D3D0;stroke-width:1.0;" width="94" x="157" y="416.6094"/><ellipse cx="170" cy="430.6094" fill="#003153" rx="9" ry="9" style="stroke:#D9D3D0;stroke-width:1.0;"/><path d="M172.3438,426.2813 C171.4063,425.8438 170.8125,425.7031 169.9375,425.7031 C167.3125,425.7031 165.3125,427.7813 165.3125,430.5 L165.3125,431.625 C165.3125,434.2031 167.4219,436.0938 170.3125,436.0938 C171.5313,436.0938 172.6875,435.7969 173.4375,435.25 C174.0156,434.8438 174.3438,434.3906 174.3438,434 C174.3438,433.5469 173.9531,433.1563 173.4844,433.1563 C173.2656,433.1563 173.0625,433.2344 172.875,433.4219 C172.4219,433.9063 172.4219,433.9063 172.2344,434 C171.8125,434.2656 171.125,434.3906 170.3594,434.3906 C168.3125,434.3906 167.0156,433.2969 167.0156,431.5938 L167.0156,430.5 C167.0156,428.7188 168.2656,427.4063 170,427.4063 C170.5781,427.4063 171.1875,427.5625 171.6563,427.8125 C172.1406,428.0938 172.3125,428.3125 172.4063,428.7188 C172.4688,429.125 172.5,429.25 172.6406,429.375 C172.7813,429.5156 173.0156,429.625 173.2344,429.625 C173.5,429.625 173.7656,429.4844 173.9375,429.2656 C174.0469,429.1094 174.0781,428.9219 174.0781,428.5 L174.0781,427.0781 C174.0781,426.6406 174.0625,426.5156 173.9688,426.3594 C173.8125,426.0938 173.5313,425.9531 173.2344,425.9531 C172.9375,425.9531 172.7344,426.0469 172.5156,426.3594 L172.3438,426.2813 Z " fill="#D9D3D0"/><text fill="#D9D3D0" font-family="Verdana" font-size="14" lengthAdjust="spacing" textLength="66" x="182" y="435.4561">company</text><line style="stroke:#D9D3D0;stroke-width:1.0;" x1="158" x2="250" y1="444.6094" y2="444.6094"/><line style="stroke:#D9D3D0;stroke-width:1.0;" x1="158" x2="250" y1="452.6094" y2="452.6094"/></g><!--class news--><g id="elem_news"><rect fill="#003153" height="44" id="news" rx="2.5" ry="2.5" style="stroke:#D9D3D0;stroke-width:1.0;" width="64" x="496" y="416.6094"/><ellipse cx="509" cy="430.6094" fill="#003153" rx="9" ry="9" style="stroke:#D9D3D0;stroke-width:1.0;"/><path d="M511.3438,426.2813 C510.4063,425.8438 509.8125,425.7031 508.9375,425.7031 C506.3125,425.7031 504.3125,427.7813 504.3125,430.5 L504.3125,431.625 C504.3125,434.2031 506.4219,436.0938 509.3125,436.0938 C510.5313,436.0938 511.6875,435.7969 512.4375,435.25 C513.0156,434.8438 513.3438,434.3906 513.3438,434 C513.3438,433.5469 512.9531,433.1563 512.4844,433.1563 C512.2656,433.1563 512.0625,433.2344 511.875,433.4219 C511.4219,433.9063 511.4219,433.9063 511.2344,434 C510.8125,434.2656 510.125,434.3906 509.3594,434.3906 C507.3125,434.3906 506.0156,433.2969 506.0156,431.5938 L506.0156,430.5 C506.0156,428.7188 507.2656,427.4063 509,427.4063 C509.5781,427.4063 510.1875,427.5625 510.6563,427.8125 C511.1406,428.0938 511.3125,428.3125 511.4063,428.7188 C511.4688,429.125 511.5,429.25 511.6406,429.375 C511.7813,429.5156 512.0156,429.625 512.2344,429.625 C512.5,429.625 512.7656,429.4844 512.9375,429.2656 C513.0469,429.1094 513.0781,428.9219 513.0781,428.5 L513.0781,427.0781 C513.0781,426.6406 513.0625,426.5156 512.9688,426.3594 C512.8125,426.0938 512.5313,425.9531 512.2344,425.9531 C511.9375,425.9531 511.7344,426.0469 511.5156,426.3594 L511.3438,426.2813 Z " fill="#D9D3D0"/><text fill="#D9D3D0" font-family="Verdana" font-size="14" lengthAdjust="spacing" textLength="36" x="521" y="435.4561">news</text><line style="stroke:#D9D3D0;stroke-width:1.0;" x1="497" x2="559" y1="444.6094" y2="444.6094"/><line style="stroke:#D9D3D0;stroke-width:1.0;" x1="497" x2="559" y1="452.6094" y2="452.6094"/></g><!--class users--><g id="elem_users"><rect fill="#003153" height="44" id="users" rx="2.5" ry="2.5" style="stroke:#D9D3D0;stroke-width:1.0;" width="65" x="395.5" y="416.6094"/><ellipse cx="408.5" cy="430.6094" fill="#003153" rx="9" ry="9" style="stroke:#D9D3D0;stroke-width:1.0;"/><path d="M410.8438,426.2813 C409.9063,425.8438 409.3125,425.7031 408.4375,425.7031 C405.8125,425.7031 403.8125,427.7813 403.8125,430.5 L403.8125,431.625 C403.8125,434.2031 405.9219,436.0938 408.8125,436.0938 C410.0313,436.0938 411.1875,435.7969 411.9375,435.25 C412.5156,434.8438 412.8438,434.3906 412.8438,434 C412.8438,433.5469 412.4531,433.1563 411.9844,433.1563 C411.7656,433.1563 411.5625,433.2344 411.375,433.4219 C410.9219,433.9063 410.9219,433.9063 410.7344,434 C410.3125,434.2656 409.625,434.3906 408.8594,434.3906 C406.8125,434.3906 405.5156,433.2969 405.5156,431.5938 L405.5156,430.5 C405.5156,428.7188 406.7656,427.4063 408.5,427.4063 C409.0781,427.4063 409.6875,427.5625 410.1563,427.8125 C410.6406,428.0938 410.8125,428.3125 410.9063,428.7188 C410.9688,429.125 411,429.25 411.1406,429.375 C411.2813,429.5156 411.5156,429.625 411.7344,429.625 C412,429.625 412.2656,429.4844 412.4375,429.2656 C412.5469,429.1094 412.5781,428.9219 412.5781,428.5 L412.5781,427.0781 C412.5781,426.6406 412.5625,426.5156 412.4688,426.3594 C412.3125,426.0938 412.0313,425.9531 411.7344,425.9531 C411.4375,425.9531 411.2344,426.0469 411.0156,426.3594 L410.8438,426.2813 Z " fill="#D9D3D0"/><text fill="#D9D3D0" font-family="Verdana" font-size="14" lengthAdjust="spacing" textLength="37" x="420.5" y="435.4561">users</text><line style="stroke:#D9D3D0;stroke-width:1.0;" x1="396.5" x2="459.5" y1="444.6094" y2="444.6094"/><line style="stroke:#D9D3D0;stroke-width:1.0;" x1="396.5" x2="459.5" y1="452.6094" y2="452.6094"/></g><!--class crypto--><g id="elem_crypto"><rect codeLine="21" fill="#003153" height="44" id="crypto" rx="2.5" ry="2.5" style="stroke:#D9D3D0;stroke-width:1.0;" width="76" x="919" y="297.6094"/><ellipse cx="932" cy="311.6094" fill="#003153" rx="9" ry="9" style="stroke:#D9D3D0;stroke-width:1.0;"/><path d="M934.3438,307.2813 C933.4063,306.8438 932.8125,306.7031 931.9375,306.7031 C929.3125,306.7031 927.3125,308.7813 927.3125,311.5 L927.3125,312.625 C927.3125,315.2031 929.4219,317.0938 932.3125,317.0938 C933.5313,317.0938 934.6875,316.7969 935.4375,316.25 C936.0156,315.8438 936.3438,315.3906 936.3438,315 C936.3438,314.5469 935.9531,314.1563 935.4844,314.1563 C935.2656,314.1563 935.0625,314.2344 934.875,314.4219 C934.4219,314.9063 934.4219,314.9063 934.2344,315 C933.8125,315.2656 933.125,315.3906 932.3594,315.3906 C930.3125,315.3906 929.0156,314.2969 929.0156,312.5938 L929.0156,311.5 C929.0156,309.7188 930.2656,308.4063 932,308.4063 C932.5781,308.4063 933.1875,308.5625 933.6563,308.8125 C934.1406,309.0938 934.3125,309.3125 934.4063,309.7188 C934.4688,310.125 934.5,310.25 934.6406,310.375 C934.7813,310.5156 935.0156,310.625 935.2344,310.625 C935.5,310.625 935.7656,310.4844 935.9375,310.2656 C936.0469,310.1094 936.0781,309.9219 936.0781,309.5 L936.0781,308.0781 C936.0781,307.6406 936.0625,307.5156 935.9688,307.3594 C935.8125,307.0938 935.5313,306.9531 935.2344,306.9531 C934.9375,306.9531 934.7344,307.0469 934.5156,307.3594 L934.3438,307.2813 Z " fill="#D9D3D0"/><text fill="#D9D3D0" font-family="Verdana" font-size="14" lengthAdjust="spacing" textLength="48" x="944" y="316.4561">crypto</text><line style="stroke:#D9D3D0;stroke-width:1.0;" x1="920" x2="994" y1="325.6094" y2="325.6094"/><line style="stroke:#D9D3D0;stroke-width:1.0;" x1="920" x2="994" y1="333.6094" y2="333.6094"/></g><!--class metrics--><g id="elem_metrics"><rect codeLine="22" fill="#003153" height="44" id="metrics" rx="2.5" ry="2.5" style="stroke:#D9D3D0;stroke-width:1.0;" width="83" x="800.5" y="297.6094"/><ellipse cx="813.5" cy="311.6094" fill="#003153" rx="9" ry="9" style="stroke:#D9D3D0;stroke-width:1.0;"/><path d="M815.8438,307.2813 C814.9063,306.8438 814.3125,306.7031 813.4375,306.7031 C810.8125,306.7031 808.8125,308.7813 808.8125,311.5 L808.8125,312.625 C808.8125,315.2031 810.9219,317.0938 813.8125,317.0938 C815.0313,317.0938 816.1875,316.7969 816.9375,316.25 C817.5156,315.8438 817.8438,315.3906 817.8438,315 C817.8438,314.5469 817.4531,314.1563 816.9844,314.1563 C816.7656,314.1563 816.5625,314.2344 816.375,314.4219 C815.9219,314.9063 815.9219,314.9063 815.7344,315 C815.3125,315.2656 814.625,315.3906 813.8594,315.3906 C811.8125,315.3906 810.5156,314.2969 810.5156,312.5938 L810.5156,311.5 C810.5156,309.7188 811.7656,308.4063 813.5,308.4063 C814.0781,308.4063 814.6875,308.5625 815.1563,308.8125 C815.6406,309.0938 815.8125,309.3125 815.9063,309.7188 C815.9688,310.125 816,310.25 816.1406,310.375 C816.2813,310.5156 816.5156,310.625 816.7344,310.625 C817,310.625 817.2656,310.4844 817.4375,310.2656 C817.5469,310.1094 817.5781,309.9219 817.5781,309.5 L817.5781,308.0781 C817.5781,307.6406 817.5625,307.5156 817.4688,307.3594 C817.3125,307.0938 817.0313,306.9531 816.7344,306.9531 C816.4375,306.9531 816.2344,307.0469 816.0156,307.3594 L815.8438,307.2813 Z " fill="#D9D3D0"/><text fill="#D9D3D0" font-family="Verdana" font-size="14" lengthAdjust="spacing" textLength="55" x="825.5" y="316.4561">metrics</text><line style="stroke:#D9D3D0;stroke-width:1.0;" x1="801.5" x2="882.5" y1="325.6094" y2="325.6094"/><line style="stroke:#D9D3D0;stroke-width:1.0;" x1="801.5" x2="882.5" y1="333.6094" y2="333.6094"/></g><!--class news--><g id="elem_news"><rect codeLine="23" fill="#003153" height="44" id="news" rx="2.5" ry="2.5" style="stroke:#D9D3D0;stroke-width:1.0;" width="64" x="701" y="297.6094"/><ellipse cx="714" cy="311.6094" fill="#003153" rx="9" ry="9" style="stroke:#D9D3D0;stroke-width:1.0;"/><path d="M716.3438,307.2813 C715.4063,306.8438 714.8125,306.7031 713.9375,306.7031 C711.3125,306.7031 709.3125,308.7813 709.3125,311.5 L709.3125,312.625 C709.3125,315.2031 711.4219,317.0938 714.3125,317.0938 C715.5313,317.0938 716.6875,316.7969 717.4375,316.25 C718.0156,315.8438 718.3438,315.3906 718.3438,315 C718.3438,314.5469 717.9531,314.1563 717.4844,314.1563 C717.2656,314.1563 717.0625,314.2344 716.875,314.4219 C716.4219,314.9063 716.4219,314.9063 716.2344,315 C715.8125,315.2656 715.125,315.3906 714.3594,315.3906 C712.3125,315.3906 711.0156,314.2969 711.0156,312.5938 L711.0156,311.5 C711.0156,309.7188 712.2656,308.4063 714,308.4063 C714.5781,308.4063 715.1875,308.5625 715.6563,308.8125 C716.1406,309.0938 716.3125,309.3125 716.4063,309.7188 C716.4688,310.125 716.5,310.25 716.6406,310.375 C716.7813,310.5156 717.0156,310.625 717.2344,310.625 C717.5,310.625 717.7656,310.4844 717.9375,310.2656 C718.0469,310.1094 718.0781,309.9219 718.0781,309.5 L718.0781,308.0781 C718.0781,307.6406 718.0625,307.5156 717.9688,307.3594 C717.8125,307.0938 717.5313,306.9531 717.2344,306.9531 C716.9375,306.9531 716.7344,307.0469 716.5156,307.3594 L716.3438,307.2813 Z " fill="#D9D3D0"/><text fill="#D9D3D0" font-family="Verdana" font-size="14" lengthAdjust="spacing" textLength="36" x="726" y="316.4561">news</text><line style="stroke:#D9D3D0;stroke-width:1.0;" x1="702" x2="764" y1="325.6094" y2="325.6094"/><line style="stroke:#D9D3D0;stroke-width:1.0;" x1="702" x2="764" y1="333.6094" y2="333.6094"/></g><!--class user--><g id="elem_user"><rect codeLine="24" fill="#003153" height="44" id="user" rx="2.5" ry="2.5" style="stroke:#D9D3D0;stroke-width:1.0;" width="58" x="608" y="297.6094"/><ellipse cx="621" cy="311.6094" fill="#003153" rx="9" ry="9" style="stroke:#D9D3D0;stroke-width:1.0;"/><path d="M623.3438,307.2813 C622.4063,306.8438 621.8125,306.7031 620.9375,306.7031 C618.3125,306.7031 616.3125,308.7813 616.3125,311.5 L616.3125,312.625 C616.3125,315.2031 618.4219,317.0938 621.3125,317.0938 C622.5313,317.0938 623.6875,316.7969 624.4375,316.25 C625.0156,315.8438 625.3438,315.3906 625.3438,315 C625.3438,314.5469 624.9531,314.1563 624.4844,314.1563 C624.2656,314.1563 624.0625,314.2344 623.875,314.4219 C623.4219,314.9063 623.4219,314.9063 623.2344,315 C622.8125,315.2656 622.125,315.3906 621.3594,315.3906 C619.3125,315.3906 618.0156,314.2969 618.0156,312.5938 L618.0156,311.5 C618.0156,309.7188 619.2656,308.4063 621,308.4063 C621.5781,308.4063 622.1875,308.5625 622.6563,308.8125 C623.1406,309.0938 623.3125,309.3125 623.4063,309.7188 C623.4688,310.125 623.5,310.25 623.6406,310.375 C623.7813,310.5156 624.0156,310.625 624.2344,310.625 C624.5,310.625 624.7656,310.4844 624.9375,310.2656 C625.0469,310.1094 625.0781,309.9219 625.0781,309.5 L625.0781,308.0781 C625.0781,307.6406 625.0625,307.5156 624.9688,307.3594 C624.8125,307.0938 624.5313,306.9531 624.2344,306.9531 C623.9375,306.9531 623.7344,307.0469 623.5156,307.3594 L623.3438,307.2813 Z " fill="#D9D3D0"/><text fill="#D9D3D0" font-family="Verdana" font-size="14" lengthAdjust="spacing" textLength="30" x="633" y="316.4561">user</text><line style="stroke:#D9D3D0;stroke-width:1.0;" x1="609" x2="665" y1="325.6094" y2="325.6094"/><line style="stroke:#D9D3D0;stroke-width:1.0;" x1="609" x2="665" y1="333.6094" y2="333.6094"/></g><!--class strategy--><g id="elem_strategy"><rect codeLine="33" fill="#003153" height="44" id="strategy" rx="2.5" ry="2.5" style="stroke:#D9D3D0;stroke-width:1.0;" width="89" x="905.5" y="416.6094"/><ellipse cx="918.5" cy="430.6094" fill="#003153" rx="9" ry="9" style="stroke:#D9D3D0;stroke-width:1.0;"/><path d="M920.8438,426.2813 C919.9063,425.8438 919.3125,425.7031 918.4375,425.7031 C915.8125,425.7031 913.8125,427.7813 913.8125,430.5 L913.8125,431.625 C913.8125,434.2031 915.9219,436.0938 918.8125,436.0938 C920.0313,436.0938 921.1875,435.7969 921.9375,435.25 C922.5156,434.8438 922.8438,434.3906 922.8438,434 C922.8438,433.5469 922.4531,433.1563 921.9844,433.1563 C921.7656,433.1563 921.5625,433.2344 921.375,433.4219 C920.9219,433.9063 920.9219,433.9063 920.7344,434 C920.3125,434.2656 919.625,434.3906 918.8594,434.3906 C916.8125,434.3906 915.5156,433.2969 915.5156,431.5938 L915.5156,430.5 C915.5156,428.7188 916.7656,427.4063 918.5,427.4063 C919.0781,427.4063 919.6875,427.5625 920.1563,427.8125 C920.6406,428.0938 920.8125,428.3125 920.9063,428.7188 C920.9688,429.125 921,429.25 921.1406,429.375 C921.2813,429.5156 921.5156,429.625 921.7344,429.625 C922,429.625 922.2656,429.4844 922.4375,429.2656 C922.5469,429.1094 922.5781,428.9219 922.5781,428.5 L922.5781,427.0781 C922.5781,426.6406 922.5625,426.5156 922.4688,426.3594 C922.3125,426.0938 922.0313,425.9531 921.7344,425.9531 C921.4375,425.9531 921.2344,426.0469 921.0156,426.3594 L920.8438,426.2813 Z " fill="#D9D3D0"/><text fill="#D9D3D0" font-family="Verdana" font-size="14" lengthAdjust="spacing" textLength="61" x="930.5" y="435.4561">strategy</text><line style="stroke:#D9D3D0;stroke-width:1.0;" x1="906.5" x2="993.5" y1="444.6094" y2="444.6094"/><line style="stroke:#D9D3D0;stroke-width:1.0;" x1="906.5" x2="993.5" y1="452.6094" y2="452.6094"/></g><!--class article--><g id="elem_article"><rect codeLine="38" fill="#003153" height="44" id="article" rx="2.5" ry="2.5" style="stroke:#D9D3D0;stroke-width:1.0;" width="74" x="286" y="135.6094"/><ellipse cx="299" cy="149.6094" fill="#003153" rx="9" ry="9" style="stroke:#D9D3D0;stroke-width:1.0;"/><path d="M301.3438,145.2813 C300.4063,144.8438 299.8125,144.7031 298.9375,144.7031 C296.3125,144.7031 294.3125,146.7813 294.3125,149.5 L294.3125,150.625 C294.3125,153.2031 296.4219,155.0938 299.3125,155.0938 C300.5313,155.0938 301.6875,154.7969 302.4375,154.25 C303.0156,153.8438 303.3438,153.3906 303.3438,153 C303.3438,152.5469 302.9531,152.1563 302.4844,152.1563 C302.2656,152.1563 302.0625,152.2344 301.875,152.4219 C301.4219,152.9063 301.4219,152.9063 301.2344,153 C300.8125,153.2656 300.125,153.3906 299.3594,153.3906 C297.3125,153.3906 296.0156,152.2969 296.0156,150.5938 L296.0156,149.5 C296.0156,147.7188 297.2656,146.4063 299,146.4063 C299.5781,146.4063 300.1875,146.5625 300.6563,146.8125 C301.1406,147.0938 301.3125,147.3125 301.4063,147.7188 C301.4688,148.125 301.5,148.25 301.6406,148.375 C301.7813,148.5156 302.0156,148.625 302.2344,148.625 C302.5,148.625 302.7656,148.4844 302.9375,148.2656 C303.0469,148.1094 303.0781,147.9219 303.0781,147.5 L303.0781,146.0781 C303.0781,145.6406 303.0625,145.5156 302.9688,145.3594 C302.8125,145.0938 302.5313,144.9531 302.2344,144.9531 C301.9375,144.9531 301.7344,145.0469 301.5156,145.3594 L301.3438,145.2813 Z " fill="#D9D3D0"/><text fill="#D9D3D0" font-family="Verdana" font-size="14" lengthAdjust="spacing" textLength="46" x="311" y="154.4561">article</text><line style="stroke:#D9D3D0;stroke-width:1.0;" x1="287" x2="359" y1="163.6094" y2="163.6094"/><line style="stroke:#D9D3D0;stroke-width:1.0;" x1="287" x2="359" y1="171.6094" y2="171.6094"/></g><!--class company--><g id="elem_company"><rect codeLine="39" fill="#003153" height="44" id="company" rx="2.5" ry="2.5" style="stroke:#D9D3D0;stroke-width:1.0;" width="94" x="157" y="135.6094"/><ellipse cx="170" cy="149.6094" fill="#003153" rx="9" ry="9" style="stroke:#D9D3D0;stroke-width:1.0;"/><path d="M172.3438,145.2813 C171.4063,144.8438 170.8125,144.7031 169.9375,144.7031 C167.3125,144.7031 165.3125,146.7813 165.3125,149.5 L165.3125,150.625 C165.3125,153.2031 167.4219,155.0938 170.3125,155.0938 C171.5313,155.0938 172.6875,154.7969 173.4375,154.25 C174.0156,153.8438 174.3438,153.3906 174.3438,153 C174.3438,152.5469 173.9531,152.1563 173.4844,152.1563 C173.2656,152.1563 173.0625,152.2344 172.875,152.4219 C172.4219,152.9063 172.4219,152.9063 172.2344,153 C171.8125,153.2656 171.125,153.3906 170.3594,153.3906 C168.3125,153.3906 167.0156,152.2969 167.0156,150.5938 L167.0156,149.5 C167.0156,147.7188 168.2656,146.4063 170,146.4063 C170.5781,146.4063 171.1875,146.5625 171.6563,146.8125 C172.1406,147.0938 172.3125,147.3125 172.4063,147.7188 C172.4688,148.125 172.5,148.25 172.6406,148.375 C172.7813,148.5156 173.0156,148.625 173.2344,148.625 C173.5,148.625 173.7656,148.4844 173.9375,148.2656 C174.0469,148.1094 174.0781,147.9219 174.0781,147.5 L174.0781,146.0781 C174.0781,145.6406 174.0625,145.5156 173.9688,145.3594 C173.8125,145.0938 173.5313,144.9531 173.2344,144.9531 C172.9375,144.9531 172.7344,145.0469 172.5156,145.3594 L172.3438,145.2813 Z " fill="#D9D3D0"/><text fill="#D9D3D0" font-family="Verdana" font-size="14" lengthAdjust="spacing" textLength="66" x="182" y="154.4561">company</text><line style="stroke:#D9D3D0;stroke-width:1.0;" x1="158" x2="250" y1="163.6094" y2="163.6094"/><line style="stroke:#D9D3D0;stroke-width:1.0;" x1="158" x2="250" y1="171.6094" y2="171.6094"/></g><!--class news--><g id="elem_news"><rect codeLine="40" fill="#003153" height="44" id="news" rx="2.5" ry="2.5" style="stroke:#D9D3D0;stroke-width:1.0;" width="64" x="496" y="135.6094"/><ellipse cx="509" cy="149.6094" fill="#003153" rx="9" ry="9" style="stroke:#D9D3D0;stroke-width:1.0;"/><path d="M511.3438,145.2813 C510.4063,144.8438 509.8125,144.7031 508.9375,144.7031 C506.3125,144.7031 504.3125,146.7813 504.3125,149.5 L504.3125,150.625 C504.3125,153.2031 506.4219,155.0938 509.3125,155.0938 C510.5313,155.0938 511.6875,154.7969 512.4375,154.25 C513.0156,153.8438 513.3438,153.3906 513.3438,153 C513.3438,152.5469 512.9531,152.1563 512.4844,152.1563 C512.2656,152.1563 512.0625,152.2344 511.875,152.4219 C511.4219,152.9063 511.4219,152.9063 511.2344,153 C510.8125,153.2656 510.125,153.3906 509.3594,153.3906 C507.3125,153.3906 506.0156,152.2969 506.0156,150.5938 L506.0156,149.5 C506.0156,147.7188 507.2656,146.4063 509,146.4063 C509.5781,146.4063 510.1875,146.5625 510.6563,146.8125 C511.1406,147.0938 511.3125,147.3125 511.4063,147.7188 C511.4688,148.125 511.5,148.25 511.6406,148.375 C511.7813,148.5156 512.0156,148.625 512.2344,148.625 C512.5,148.625 512.7656,148.4844 512.9375,148.2656 C513.0469,148.1094 513.0781,147.9219 513.0781,147.5 L513.0781,146.0781 C513.0781,145.6406 513.0625,145.5156 512.9688,145.3594 C512.8125,145.0938 512.5313,144.9531 512.2344,144.9531 C511.9375,144.9531 511.7344,145.0469 511.5156,145.3594 L511.3438,145.2813 Z " fill="#D9D3D0"/><text fill="#D9D3D0" font-family="Verdana" font-size="14" lengthAdjust="spacing" textLength="36" x="521" y="154.4561">news</text><line style="stroke:#D9D3D0;stroke-width:1.0;" x1="497" x2="559" y1="163.6094" y2="163.6094"/><line style="stroke:#D9D3D0;stroke-width:1.0;" x1="497" x2="559" y1="171.6094" y2="171.6094"/></g><!--class strategy--><g id="elem_strategy"><rect codeLine="41" fill="#003153" height="44" id="strategy" rx="2.5" ry="2.5" style="stroke:#D9D3D0;stroke-width:1.0;" width="89" x="595.5" y="135.6094"/><ellipse cx="608.5" cy="149.6094" fill="#003153" rx="9" ry="9" style="stroke:#D9D3D0;stroke-width:1.0;"/><path d="M610.8438,145.2813 C609.9063,144.8438 609.3125,144.7031 608.4375,144.7031 C605.8125,144.7031 603.8125,146.7813 603.8125,149.5 L603.8125,150.625 C603.8125,153.2031 605.9219,155.0938 608.8125,155.0938 C610.0313,155.0938 611.1875,154.7969 611.9375,154.25 C612.5156,153.8438 612.8438,153.3906 612.8438,153 C612.8438,152.5469 612.4531,152.1563 611.9844,152.1563 C611.7656,152.1563 611.5625,152.2344 611.375,152.4219 C610.9219,152.9063 610.9219,152.9063 610.7344,153 C610.3125,153.2656 609.625,153.3906 608.8594,153.3906 C606.8125,153.3906 605.5156,152.2969 605.5156,150.5938 L605.5156,149.5 C605.5156,147.7188 606.7656,146.4063 608.5,146.4063 C609.0781,146.4063 609.6875,146.5625 610.1563,146.8125 C610.6406,147.0938 610.8125,147.3125 610.9063,147.7188 C610.9688,148.125 611,148.25 611.1406,148.375 C611.2813,148.5156 611.5156,148.625 611.7344,148.625 C612,148.625 612.2656,148.4844 612.4375,148.2656 C612.5469,148.1094 612.5781,147.9219 612.5781,147.5 L612.5781,146.0781 C612.5781,145.6406 612.5625,145.5156 612.4688,145.3594 C612.3125,145.0938 612.0313,144.9531 611.7344,144.9531 C611.4375,144.9531 611.2344,145.0469 611.0156,145.3594 L610.8438,145.2813 Z " fill="#D9D3D0"/><text fill="#D9D3D0" font-family="Verdana" font-size="14" lengthAdjust="spacing" textLength="61" x="620.5" y="154.4561">strategy</text><line style="stroke:#D9D3D0;stroke-width:1.0;" x1="596.5" x2="683.5" y1="163.6094" y2="163.6094"/><line style="stroke:#D9D3D0;stroke-width:1.0;" x1="596.5" x2="683.5" y1="171.6094" y2="171.6094"/></g><!--class users--><g id="elem_users"><rect codeLine="42" fill="#003153" height="44" id="users" rx="2.5" ry="2.5" style="stroke:#D9D3D0;stroke-width:1.0;" width="65" x="395.5" y="135.6094"/><ellipse cx="408.5" cy="149.6094" fill="#003153" rx="9" ry="9" style="stroke:#D9D3D0;stroke-width:1.0;"/><path d="M410.8438,145.2813 C409.9063,144.8438 409.3125,144.7031 408.4375,144.7031 C405.8125,144.7031 403.8125,146.7813 403.8125,149.5 L403.8125,150.625 C403.8125,153.2031 405.9219,155.0938 408.8125,155.0938 C410.0313,155.0938 411.1875,154.7969 411.9375,154.25 C412.5156,153.8438 412.8438,153.3906 412.8438,153 C412.8438,152.5469 412.4531,152.1563 411.9844,152.1563 C411.7656,152.1563 411.5625,152.2344 411.375,152.4219 C410.9219,152.9063 410.9219,152.9063 410.7344,153 C410.3125,153.2656 409.625,153.3906 408.8594,153.3906 C406.8125,153.3906 405.5156,152.2969 405.5156,150.5938 L405.5156,149.5 C405.5156,147.7188 406.7656,146.4063 408.5,146.4063 C409.0781,146.4063 409.6875,146.5625 410.1563,146.8125 C410.6406,147.0938 410.8125,147.3125 410.9063,147.7188 C410.9688,148.125 411,148.25 411.1406,148.375 C411.2813,148.5156 411.5156,148.625 411.7344,148.625 C412,148.625 412.2656,148.4844 412.4375,148.2656 C412.5469,148.1094 412.5781,147.9219 412.5781,147.5 L412.5781,146.0781 C412.5781,145.6406 412.5625,145.5156 412.4688,145.3594 C412.3125,145.0938 412.0313,144.9531 411.7344,144.9531 C411.4375,144.9531 411.2344,145.0469 411.0156,145.3594 L410.8438,145.2813 Z " fill="#D9D3D0"/><text fill="#D9D3D0" font-family="Verdana" font-size="14" lengthAdjust="spacing" textLength="37" x="420.5" y="154.4561">users</text><line style="stroke:#D9D3D0;stroke-width:1.0;" x1="396.5" x2="459.5" y1="163.6094" y2="163.6094"/><line style="stroke:#D9D3D0;stroke-width:1.0;" x1="396.5" x2="459.5" y1="171.6094" y2="171.6094"/></g><!--link article to article--><g id="link_article_article"><path codeLine="15" d="M323,341.7974 C323,363.0014 323,389.4304 323,410.5794 " fill="none" id="article-to-article" style="stroke:#D9D3D0;stroke-width:1.0;"/><polygon fill="#D9D3D0" points="323,416.5794,327,407.5794,323,411.5794,319,407.5794,323,416.5794" style="stroke:#D9D3D0;stroke-width:1.0;"/></g><!--link company to company--><g id="link_company_company"><path codeLine="16" d="M204,341.7974 C204,363.0014 204,389.4304 204,410.5794 " fill="none" id="company-to-company" style="stroke:#D9D3D0;stroke-width:1.0;"/><polygon fill="#D9D3D0" points="204,416.5794,208,407.5794,204,411.5794,200,407.5794,204,416.5794" style="stroke:#D9D3D0;stroke-width:1.0;"/></g><!--link news to news--><g id="link_news_news"><path codeLine="17" d="M521.449,341.7974 C522.899,363.0014 524.7067,389.4444 526.1527,410.5934 " fill="none" id="news-to-news" style="stroke:#D9D3D0;stroke-width:1.0;"/><polygon fill="#D9D3D0" points="526.562,416.5794,529.9388,407.3275,526.2209,411.591,521.9574,407.8732,526.562,416.5794" style="stroke:#D9D3D0;stroke-width:1.0;"/></g><!--link user to users--><g id="link_user_users"><path codeLine="18" d="M424.724,341.7974 C425.449,363.0014 426.353,389.4339 427.076,410.5829 " fill="none" id="user-to-users" style="stroke:#D9D3D0;stroke-width:1.0;"/><polygon fill="#D9D3D0" points="427.281,416.5794,430.9712,407.448,427.1102,411.5823,422.9758,407.7213,427.281,416.5794" style="stroke:#D9D3D0;stroke-width:1.0;"/></g><!--link crypto to strategy--><g id="link_crypto_strategy"><path codeLine="27" d="M955.732,341.7974 C954.464,363.0014 952.8825,389.4411 951.6165,410.5901 " fill="none" id="crypto-to-strategy" style="stroke:#D9D3D0;stroke-width:1.0;"/><polygon fill="#D9D3D0" points="951.258,416.5794,955.7886,407.8345,951.5568,411.5883,947.8029,407.3564,951.258,416.5794" style="stroke:#D9D3D0;stroke-width:1.0;"/></g><!--link metrics to strategy--><g id="link_metrics_strategy"><path codeLine="28" d="M861.558,341.7974 C881.131,363.0014 906.9963,391.0215 926.5183,412.1705 " fill="none" id="metrics-to-strategy" style="stroke:#D9D3D0;stroke-width:1.0;"/><polygon fill="#D9D3D0" points="930.588,416.5794,927.4227,407.253,927.1966,412.9053,921.5443,412.6792,930.588,416.5794" style="stroke:#D9D3D0;stroke-width:1.0;"/></g><!--link news to news--><g id="link_news_news"><path codeLine="29" d="M712.74,341.8624 C704.342,349.9404 694.189,358.8214 684,365.6094 C644.156,392.1514 598.5637,411.5846 565.9067,423.9776 " fill="none" id="news-to-news-1" style="stroke:#D9D3D0;stroke-width:1.0;"/><polygon fill="#D9D3D0" points="560.297,426.1064,570.1307,426.6529,564.9717,424.3324,567.2923,419.1734,560.297,426.1064" style="stroke:#D9D3D0;stroke-width:1.0;"/></g><!--link user to users--><g id="link_user_users"><path codeLine="30" d="M611.407,341.6284 C599.044,350.6014 583.542,360.2294 568,365.6094 C530.052,378.7464 513.278,354.4224 478,373.6094 C460.411,383.1754 449.9531,396.6254 441.4531,411.3344 " fill="none" id="user-to-users-1" style="stroke:#D9D3D0;stroke-width:1.0;"/><polygon fill="#D9D3D0" points="438.451,416.5294,446.4174,410.7383,440.9527,412.2002,439.4908,406.7356,438.451,416.5294" style="stroke:#D9D3D0;stroke-width:1.0;"/></g><!--link article to article--><g id="link_article_article"><path codeLine="45" d="M323,179.8564 C323,210.5434 323,260.9364 323,291.5294 " fill="none" id="article-to-article-1" style="stroke:#D9D3D0;stroke-width:1.0;"/><polygon fill="#D9D3D0" points="323,297.5294,327,288.5294,323,292.5294,319,288.5294,323,297.5294" style="stroke:#D9D3D0;stroke-width:1.0;"/></g><!--link company to company--><g id="link_company_company"><path codeLine="46" d="M204,179.8564 C204,210.5434 204,260.9364 204,291.5294 " fill="none" id="company-to-company-1" style="stroke:#D9D3D0;stroke-width:1.0;"/><polygon fill="#D9D3D0" points="204,297.5294,208,288.5294,204,292.5294,200,288.5294,204,297.5294" style="stroke:#D9D3D0;stroke-width:1.0;"/></g><!--link news to news--><g id="link_news_news"><path codeLine="47" d="M526.938,179.8564 C525.403,210.5434 522.8837,260.9439 521.3537,291.5369 " fill="none" id="news-to-news-2" style="stroke:#D9D3D0;stroke-width:1.0;"/><polygon fill="#D9D3D0" points="521.054,297.5294,525.4985,288.7404,521.3037,292.5356,517.5085,288.3408,521.054,297.5294" style="stroke:#D9D3D0;stroke-width:1.0;"/></g><!--link strategy to strategy--><g id="link_strategy_strategy"><path codeLine="48" d="M684.701,158.0404 C773.944,157.9624 969.223,163.4394 1011,211.6094 C1055.84,263.3164 1034.56,301.3484 1011,365.6094 C1003.78,385.2984 992.8321,399.115 979.3871,412.192 " fill="none" id="strategy-to-strategy" style="stroke:#D9D3D0;stroke-width:1.0;"/><polygon fill="#D9D3D0" points="975.086,416.3754,984.3266,412.9677,978.6702,412.8892,978.7487,407.2329,975.086,416.3754" style="stroke:#D9D3D0;stroke-width:1.0;"/></g><!--link users to user--><g id="link_users_user"><path codeLine="49" d="M427.469,179.8564 C426.702,210.5434 425.442,260.9382 424.677,291.5312 " fill="none" id="users-to-user" style="stroke:#D9D3D0;stroke-width:1.0;"/><polygon fill="#D9D3D0" points="424.527,297.5294,428.7507,288.6322,424.652,292.5309,420.7532,288.4322,424.527,297.5294" style="stroke:#D9D3D0;stroke-width:1.0;"/></g><!--link main to config--><g id="link_main_config"><path codeLine="52" d="M64,179.8564 C64,210.5434 64,260.9364 64,291.5294 " fill="none" id="main-to-config" style="stroke:#D9D3D0;stroke-width:1.0;"/><polygon fill="#D9D3D0" points="64,297.5294,68,288.5294,64,292.5294,60,288.5294,64,297.5294" style="stroke:#D9D3D0;stroke-width:1.0;"/></g><!--SRC=[dLDRRiCW4Fpd59J_-0YLUXH2jWwg3GZMhQmgTmyRNfksagN-UNTcPn-3qU82Khr5SxK81hS8IhpW5LQGvsM34Ar34RJvq7FcwH2K_1PcqIb9PRnxjxDguQgjKsAGZSzYcTqJ4O9dvJgYDGke8RS6xVOUE_XAFTWIH2LkGf38L4lbwVGgLt-19RLKmQiKnskgu2JDGOeBGdquGd5YI-Nmqnf8_0nn3-Z76G2ZDUbWZQOpbUf7IupwOjqyfVo1CE-3L3KFM7zkrT6ZpQekMwnre85lZ1dzXhdslrOEMNQKLCmjoa_-qZEQkEkTnLqUh6vqPVMh34gnk-9jdC7vTU56VGpwGujoD3gz_WhHNt47]--></g></svg>