<?xml version="1.0" encoding="us-ascii" standalone="no"?><svg xmlns="http://www.w3.org/2000/svg" xmlns:xlink="http://www.w3.org/1999/xlink" contentStyleType="text/css" height="497px" preserveAspectRatio="none" style="width:737px;height:497px;background:#003153;" version="1.1" viewBox="0 0 737 497" width="737px" zoomAndPan="magnify"><defs/><g><rect fill="#003153" height="497" style="stroke:none;stroke-width:1.0;" width="737" x="0" y="0"/><text fill="#D9D3D0" font-family="Verdana" font-size="22" font-weight="bold" lengthAdjust="spacing" textLength="296" x="219" y="35.4209">Article Processing Flow</text><ellipse cx="175" cy="61.6094" fill="#003153" rx="10" ry="10" style="stroke:#D9D3D0;stroke-width:1.0;"/><path d="M288,96.0273 L288,104.5938 L268,108.5938 L288,112.5938 L288,121.1602 A0,0 0 0 0 288,121.1602 L515,121.1602 A0,0 0 0 0 515,121.1602 L515,106.0273 L505,96.0273 L288,96.0273 A0,0 0 0 0 288,96.0273 " fill="#003153" style="stroke:#D9D3D0;stroke-width:1.0;"/><path d="M505,96.0273 L505,106.0273 L515,106.0273 L505,96.0273 " fill="#003153" style="stroke:#D9D3D0;stroke-width:1.0;"/><text fill="#D9D3D0" font-family="Verdana" font-size="13" lengthAdjust="spacing" textLength="206" x="294" y="113.0942">Obtain sentiment of the content</text><rect fill="#003153" height="33.9688" rx="12.5" ry="12.5" style="stroke:#D9D3D0;stroke-width:1.0;" width="186" x="82" y="91.6094"/><text fill="#D9D3D0" font-family="Verdana" font-size="12" lengthAdjust="spacing" textLength="166" x="92" y="112.748">analyze_sentiment(content)</text><path d="M308.5,149.9961 L308.5,158.5625 L288.5,162.5625 L308.5,166.5625 L308.5,175.1289 A0,0 0 0 0 308.5,175.1289 L637.5,175.1289 A0,0 0 0 0 637.5,175.1289 L637.5,159.9961 L627.5,149.9961 L308.5,149.9961 A0,0 0 0 0 308.5,149.9961 " fill="#003153" style="stroke:#D9D3D0;stroke-width:1.0;"/><path d="M627.5,149.9961 L627.5,159.9961 L637.5,159.9961 L627.5,149.9961 " fill="#003153" style="stroke:#D9D3D0;stroke-width:1.0;"/><text fill="#D9D3D0" font-family="Verdana" font-size="13" lengthAdjust="spacing" textLength="308" x="314.5" y="167.063">Determine the sentiment with the highest score</text><rect fill="#003153" height="33.9688" rx="12.5" ry="12.5" style="stroke:#D9D3D0;stroke-width:1.0;" width="227" x="61.5" y="145.5781"/><text fill="#D9D3D0" font-family="Verdana" font-size="12" lengthAdjust="spacing" textLength="207" x="71.5" y="166.7168">most_sentiment = max(sentiment)</text><path d="M364,203.9648 L364,212.5313 L344,216.5313 L364,220.5313 L364,229.0977 A0,0 0 0 0 364,229.0977 L730,229.0977 A0,0 0 0 0 730,229.0977 L730,213.9648 L720,203.9648 L364,203.9648 A0,0 0 0 0 364,203.9648 " fill="#003153" style="stroke:#D9D3D0;stroke-width:1.0;"/><path d="M720,203.9648 L720,213.9648 L730,213.9648 L720,203.9648 " fill="#003153" style="stroke:#D9D3D0;stroke-width:1.0;"/><text fill="#D9D3D0" font-family="Verdana" font-size="13" lengthAdjust="spacing" textLength="345" x="370" y="221.0317">Determine the score of the most dominant sentiment</text><rect fill="#003153" height="33.9688" rx="12.5" ry="12.5" style="stroke:#D9D3D0;stroke-width:1.0;" width="338" x="6" y="199.5469"/><text fill="#D9D3D0" font-family="Verdana" font-size="12" lengthAdjust="spacing" textLength="318" x="16" y="220.6855">most_sentiment_score = sentiment[most_sentiment]</text><path d="M272,257.9336 L272,266.5 L252,270.5 L272,274.5 L272,283.0664 A0,0 0 0 0 272,283.0664 L475,283.0664 A0,0 0 0 0 475,283.0664 L475,267.9336 L465,257.9336 L272,257.9336 A0,0 0 0 0 272,257.9336 " fill="#003153" style="stroke:#D9D3D0;stroke-width:1.0;"/><path d="M465,257.9336 L465,267.9336 L475,267.9336 L465,257.9336 " fill="#003153" style="stroke:#D9D3D0;stroke-width:1.0;"/><text fill="#D9D3D0" font-family="Verdana" font-size="13" lengthAdjust="spacing" textLength="182" x="278" y="275.0005">Detect tickers in the content</text><rect fill="#003153" height="33.9688" rx="12.5" ry="12.5" style="stroke:#D9D3D0;stroke-width:1.0;" width="154" x="98" y="253.5156"/><text fill="#D9D3D0" font-family="Verdana" font-size="12" lengthAdjust="spacing" textLength="134" x="108" y="274.6543">detect_ticker(content)</text><path d="M273,311.9023 L273,320.4688 L253,324.4688 L273,328.4688 L273,337.0352 A0,0 0 0 0 273,337.0352 L479,337.0352 A0,0 0 0 0 479,337.0352 L479,321.9023 L469,311.9023 L273,311.9023 A0,0 0 0 0 273,311.9023 " fill="#003153" style="stroke:#D9D3D0;stroke-width:1.0;"/><path d="M469,311.9023 L469,321.9023 L479,321.9023 L469,311.9023 " fill="#003153" style="stroke:#D9D3D0;stroke-width:1.0;"/><text fill="#D9D3D0" font-family="Verdana" font-size="13" lengthAdjust="spacing" textLength="185" x="279" y="328.9692">Classify topics in the content</text><rect fill="#003153" height="33.9688" rx="12.5" ry="12.5" style="stroke:#D9D3D0;stroke-width:1.0;" width="156" x="97" y="307.4844"/><text fill="#D9D3D0" font-family="Verdana" font-size="12" lengthAdjust="spacing" textLength="136" x="107" y="328.623">classify_topic(content)</text><path d="M280,365.8711 L280,374.4375 L260,378.4375 L280,382.4375 L280,391.0039 A0,0 0 0 0 280,391.0039 L452,391.0039 A0,0 0 0 0 452,391.0039 L452,375.8711 L442,365.8711 L280,365.8711 A0,0 0 0 0 280,365.8711 " fill="#003153" style="stroke:#D9D3D0;stroke-width:1.0;"/><path d="M442,365.8711 L442,375.8711 L452,375.8711 L442,365.8711 " fill="#003153" style="stroke:#D9D3D0;stroke-width:1.0;"/><text fill="#D9D3D0" font-family="Verdana" font-size="13" lengthAdjust="spacing" textLength="151" x="286" y="382.938">Summarize the content</text><rect fill="#003153" height="33.9688" rx="12.5" ry="12.5" style="stroke:#D9D3D0;stroke-width:1.0;" width="170" x="90" y="361.4531"/><text fill="#D9D3D0" font-family="Verdana" font-size="12" lengthAdjust="spacing" textLength="150" x="100" y="382.5918">summarize_text(content)</text><path d="M273,419.8398 L273,428.4063 L253,432.4063 L273,436.4063 L273,444.9727 A0,0 0 0 0 273,444.9727 L650,444.9727 A0,0 0 0 0 650,444.9727 L650,429.8398 L640,419.8398 L273,419.8398 A0,0 0 0 0 273,419.8398 " fill="#003153" style="stroke:#D9D3D0;stroke-width:1.0;"/><path d="M640,419.8398 L640,429.8398 L650,429.8398 L640,419.8398 " fill="#003153" style="stroke:#D9D3D0;stroke-width:1.0;"/><text fill="#D9D3D0" font-family="Verdana" font-size="13" lengthAdjust="spacing" textLength="356" x="279" y="436.9067">Create an instance of the Article with the obtained data</text><rect fill="#003153" height="33.9688" rx="12.5" ry="12.5" style="stroke:#D9D3D0;stroke-width:1.0;" width="156" x="97" y="415.4219"/><text fill="#D9D3D0" font-family="Verdana" font-size="12" lengthAdjust="spacing" textLength="136" x="107" y="436.5605">Create Article instance</text><ellipse cx="175" cy="480.3906" fill="none" rx="11" ry="11" style="stroke:#D9D3D0;stroke-width:1.0;"/><ellipse cx="175" cy="480.3906" fill="#003153" rx="6" ry="6" style="stroke:#D9D3D0;stroke-width:1.0;"/><line style="stroke:#D9D3D0;stroke-width:1.0;" x1="175" x2="175" y1="71.6094" y2="91.6094"/><polygon fill="#D9D3D0" points="171,81.6094,175,91.6094,179,81.6094,175,85.6094" style="stroke:#D9D3D0;stroke-width:1.0;"/><line style="stroke:#D9D3D0;stroke-width:1.0;" x1="175" x2="175" y1="125.5781" y2="145.5781"/><polygon fill="#D9D3D0" points="171,135.5781,175,145.5781,179,135.5781,175,139.5781" style="stroke:#D9D3D0;stroke-width:1.0;"/><line style="stroke:#D9D3D0;stroke-width:1.0;" x1="175" x2="175" y1="179.5469" y2="199.5469"/><polygon fill="#D9D3D0" points="171,189.5469,175,199.5469,179,189.5469,175,193.5469" style="stroke:#D9D3D0;stroke-width:1.0;"/><line style="stroke:#D9D3D0;stroke-width:1.0;" x1="175" x2="175" y1="233.5156" y2="253.5156"/><polygon fill="#D9D3D0" points="171,243.5156,175,253.5156,179,243.5156,175,247.5156" style="stroke:#D9D3D0;stroke-width:1.0;"/><line style="stroke:#D9D3D0;stroke-width:1.0;" x1="175" x2="175" y1="287.4844" y2="307.4844"/><polygon fill="#D9D3D0" points="171,297.4844,175,307.4844,179,297.4844,175,301.4844" style="stroke:#D9D3D0;stroke-width:1.0;"/><line style="stroke:#D9D3D0;stroke-width:1.0;" x1="175" x2="175" y1="341.4531" y2="361.4531"/><polygon fill="#D9D3D0" points="171,351.4531,175,361.4531,179,351.4531,175,355.4531" style="stroke:#D9D3D0;stroke-width:1.0;"/><line style="stroke:#D9D3D0;stroke-width:1.0;" x1="175" x2="175" y1="395.4219" y2="415.4219"/><polygon fill="#D9D3D0" points="171,405.4219,175,415.4219,179,405.4219,175,409.4219" style="stroke:#D9D3D0;stroke-width:1.0;"/><line style="stroke:#D9D3D0;stroke-width:1.0;" x1="175" x2="175" y1="449.3906" y2="469.3906"/><polygon fill="#D9D3D0" points="171,459.3906,175,469.3906,179,459.3906,175,463.3906" style="stroke:#D9D3D0;stroke-width:1.0;"/><!--SRC=[VL9DJyCm3BtdLvZR-0j57D0chY1nHAZoKc-rQ98gyRIFNpylQrEeA9TOSTvxZjwpi7G4Br7OQdsFmL9AxFVmseMZUP2M7C6sEr0VsOinIJ1ggT1ZTxvGdSWBEprMDdZH-lXaV122oFjMAdZR2hA70eEm0nM50Mqg5v9CAl0C3a-hSf-fRKWeElQKDIRMaQNDhLPnb0II3P7cudNkweZI-VmD-FftMYOFtx_ne0dwY3g-2AWnZPAirEhdDyK5KpOP0tTC0lNdfoMciXrg2BjpBQ5dko2o7a2GGN-ef8Dp65b34ZejvVCnWcRaTIIKQJ7OQ_3UqkmBTn3wyZxwC_9AC27l0JNGeE1jZK9_1G00]--></g></svg>