<?xml version="1.0" encoding="us-ascii" standalone="no"?><svg xmlns="http://www.w3.org/2000/svg" xmlns:xlink="http://www.w3.org/1999/xlink" contentStyleType="text/css" height="664px" preserveAspectRatio="none" style="width:870px;height:664px;background:#003153;" version="1.1" viewBox="0 0 870 664" width="870px" zoomAndPan="magnify"><defs/><g><rect fill="#003153" height="664" style="stroke:none;stroke-width:1.0;" width="870" x="0" y="0"/><text fill="#D9D3D0" font-family="Verdana" font-size="22" font-weight="bold" lengthAdjust="spacing" textLength="305" x="286" y="35.4209">Fetch Feed Entries Flow</text><rect fill="#003153" height="227.7969" style="stroke:#D9D3D0;stroke-width:1.0;" width="472.5" x="15" y="274.4375"/><line style="stroke:#D9D3D0;stroke-width:1.0;" x1="96" x2="96" y1="128.9063" y2="583.5"/><line style="stroke:#D9D3D0;stroke-width:1.0;" x1="353" x2="353" y1="128.9063" y2="583.5"/><line style="stroke:#D9D3D0;stroke-width:1.0;" x1="462" x2="462" y1="128.9063" y2="583.5"/><line style="stroke:#D9D3D0;stroke-width:1.0;" x1="575" x2="575" y1="128.9063" y2="583.5"/><line style="stroke:#D9D3D0;stroke-width:1.0;" x1="676" x2="676" y1="128.9063" y2="583.5"/><text fill="#D9D3D0" font-family="Verdana" font-size="14" lengthAdjust="spacing" textLength="137" x="25" y="125.6045">fetch_feed_entries</text><ellipse cx="96.5" cy="60.6094" fill="#003153" rx="8" ry="8" style="stroke:#D9D3D0;stroke-width:1.0;"/><path d="M96.5,68.6094 L96.5,95.6094 M83.5,76.6094 L109.5,76.6094 M96.5,95.6094 L83.5,110.6094 M96.5,95.6094 L109.5,110.6094 " fill="none" style="stroke:#D9D3D0;stroke-width:1.0;"/><text fill="#D9D3D0" font-family="Verdana" font-size="14" lengthAdjust="spacing" textLength="137" x="25" y="595.4951">fetch_feed_entries</text><ellipse cx="96.5" cy="607.7969" fill="#003153" rx="8" ry="8" style="stroke:#D9D3D0;stroke-width:1.0;"/><path d="M96.5,615.7969 L96.5,642.7969 M83.5,623.7969 L109.5,623.7969 M96.5,642.7969 L83.5,657.7969 M96.5,642.7969 L109.5,657.7969 " fill="none" style="stroke:#D9D3D0;stroke-width:1.0;"/><rect fill="#003153" height="30.2969" rx="2.5" ry="2.5" style="stroke:#D9D3D0;stroke-width:1.0;" width="55" x="326" y="97.6094"/><text fill="#D9D3D0" font-family="Verdana" font-size="14" lengthAdjust="spacing" textLength="41" x="333" y="117.6045">client</text><rect fill="#003153" height="30.2969" rx="2.5" ry="2.5" style="stroke:#D9D3D0;stroke-width:1.0;" width="55" x="326" y="582.5"/><text fill="#D9D3D0" font-family="Verdana" font-size="14" lengthAdjust="spacing" textLength="41" x="333" y="602.4951">client</text><rect fill="#003153" height="30.2969" rx="2.5" ry="2.5" style="stroke:#D9D3D0;stroke-width:1.0;" width="103" x="411" y="97.6094"/><text fill="#D9D3D0" font-family="Verdana" font-size="14" lengthAdjust="spacing" textLength="89" x="418" y="117.6045">parsed_feed</text><rect fill="#003153" height="30.2969" rx="2.5" ry="2.5" style="stroke:#D9D3D0;stroke-width:1.0;" width="103" x="411" y="582.5"/><text fill="#D9D3D0" font-family="Verdana" font-size="14" lengthAdjust="spacing" textLength="89" x="418" y="602.4951">parsed_feed</text><rect fill="#003153" height="30.2969" rx="2.5" ry="2.5" style="stroke:#D9D3D0;stroke-width:1.0;" width="62" x="544" y="97.6094"/><text fill="#D9D3D0" font-family="Verdana" font-size="14" lengthAdjust="spacing" textLength="48" x="551" y="117.6045">Article</text><rect fill="#003153" height="30.2969" rx="2.5" ry="2.5" style="stroke:#D9D3D0;stroke-width:1.0;" width="62" x="544" y="582.5"/><text fill="#D9D3D0" font-family="Verdana" font-size="14" lengthAdjust="spacing" textLength="48" x="551" y="602.4951">Article</text><rect fill="#003153" height="30.2969" rx="2.5" ry="2.5" style="stroke:#D9D3D0;stroke-width:1.0;" width="80" x="636" y="97.6094"/><text fill="#D9D3D0" font-family="Verdana" font-size="14" lengthAdjust="spacing" textLength="66" x="643" y="117.6045">database</text><rect fill="#003153" height="30.2969" rx="2.5" ry="2.5" style="stroke:#D9D3D0;stroke-width:1.0;" width="80" x="636" y="582.5"/><text fill="#D9D3D0" font-family="Verdana" font-size="14" lengthAdjust="spacing" textLength="66" x="643" y="602.4951">database</text><polygon fill="#D9D3D0" points="341.5,159.0391,351.5,163.0391,341.5,167.0391,345.5,163.0391" style="stroke:#D9D3D0;stroke-width:1.0;"/><line style="stroke:#D9D3D0;stroke-width:1.0;" x1="96.5" x2="347.5" y1="163.0391" y2="163.0391"/><text fill="#D9D3D0" font-family="Verdana" font-size="13" font-weight="bold" lengthAdjust="spacing" textLength="9" x="103.5" y="157.9731">1</text><text fill="#D9D3D0" font-family="Verdana" font-size="13" lengthAdjust="spacing" textLength="94" x="116.5" y="157.9731">get(source.url)</text><path d="M358,143.9063 L358,168.9063 L476,168.9063 L476,153.9063 L466,143.9063 L358,143.9063 " fill="#003153" style="stroke:#D9D3D0;stroke-width:1.0;"/><path d="M466,143.9063 L466,153.9063 L476,153.9063 L466,143.9063 " fill="#003153" style="stroke:#D9D3D0;stroke-width:1.0;"/><text fill="#D9D3D0" font-family="Verdana" font-size="13" lengthAdjust="spacing" textLength="97" x="364" y="160.9731">Fetch RSS feed</text><polygon fill="#D9D3D0" points="107.5,191.1719,97.5,195.1719,107.5,199.1719,103.5,195.1719" style="stroke:#D9D3D0;stroke-width:1.0;"/><line style="stroke:#D9D3D0;stroke-width:1.0;stroke-dasharray:2.0,2.0;" x1="101.5" x2="352.5" y1="195.1719" y2="195.1719"/><text fill="#D9D3D0" font-family="Verdana" font-size="13" font-weight="bold" lengthAdjust="spacing" textLength="9" x="113.5" y="190.106">2</text><text fill="#D9D3D0" font-family="Verdana" font-size="13" lengthAdjust="spacing" textLength="59" x="126.5" y="190.106">response</text><polygon fill="#D9D3D0" points="450.5,223.3047,460.5,227.3047,450.5,231.3047,454.5,227.3047" style="stroke:#D9D3D0;stroke-width:1.0;"/><line style="stroke:#D9D3D0;stroke-width:1.0;" x1="96.5" x2="456.5" y1="227.3047" y2="227.3047"/><text fill="#D9D3D0" font-family="Verdana" font-size="13" font-weight="bold" lengthAdjust="spacing" textLength="8" x="103.5" y="222.2388">3</text><text fill="#D9D3D0" font-family="Verdana" font-size="13" lengthAdjust="spacing" textLength="75" x="115.5" y="222.2388">parse(feed)</text><path d="M467,208.1719 L467,233.1719 L586,233.1719 L586,218.1719 L576,208.1719 L467,208.1719 " fill="#003153" style="stroke:#D9D3D0;stroke-width:1.0;"/><path d="M576,208.1719 L576,218.1719 L586,218.1719 L576,208.1719 " fill="#003153" style="stroke:#D9D3D0;stroke-width:1.0;"/><text fill="#D9D3D0" font-family="Verdana" font-size="13" lengthAdjust="spacing" textLength="98" x="473" y="225.2388">Parse RSS feed</text><polygon fill="#D9D3D0" points="107.5,255.4375,97.5,259.4375,107.5,263.4375,103.5,259.4375" style="stroke:#D9D3D0;stroke-width:1.0;"/><line style="stroke:#D9D3D0;stroke-width:1.0;stroke-dasharray:2.0,2.0;" x1="101.5" x2="461.5" y1="259.4375" y2="259.4375"/><text fill="#D9D3D0" font-family="Verdana" font-size="13" font-weight="bold" lengthAdjust="spacing" textLength="9" x="113.5" y="254.3716">4</text><text fill="#D9D3D0" font-family="Verdana" font-size="13" lengthAdjust="spacing" textLength="44" x="126.5" y="254.3716">entries</text><path d="M15,274.4375 L249,274.4375 L249,281.5703 L239,291.5703 L15,291.5703 L15,274.4375 " fill="#003153" style="stroke:#D9D3D0;stroke-width:1.0;"/><rect fill="none" height="227.7969" style="stroke:#D9D3D0;stroke-width:1.0;" width="472.5" x="15" y="274.4375"/><text fill="#D9D3D0" font-family="Verdana" font-size="13" font-weight="bold" lengthAdjust="spacing" textLength="189" x="30" y="287.5044">For each entry in entries</text><line style="stroke:#D9D3D0;stroke-width:1.0;" x1="96.5" x2="138.5" y1="312.7031" y2="312.7031"/><line style="stroke:#D9D3D0;stroke-width:1.0;" x1="138.5" x2="138.5" y1="312.7031" y2="325.7031"/><line style="stroke:#D9D3D0;stroke-width:1.0;" x1="97.5" x2="138.5" y1="325.7031" y2="325.7031"/><polygon fill="#D9D3D0" points="107.5,321.7031,97.5,325.7031,107.5,329.7031,103.5,325.7031" style="stroke:#D9D3D0;stroke-width:1.0;"/><text fill="#D9D3D0" font-family="Verdana" font-size="13" font-weight="bold" lengthAdjust="spacing" textLength="9" x="103.5" y="307.6372">5</text><text fill="#D9D3D0" font-family="Verdana" font-size="13" lengthAdjust="spacing" textLength="164" x="116.5" y="307.6372">get_entry_text(entry.link)</text><path d="M292,300.0703 L292,325.0703 L427,325.0703 L427,310.0703 L417,300.0703 L292,300.0703 " fill="#003153" style="stroke:#D9D3D0;stroke-width:1.0;"/><path d="M417,300.0703 L417,310.0703 L427,310.0703 L417,300.0703 " fill="#003153" style="stroke:#D9D3D0;stroke-width:1.0;"/><text fill="#D9D3D0" font-family="Verdana" font-size="13" lengthAdjust="spacing" textLength="114" x="298" y="317.1372">Get entry content</text><line style="stroke:#D9D3D0;stroke-width:1.0;stroke-dasharray:2.0,2.0;" x1="96.5" x2="138.5" y1="354.8359" y2="354.8359"/><line style="stroke:#D9D3D0;stroke-width:1.0;stroke-dasharray:2.0,2.0;" x1="138.5" x2="138.5" y1="354.8359" y2="367.8359"/><line style="stroke:#D9D3D0;stroke-width:1.0;stroke-dasharray:2.0,2.0;" x1="97.5" x2="138.5" y1="367.8359" y2="367.8359"/><polygon fill="#D9D3D0" points="107.5,363.8359,97.5,367.8359,107.5,371.8359,103.5,367.8359" style="stroke:#D9D3D0;stroke-width:1.0;"/><text fill="#D9D3D0" font-family="Verdana" font-size="13" font-weight="bold" lengthAdjust="spacing" textLength="9" x="103.5" y="349.77">6</text><text fill="#D9D3D0" font-family="Verdana" font-size="13" lengthAdjust="spacing" textLength="82" x="116.5" y="349.77">text_content</text><line style="stroke:#D9D3D0;stroke-width:1.0;" x1="96.5" x2="138.5" y1="396.9688" y2="396.9688"/><line style="stroke:#D9D3D0;stroke-width:1.0;" x1="138.5" x2="138.5" y1="396.9688" y2="409.9688"/><line style="stroke:#D9D3D0;stroke-width:1.0;" x1="97.5" x2="138.5" y1="409.9688" y2="409.9688"/><polygon fill="#D9D3D0" points="107.5,405.9688,97.5,409.9688,107.5,413.9688,103.5,409.9688" style="stroke:#D9D3D0;stroke-width:1.0;"/><text fill="#D9D3D0" font-family="Verdana" font-size="13" font-weight="bold" lengthAdjust="spacing" textLength="9" x="103.5" y="391.9028">7</text><text fill="#D9D3D0" font-family="Verdana" font-size="13" lengthAdjust="spacing" textLength="230" x="116.5" y="391.9028">process_article(entry, text_content)</text><path d="M358,384.3359 L358,409.3359 L472,409.3359 L472,394.3359 L462,384.3359 L358,384.3359 " fill="#003153" style="stroke:#D9D3D0;stroke-width:1.0;"/><path d="M462,384.3359 L462,394.3359 L472,394.3359 L462,384.3359 " fill="#003153" style="stroke:#D9D3D0;stroke-width:1.0;"/><text fill="#D9D3D0" font-family="Verdana" font-size="13" lengthAdjust="spacing" textLength="93" x="364" y="401.4028">Process article</text><line style="stroke:#D9D3D0;stroke-width:1.0;stroke-dasharray:2.0,2.0;" x1="96.5" x2="138.5" y1="439.1016" y2="439.1016"/><line style="stroke:#D9D3D0;stroke-width:1.0;stroke-dasharray:2.0,2.0;" x1="138.5" x2="138.5" y1="439.1016" y2="452.1016"/><line style="stroke:#D9D3D0;stroke-width:1.0;stroke-dasharray:2.0,2.0;" x1="97.5" x2="138.5" y1="452.1016" y2="452.1016"/><polygon fill="#D9D3D0" points="107.5,448.1016,97.5,452.1016,107.5,456.1016,103.5,452.1016" style="stroke:#D9D3D0;stroke-width:1.0;"/><text fill="#D9D3D0" font-family="Verdana" font-size="13" font-weight="bold" lengthAdjust="spacing" textLength="9" x="103.5" y="434.0356">8</text><text fill="#D9D3D0" font-family="Verdana" font-size="13" lengthAdjust="spacing" textLength="39" x="116.5" y="434.0356">article</text><line style="stroke:#D9D3D0;stroke-width:1.0;" x1="96.5" x2="138.5" y1="481.2344" y2="481.2344"/><line style="stroke:#D9D3D0;stroke-width:1.0;" x1="138.5" x2="138.5" y1="481.2344" y2="494.2344"/><line style="stroke:#D9D3D0;stroke-width:1.0;" x1="97.5" x2="138.5" y1="494.2344" y2="494.2344"/><polygon fill="#D9D3D0" points="107.5,490.2344,97.5,494.2344,107.5,498.2344,103.5,494.2344" style="stroke:#D9D3D0;stroke-width:1.0;"/><text fill="#D9D3D0" font-family="Verdana" font-size="13" font-weight="bold" lengthAdjust="spacing" textLength="9" x="103.5" y="476.1685">9</text><text fill="#D9D3D0" font-family="Verdana" font-size="13" lengthAdjust="spacing" textLength="97" x="116.5" y="476.1685">append(article)</text><path d="M225,468.6016 L225,493.6016 L377,493.6016 L377,478.6016 L367,468.6016 L225,468.6016 " fill="#003153" style="stroke:#D9D3D0;stroke-width:1.0;"/><path d="M367,468.6016 L367,478.6016 L377,478.6016 L367,468.6016 " fill="#003153" style="stroke:#D9D3D0;stroke-width:1.0;"/><text fill="#D9D3D0" font-family="Verdana" font-size="13" lengthAdjust="spacing" textLength="131" x="231" y="485.6685">Append article to list</text><polygon fill="#D9D3D0" points="664,529.3672,674,533.3672,664,537.3672,668,533.3672" style="stroke:#D9D3D0;stroke-width:1.0;"/><line style="stroke:#D9D3D0;stroke-width:1.0;" x1="96.5" x2="670" y1="533.3672" y2="533.3672"/><text fill="#D9D3D0" font-family="Verdana" font-size="13" font-weight="bold" lengthAdjust="spacing" textLength="19" x="103.5" y="528.3013">10</text><text fill="#D9D3D0" font-family="Verdana" font-size="13" lengthAdjust="spacing" textLength="150" x="126.5" y="528.3013">create_articles(articles)</text><path d="M681,514.2344 L681,539.2344 L863,539.2344 L863,524.2344 L853,514.2344 L681,514.2344 " fill="#003153" style="stroke:#D9D3D0;stroke-width:1.0;"/><path d="M853,514.2344 L853,524.2344 L863,524.2344 L853,514.2344 " fill="#003153" style="stroke:#D9D3D0;stroke-width:1.0;"/><text fill="#D9D3D0" font-family="Verdana" font-size="13" lengthAdjust="spacing" textLength="161" x="687" y="531.3013">Save articles in database</text><polygon fill="#D9D3D0" points="107.5,561.5,97.5,565.5,107.5,569.5,103.5,565.5" style="stroke:#D9D3D0;stroke-width:1.0;"/><line style="stroke:#D9D3D0;stroke-width:1.0;stroke-dasharray:2.0,2.0;" x1="101.5" x2="675" y1="565.5" y2="565.5"/><text fill="#D9D3D0" font-family="Verdana" font-size="13" font-weight="bold" lengthAdjust="spacing" textLength="18" x="113.5" y="560.4341">11</text><text fill="#D9D3D0" font-family="Verdana" font-size="13" lengthAdjust="spacing" textLength="117" x="135.5" y="560.4341">Save confirmation</text><!--SRC=[bLFDSi8W4Bxp5DjREbDzW1mwuw7ssZ4Fa45SbIa2ispQ-lQ54AnKS_2IMJxuVdOXhDaWh97LCNvn1s-MIME0jN7VuecFU4BOcW4zQSj23kpiSDeY2I4LEu9zelRxIEqnKuMNn5ffBos3CZh25HJh44ydIeMlKccmmdQIvLO65EBM1nQlatmB1-Gck84KBWSopy8wHY1zECQztDocws2qp1HOHFQjPWk4mJixxtYLlisB9jMrvKV2_oolEBE-PNZYG6xmi8wZHHbp9_mCsbuEt8zrJp8EPLoSUyOVRiPoQRJzhCE-8qykobbEjtNFOiOZAVU5zq0sJqvX2BtCbvx3lLHo_qQQ2J0H7ibOA0_4azwZtJKJiqwo6lUAAh03emEBYCqvb5VSWYAKZANhK0n2xT39Bopw8TtzvJSenMol8pKESA_f95ax-mi0]--></g></svg>