<?xml version="1.0" encoding="us-ascii" standalone="no"?><svg xmlns="http://www.w3.org/2000/svg" xmlns:xlink="http://www.w3.org/1999/xlink" contentStyleType="text/css" height="839px" preserveAspectRatio="none" style="width:1284px;height:839px;background:#003153;" version="1.1" viewBox="0 0 1284 839" width="1284px" zoomAndPan="magnify"><defs/><g><rect fill="#003153" height="839" style="stroke:none;stroke-width:1.0;" width="1284" x="0" y="0"/><text fill="#D9D3D0" font-family="Verdana" font-size="22" font-weight="bold" lengthAdjust="spacing" textLength="221" x="535" y="35.4209">Trading Strategy</text><rect fill="#003153" height="558.6016" style="stroke:#D9D3D0;stroke-width:1.0;" width="10" x="262.5" y="160.0391"/><rect fill="#003153" height="458.2031" style="stroke:#D9D3D0;stroke-width:1.0;" width="10" x="557.5" y="260.4375"/><rect fill="#003153" height="165.3359" style="stroke:#D9D3D0;stroke-width:1.0;" width="10" x="817.5" y="384.9688"/><rect fill="#003153" height="289.8672" style="stroke:#D9D3D0;stroke-width:1.0;" width="965.5" x="138" y="275.4375"/><rect fill="#003153" height="116.2031" style="stroke:#D9D3D0;stroke-width:1.0;" width="365" x="148" y="399.9688"/><rect fill="#003153" height="56.9375" style="stroke:none;stroke-width:1.0;" width="365" x="148" y="459.2344"/><rect fill="#003153" height="90.2031" style="stroke:#D9D3D0;stroke-width:1.0;" width="1129" x="148" y="621.4375"/><rect fill="#003153" height="43.9375" style="stroke:none;stroke-width:1.0;" width="1129" x="148" y="667.7031"/><line style="stroke:#D9D3D0;stroke-width:1.0;" x1="28" x2="28" y1="128.9063" y2="757.7734"/><line style="stroke:#D9D3D0;stroke-width:1.0;" x1="267" x2="267" y1="128.9063" y2="757.7734"/><line style="stroke:#D9D3D0;stroke-width:1.0;" x1="562.5" x2="562.5" y1="128.9063" y2="757.7734"/><line style="stroke:#D9D3D0;stroke-width:1.0;" x1="822.5" x2="822.5" y1="128.9063" y2="757.7734"/><line style="stroke:#D9D3D0;stroke-width:1.0;" x1="1098" x2="1098" y1="128.9063" y2="757.7734"/><line style="stroke:#D9D3D0;stroke-width:1.0;" x1="1214" x2="1214" y1="128.9063" y2="757.7734"/><text fill="#D9D3D0" font-family="Verdana" font-size="14" lengthAdjust="spacing" textLength="31" x="10" y="125.6045">User</text><ellipse cx="28.5" cy="60.6094" fill="#003153" rx="8" ry="8" style="stroke:#D9D3D0;stroke-width:1.0;"/><path d="M28.5,68.6094 L28.5,95.6094 M15.5,76.6094 L41.5,76.6094 M28.5,95.6094 L15.5,110.6094 M28.5,95.6094 L41.5,110.6094 " fill="none" style="stroke:#D9D3D0;stroke-width:1.0;"/><text fill="#D9D3D0" font-family="Verdana" font-size="14" lengthAdjust="spacing" textLength="31" x="10" y="769.7686">User</text><ellipse cx="28.5" cy="782.0703" fill="#003153" rx="8" ry="8" style="stroke:#D9D3D0;stroke-width:1.0;"/><path d="M28.5,790.0703 L28.5,817.0703 M15.5,798.0703 L41.5,798.0703 M28.5,817.0703 L15.5,832.0703 M28.5,817.0703 L41.5,832.0703 " fill="none" style="stroke:#D9D3D0;stroke-width:1.0;"/><rect fill="#003153" height="30.2969" rx="2.5" ry="2.5" style="stroke:#D9D3D0;stroke-width:1.0;" width="199" x="168" y="97.6094"/><text fill="#D9D3D0" font-family="Verdana" font-size="14" lengthAdjust="spacing" textLength="185" x="175" y="117.6045">execute_trading_strategy</text><rect fill="#003153" height="30.2969" rx="2.5" ry="2.5" style="stroke:#D9D3D0;stroke-width:1.0;" width="199" x="168" y="756.7734"/><text fill="#D9D3D0" font-family="Verdana" font-size="14" lengthAdjust="spacing" textLength="185" x="175" y="776.7686">execute_trading_strategy</text><rect fill="#003153" height="30.2969" rx="2.5" ry="2.5" style="stroke:#D9D3D0;stroke-width:1.0;" width="96" x="514.5" y="97.6094"/><text fill="#D9D3D0" font-family="Verdana" font-size="14" lengthAdjust="spacing" textLength="82" x="521.5" y="117.6045">fetch_news</text><rect fill="#003153" height="30.2969" rx="2.5" ry="2.5" style="stroke:#D9D3D0;stroke-width:1.0;" width="96" x="514.5" y="756.7734"/><text fill="#D9D3D0" font-family="Verdana" font-size="14" lengthAdjust="spacing" textLength="82" x="521.5" y="776.7686">fetch_news</text><rect fill="#003153" height="30.2969" rx="2.5" ry="2.5" style="stroke:#D9D3D0;stroke-width:1.0;" width="150" x="747.5" y="97.6094"/><text fill="#D9D3D0" font-family="Verdana" font-size="14" lengthAdjust="spacing" textLength="136" x="754.5" y="117.6045">analyze_sentiment</text><rect fill="#003153" height="30.2969" rx="2.5" ry="2.5" style="stroke:#D9D3D0;stroke-width:1.0;" width="150" x="747.5" y="756.7734"/><text fill="#D9D3D0" font-family="Verdana" font-size="14" lengthAdjust="spacing" textLength="136" x="754.5" y="776.7686">analyze_sentiment</text><rect fill="#003153" height="30.2969" rx="2.5" ry="2.5" style="stroke:#D9D3D0;stroke-width:1.0;" width="87" x="1055" y="97.6094"/><text fill="#D9D3D0" font-family="Verdana" font-size="14" lengthAdjust="spacing" textLength="73" x="1062" y="117.6045">buy_stock</text><rect fill="#003153" height="30.2969" rx="2.5" ry="2.5" style="stroke:#D9D3D0;stroke-width:1.0;" width="87" x="1055" y="756.7734"/><text fill="#D9D3D0" font-family="Verdana" font-size="14" lengthAdjust="spacing" textLength="73" x="1062" y="776.7686">buy_stock</text><rect fill="#003153" height="30.2969" rx="2.5" ry="2.5" style="stroke:#D9D3D0;stroke-width:1.0;" width="85" x="1172" y="97.6094"/><text fill="#D9D3D0" font-family="Verdana" font-size="14" lengthAdjust="spacing" textLength="71" x="1179" y="117.6045">sell_stock</text><rect fill="#003153" height="30.2969" rx="2.5" ry="2.5" style="stroke:#D9D3D0;stroke-width:1.0;" width="85" x="1172" y="756.7734"/><text fill="#D9D3D0" font-family="Verdana" font-size="14" lengthAdjust="spacing" textLength="71" x="1179" y="776.7686">sell_stock</text><rect fill="#003153" height="558.6016" style="stroke:#D9D3D0;stroke-width:1.0;" width="10" x="262.5" y="160.0391"/><rect fill="#003153" height="458.2031" style="stroke:#D9D3D0;stroke-width:1.0;" width="10" x="557.5" y="260.4375"/><rect fill="#003153" height="165.3359" style="stroke:#D9D3D0;stroke-width:1.0;" width="10" x="817.5" y="384.9688"/><polygon fill="#D9D3D0" points="250.5,156.0391,260.5,160.0391,250.5,164.0391,254.5,160.0391" style="stroke:#D9D3D0;stroke-width:1.0;"/><line style="stroke:#D9D3D0;stroke-width:1.0;" x1="28.5" x2="256.5" y1="160.0391" y2="160.0391"/><text fill="#D9D3D0" font-family="Verdana" font-size="13" font-weight="bold" lengthAdjust="spacing" textLength="9" x="35.5" y="154.9731">1</text><text fill="#D9D3D0" font-family="Verdana" font-size="13" lengthAdjust="spacing" textLength="202" x="48.5" y="154.9731">Call execute_trading_strategy()</text><polygon fill="#D9D3D0" points="550.5,185.1719,560.5,189.1719,550.5,193.1719,554.5,189.1719" style="stroke:#D9D3D0;stroke-width:1.0;"/><line style="stroke:#D9D3D0;stroke-width:1.0;" x1="28.5" x2="556.5" y1="189.1719" y2="189.1719"/><text fill="#D9D3D0" font-family="Verdana" font-size="13" font-weight="bold" lengthAdjust="spacing" textLength="9" x="35.5" y="184.106">2</text><text fill="#D9D3D0" font-family="Verdana" font-size="13" lengthAdjust="spacing" textLength="171" x="48.5" y="184.106">Call fetch_news(company)</text><line style="stroke:#D9D3D0;stroke-width:1.0;" x1="562.5" x2="604.5" y1="218.3047" y2="218.3047"/><line style="stroke:#D9D3D0;stroke-width:1.0;" x1="604.5" x2="604.5" y1="218.3047" y2="231.3047"/><line style="stroke:#D9D3D0;stroke-width:1.0;" x1="563.5" x2="604.5" y1="231.3047" y2="231.3047"/><polygon fill="#D9D3D0" points="573.5,227.3047,563.5,231.3047,573.5,235.3047,569.5,231.3047" style="stroke:#D9D3D0;stroke-width:1.0;"/><text fill="#D9D3D0" font-family="Verdana" font-size="13" font-weight="bold" lengthAdjust="spacing" textLength="8" x="569.5" y="213.2388">3</text><text fill="#D9D3D0" font-family="Verdana" font-size="13" lengthAdjust="spacing" textLength="234" x="581.5" y="213.2388">Fetch news articles for the company</text><polygon fill="#D9D3D0" points="283.5,256.4375,273.5,260.4375,283.5,264.4375,279.5,260.4375" style="stroke:#D9D3D0;stroke-width:1.0;"/><line style="stroke:#D9D3D0;stroke-width:1.0;stroke-dasharray:2.0,2.0;" x1="277.5" x2="556.5" y1="260.4375" y2="260.4375"/><text fill="#D9D3D0" font-family="Verdana" font-size="13" font-weight="bold" lengthAdjust="spacing" textLength="9" x="289.5" y="255.3716">4</text><text fill="#D9D3D0" font-family="Verdana" font-size="13" lengthAdjust="spacing" textLength="131" x="302.5" y="255.3716">Return news articles</text><path d="M138,275.4375 L216,275.4375 L216,282.5703 L206,292.5703 L138,292.5703 L138,275.4375 " fill="#003153" style="stroke:#D9D3D0;stroke-width:1.0;"/><rect fill="none" height="289.8672" style="stroke:#D9D3D0;stroke-width:1.0;" width="965.5" x="138" y="275.4375"/><text fill="#D9D3D0" font-family="Verdana" font-size="13" font-weight="bold" lengthAdjust="spacing" textLength="33" x="153" y="288.5044">loop</text><text fill="#D9D3D0" font-family="Verdana" font-size="11" font-weight="bold" lengthAdjust="spacing" textLength="225" x="231" y="287.6479">[for each article in news_articles]</text><polygon fill="#D9D3D0" points="810.5,309.7031,820.5,313.7031,810.5,317.7031,814.5,313.7031" style="stroke:#D9D3D0;stroke-width:1.0;"/><line style="stroke:#D9D3D0;stroke-width:1.0;" x1="272.5" x2="816.5" y1="313.7031" y2="313.7031"/><text fill="#D9D3D0" font-family="Verdana" font-size="13" font-weight="bold" lengthAdjust="spacing" textLength="9" x="279.5" y="308.6372">5</text><text fill="#D9D3D0" font-family="Verdana" font-size="13" lengthAdjust="spacing" textLength="198" x="292.5" y="308.6372">Call analyze_sentiment(article)</text><line style="stroke:#D9D3D0;stroke-width:1.0;" x1="822.5" x2="864.5" y1="342.8359" y2="342.8359"/><line style="stroke:#D9D3D0;stroke-width:1.0;" x1="864.5" x2="864.5" y1="342.8359" y2="355.8359"/><line style="stroke:#D9D3D0;stroke-width:1.0;" x1="823.5" x2="864.5" y1="355.8359" y2="355.8359"/><polygon fill="#D9D3D0" points="833.5,351.8359,823.5,355.8359,833.5,359.8359,829.5,355.8359" style="stroke:#D9D3D0;stroke-width:1.0;"/><text fill="#D9D3D0" font-family="Verdana" font-size="13" font-weight="bold" lengthAdjust="spacing" textLength="9" x="829.5" y="337.77">6</text><text fill="#D9D3D0" font-family="Verdana" font-size="13" lengthAdjust="spacing" textLength="249" x="842.5" y="337.77">Analyze sentiment score for the article</text><polygon fill="#D9D3D0" points="283.5,380.9688,273.5,384.9688,283.5,388.9688,279.5,384.9688" style="stroke:#D9D3D0;stroke-width:1.0;"/><line style="stroke:#D9D3D0;stroke-width:1.0;stroke-dasharray:2.0,2.0;" x1="277.5" x2="816.5" y1="384.9688" y2="384.9688"/><text fill="#D9D3D0" font-family="Verdana" font-size="13" font-weight="bold" lengthAdjust="spacing" textLength="9" x="289.5" y="379.9028">7</text><text fill="#D9D3D0" font-family="Verdana" font-size="13" lengthAdjust="spacing" textLength="151" x="302.5" y="379.9028">Return sentiment score</text><path d="M148,399.9688 L214,399.9688 L214,407.1016 L204,417.1016 L148,417.1016 L148,399.9688 " fill="#003153" style="stroke:#D9D3D0;stroke-width:1.0;"/><rect fill="none" height="116.2031" style="stroke:#D9D3D0;stroke-width:1.0;" width="365" x="148" y="399.9688"/><text fill="#D9D3D0" font-family="Verdana" font-size="13" font-weight="bold" lengthAdjust="spacing" textLength="21" x="163" y="413.0356">alt</text><text fill="#D9D3D0" font-family="Verdana" font-size="11" font-weight="bold" lengthAdjust="spacing" textLength="279" x="229" y="412.1792">[sentiment_score &gt; sentiment_threshold]</text><line style="stroke:#D9D3D0;stroke-width:1.0;" x1="272.5" x2="314.5" y1="438.2344" y2="438.2344"/><line style="stroke:#D9D3D0;stroke-width:1.0;" x1="314.5" x2="314.5" y1="438.2344" y2="451.2344"/><line style="stroke:#D9D3D0;stroke-width:1.0;" x1="273.5" x2="314.5" y1="451.2344" y2="451.2344"/><polygon fill="#D9D3D0" points="283.5,447.2344,273.5,451.2344,283.5,455.2344,279.5,451.2344" style="stroke:#D9D3D0;stroke-width:1.0;"/><text fill="#D9D3D0" font-family="Verdana" font-size="13" font-weight="bold" lengthAdjust="spacing" textLength="9" x="279.5" y="433.1685">8</text><text fill="#D9D3D0" font-family="Verdana" font-size="13" lengthAdjust="spacing" textLength="162" x="292.5" y="433.1685">Increment positive_count</text><line style="stroke:#D9D3D0;stroke-width:1.0;stroke-dasharray:2.0,2.0;" x1="148" x2="513" y1="460.2344" y2="460.2344"/><text fill="#D9D3D0" font-family="Verdana" font-size="11" font-weight="bold" lengthAdjust="spacing" textLength="284" x="153" y="470.4448">[sentiment_score &lt; -sentiment_threshold]</text><line style="stroke:#D9D3D0;stroke-width:1.0;" x1="272.5" x2="314.5" y1="495.1719" y2="495.1719"/><line style="stroke:#D9D3D0;stroke-width:1.0;" x1="314.5" x2="314.5" y1="495.1719" y2="508.1719"/><line style="stroke:#D9D3D0;stroke-width:1.0;" x1="273.5" x2="314.5" y1="508.1719" y2="508.1719"/><polygon fill="#D9D3D0" points="283.5,504.1719,273.5,508.1719,283.5,512.1719,279.5,508.1719" style="stroke:#D9D3D0;stroke-width:1.0;"/><text fill="#D9D3D0" font-family="Verdana" font-size="13" font-weight="bold" lengthAdjust="spacing" textLength="9" x="279.5" y="490.106">9</text><text fill="#D9D3D0" font-family="Verdana" font-size="13" lengthAdjust="spacing" textLength="168" x="292.5" y="490.106">Increment negative_count</text><line style="stroke:#D9D3D0;stroke-width:1.0;" x1="272.5" x2="314.5" y1="549.3047" y2="549.3047"/><line style="stroke:#D9D3D0;stroke-width:1.0;" x1="314.5" x2="314.5" y1="549.3047" y2="562.3047"/><line style="stroke:#D9D3D0;stroke-width:1.0;" x1="267.5" x2="314.5" y1="562.3047" y2="562.3047"/><polygon fill="#D9D3D0" points="277.5,558.3047,267.5,562.3047,277.5,566.3047,273.5,562.3047" style="stroke:#D9D3D0;stroke-width:1.0;"/><text fill="#D9D3D0" font-family="Verdana" font-size="13" font-weight="bold" lengthAdjust="spacing" textLength="19" x="279.5" y="544.2388">10</text><text fill="#D9D3D0" font-family="Verdana" font-size="13" lengthAdjust="spacing" textLength="141" x="302.5" y="544.2388">Increment total_count</text><line style="stroke:#D9D3D0;stroke-width:1.0;" x1="272.5" x2="314.5" y1="593.4375" y2="593.4375"/><line style="stroke:#D9D3D0;stroke-width:1.0;" x1="314.5" x2="314.5" y1="593.4375" y2="606.4375"/><line style="stroke:#D9D3D0;stroke-width:1.0;" x1="273.5" x2="314.5" y1="606.4375" y2="606.4375"/><polygon fill="#D9D3D0" points="283.5,602.4375,273.5,606.4375,283.5,610.4375,279.5,606.4375" style="stroke:#D9D3D0;stroke-width:1.0;"/><text fill="#D9D3D0" font-family="Verdana" font-size="13" font-weight="bold" lengthAdjust="spacing" textLength="18" x="279.5" y="588.3716">11</text><text fill="#D9D3D0" font-family="Verdana" font-size="13" lengthAdjust="spacing" textLength="249" x="301.5" y="588.3716">Compute positive_ratio, negative_ratio</text><path d="M148,621.4375 L214,621.4375 L214,628.5703 L204,638.5703 L148,638.5703 L148,621.4375 " fill="#003153" style="stroke:#D9D3D0;stroke-width:1.0;"/><rect fill="none" height="90.2031" style="stroke:#D9D3D0;stroke-width:1.0;" width="1129" x="148" y="621.4375"/><text fill="#D9D3D0" font-family="Verdana" font-size="13" font-weight="bold" lengthAdjust="spacing" textLength="21" x="163" y="634.5044">alt</text><text fill="#D9D3D0" font-family="Verdana" font-size="11" font-weight="bold" lengthAdjust="spacing" textLength="255" x="229" y="633.6479">[positive_ratio &gt; buy_sell_percentage]</text><polygon fill="#D9D3D0" points="1086.5,655.7031,1096.5,659.7031,1086.5,663.7031,1090.5,659.7031" style="stroke:#D9D3D0;stroke-width:1.0;"/><line style="stroke:#D9D3D0;stroke-width:1.0;" x1="272.5" x2="1092.5" y1="659.7031" y2="659.7031"/><text fill="#D9D3D0" font-family="Verdana" font-size="13" font-weight="bold" lengthAdjust="spacing" textLength="18" x="279.5" y="654.6372">12</text><text fill="#D9D3D0" font-family="Verdana" font-size="13" lengthAdjust="spacing" textLength="162" x="301.5" y="654.6372">Call buy_stock(company)</text><line style="stroke:#D9D3D0;stroke-width:1.0;stroke-dasharray:2.0,2.0;" x1="148" x2="1277" y1="668.7031" y2="668.7031"/><text fill="#D9D3D0" font-family="Verdana" font-size="11" font-weight="bold" lengthAdjust="spacing" textLength="259" x="153" y="678.9136">[negative_ratio &gt; buy_sell_percentage]</text><polygon fill="#D9D3D0" points="1202.5,699.6406,1212.5,703.6406,1202.5,707.6406,1206.5,703.6406" style="stroke:#D9D3D0;stroke-width:1.0;"/><line style="stroke:#D9D3D0;stroke-width:1.0;" x1="272.5" x2="1208.5" y1="703.6406" y2="703.6406"/><text fill="#D9D3D0" font-family="Verdana" font-size="13" font-weight="bold" lengthAdjust="spacing" textLength="17" x="279.5" y="698.5747">13</text><text fill="#D9D3D0" font-family="Verdana" font-size="13" lengthAdjust="spacing" textLength="159" x="300.5" y="698.5747">Call sell_stock(company)</text><polygon fill="#D9D3D0" points="39.5,735.7734,29.5,739.7734,39.5,743.7734,35.5,739.7734" style="stroke:#D9D3D0;stroke-width:1.0;"/><line style="stroke:#D9D3D0;stroke-width:1.0;stroke-dasharray:2.0,2.0;" x1="33.5" x2="266.5" y1="739.7734" y2="739.7734"/><text fill="#D9D3D0" font-family="Verdana" font-size="13" font-weight="bold" lengthAdjust="spacing" textLength="18" x="45.5" y="734.7075">14</text><text fill="#D9D3D0" font-family="Verdana" font-size="13" lengthAdjust="spacing" textLength="170" x="67.5" y="734.7075">Trading strategy executed</text><!--SRC=[jLJBQiCm4BphAzHR0iqFX18eWKAlVPoD8cziKLaoqhgj-_LTsyAIuzgKXbwCj8-PsP4bLAY1lpYHArFmPtG2eMZP3PPG0J_f1cgd33BHe3LDTGB7X4Jh-Akd9Uk-V7VWy0coGSXm0Cfy0Dhpez1wCRtPiWvElTDkiIYod05bcHduy04t1ZRILhKmxPR5s6NBGxVcVKOuL5A3vsSQXMRbeNtIlJhN4s3Zp1Gj6IRYCAQjhNiY4CGVYhaQchEnUOch6qCOeTilo3mOL1LzWW6p-2R0RTaijO1pFuHuhFFIEXYT2O0_uVt6e0lOnA8P8EKqnePiq7588bWwyANL-QfPoveUZNJGYwcjLwG3CcaROWRjOSPyntV_GMsW42croTdLc6XHw038SbZn-0gw8zqHoaJlAA7iRHoetm-dEAsXGpmrBQdGEgl1IH8Y2bYLqTUZbM_XJn_tyQRtXpOb_mDHNvionK12rRcM-9fSxoIw_88j2o05tVEs7z_WCHLwycy0]--></g></svg>